<svg width="243" height="253" viewBox="0 0 243 253" fill="none" xmlns="http://www.w3.org/2000/svg">
<path fill-rule="evenodd" clip-rule="evenodd" d="M241.161 110.642C240.817 125.842 236.198 140.171 228.244 152.876L240.811 152.98L241.161 110.642ZM13.4029 151.099L0.819205 150.995L1.29077 93.9968L2.44002 94.0063C1.65134 98.4125 1.22529 102.916 1.18739 107.496C1.05807 123.128 5.46343 137.938 13.4029 151.099ZM240.15 95.973C240.805 100.018 241.155 104.14 241.18 108.322L241.283 95.9824L240.15 95.973Z" fill="#F2DFF2"/>
<path fill-rule="evenodd" clip-rule="evenodd" d="M7.5 151.05L7.5 180C7.5 180.828 8.17157 181.5 9 181.5C9.82843 181.5 10.5 180.828 10.5 180L10.5 151.075L13.4028 151.099C32.8123 183.274 73.3435 205.597 120.377 205.986C167.41 206.375 208.305 184.726 228.244 152.876L231.32 152.902L231.08 181.901C231.073 182.729 231.739 183.406 232.567 183.413C233.396 183.42 234.073 182.754 234.08 181.926L234.319 152.927L240.819 152.98C240.711 166.112 237.499 179.09 231.369 191.172C225.238 203.254 216.308 214.205 205.088 223.398C193.869 232.591 180.58 239.848 165.98 244.752C151.379 249.657 135.754 252.115 119.996 251.984C104.238 251.854 88.6556 249.138 74.1386 243.993C59.6216 238.847 46.4543 231.372 35.3885 221.994C24.3227 212.616 15.575 201.52 9.64506 189.337C3.71507 177.155 0.718871 164.127 0.827515 150.995L7.5 151.05ZM207.101 179.202L206.791 216.701C206.784 217.53 207.45 218.207 208.278 218.213C209.107 218.22 209.784 217.554 209.791 216.726L210.101 179.227C210.108 178.399 209.442 177.722 208.613 177.715C207.785 177.708 207.108 178.374 207.101 179.202ZM198.729 224.135L199.044 186.136C199.05 185.308 199.727 184.642 200.556 184.648C201.384 184.655 202.05 185.332 202.043 186.161L201.729 224.16C201.722 224.988 201.045 225.654 200.217 225.647C199.388 225.64 198.722 224.963 198.729 224.135ZM191.002 191.07L190.688 229.068C190.681 229.897 191.347 230.574 192.176 230.581C193.004 230.588 193.681 229.922 193.688 229.093L194.002 191.094C194.009 190.266 193.343 189.589 192.515 189.582C191.686 189.575 191.009 190.241 191.002 191.07ZM184.482 193.516C185.31 193.523 185.976 194.2 185.969 195.028L185.647 234.027C185.64 234.855 184.963 235.521 184.134 235.514C183.306 235.507 182.64 234.83 182.647 234.002L182.97 195.003C182.976 194.175 183.653 193.509 184.482 193.516ZM177.937 198.962C177.943 198.133 177.277 197.456 176.449 197.449C175.621 197.442 174.944 198.108 174.937 198.937L174.614 237.935C174.607 238.764 175.273 239.441 176.102 239.448C176.93 239.455 177.607 238.789 177.614 237.96L177.937 198.962ZM168.425 200.383C169.253 200.39 169.919 201.067 169.912 201.895L169.589 240.894C169.583 241.723 168.905 242.389 168.077 242.382C167.249 242.375 166.583 241.698 166.59 240.869L166.912 201.871C166.919 201.042 167.596 200.376 168.425 200.383ZM161.888 204.829C161.894 204.001 161.228 203.324 160.4 203.317C159.572 203.31 158.894 203.976 158.888 204.804L158.565 243.803C158.558 244.631 159.224 245.308 160.053 245.315C160.881 245.322 161.558 244.656 161.565 243.828L161.888 204.829ZM152.384 205.251C153.212 205.257 153.878 205.934 153.871 206.763L153.549 245.762C153.542 246.59 152.865 247.256 152.036 247.249C151.208 247.242 150.542 246.565 150.549 245.737L150.871 206.738C150.878 205.91 151.555 205.244 152.384 205.251ZM142.859 208.172L142.533 247.671C142.526 248.499 143.192 249.176 144.02 249.183C144.848 249.19 145.526 248.524 145.532 247.695L145.859 208.197C145.866 207.368 145.2 206.691 144.372 206.684C143.543 206.678 142.866 207.344 142.859 208.172ZM134.524 248.604L134.851 209.106C134.858 208.277 135.535 207.611 136.364 207.618C137.192 207.625 137.858 208.302 137.851 209.13L137.524 248.629C137.518 249.457 136.84 250.123 136.012 250.117C135.184 250.11 134.518 249.433 134.524 248.604ZM34.107 177.771L33.7968 215.27C33.7899 216.098 33.1128 216.764 32.2844 216.757C31.456 216.751 30.79 216.073 30.7969 215.245L31.1071 177.746C31.114 176.918 31.7911 176.252 32.6195 176.259C33.4479 176.266 34.1139 176.943 34.107 177.771ZM41.7345 222.836L42.0489 184.837C42.0558 184.009 41.3898 183.332 40.5614 183.325C39.733 183.318 39.0559 183.984 39.049 184.812L38.7346 222.811C38.7278 223.639 39.3938 224.316 40.2222 224.323C41.0506 224.33 41.7277 223.664 41.7345 222.836ZM50.0073 189.903L49.6929 227.902C49.686 228.73 49.0089 229.396 48.1805 229.389C47.3521 229.382 46.6861 228.705 46.693 227.877L47.0074 189.878C47.0142 189.05 47.6913 188.384 48.5197 188.391C49.3481 188.398 50.0141 189.075 50.0073 189.903ZM56.4863 192.457C55.6579 192.45 54.9808 193.116 54.9739 193.944L54.6513 232.943C54.6444 233.771 55.3104 234.449 56.1388 234.455C56.9672 234.462 57.6443 233.796 57.6512 232.968L57.9738 193.969C57.9807 193.141 57.3147 192.464 56.4863 192.457ZM62.9323 199.01C62.9392 198.182 63.6163 197.516 64.4447 197.523C65.2731 197.53 65.9391 198.207 65.9322 199.035L65.6096 238.034C65.6027 238.862 64.9256 239.528 64.0972 239.521C63.2688 239.514 62.6028 238.837 62.6097 238.009L62.9323 199.01ZM72.4278 199.589C71.5994 199.582 70.9223 200.248 70.9155 201.076L70.5928 240.075C70.586 240.904 71.2519 241.581 72.0803 241.587C72.9087 241.594 73.5859 240.928 73.5927 240.1L73.9154 201.101C73.9222 200.273 73.2562 199.596 72.4278 199.589ZM78.8904 204.142C78.8973 203.314 79.5744 202.648 80.4028 202.655C81.2312 202.662 81.8972 203.339 81.8903 204.167L81.5677 243.166C81.5608 243.994 80.8837 244.66 80.0553 244.653C79.2269 244.647 78.5609 243.969 78.5678 243.141L78.8904 204.142ZM88.3859 204.721C87.5575 204.714 86.8804 205.38 86.8736 206.209L86.5509 245.207C86.5441 246.036 87.2101 246.713 88.0385 246.72C88.8669 246.726 89.544 246.06 89.5508 245.232L89.8735 206.233C89.8803 205.405 89.2143 204.728 88.3859 204.721ZM97.8608 207.8L97.534 247.298C97.5271 248.127 96.85 248.793 96.0216 248.786C95.1932 248.779 94.5272 248.102 94.5341 247.273L94.8609 207.775C94.8677 206.946 95.5449 206.28 96.3732 206.287C97.2016 206.294 97.8676 206.971 97.8608 207.8ZM105.525 248.364L105.852 208.866C105.859 208.037 105.193 207.36 104.365 207.353C103.536 207.346 102.859 208.012 102.852 208.841L102.526 248.34C102.519 249.168 103.185 249.845 104.013 249.852C104.842 249.859 105.519 249.193 105.525 248.364ZM126.847 209.539L126.516 249.538C126.51 250.366 127.176 251.043 128.004 251.05C128.832 251.057 129.509 250.391 129.516 249.563L129.847 209.564C129.854 208.736 129.188 208.059 128.36 208.052C127.531 208.045 126.854 208.711 126.847 209.539ZM110.517 249.406L110.848 209.407C110.855 208.579 111.532 207.913 112.36 207.919C113.189 207.926 113.855 208.603 113.848 209.432L113.517 249.43C113.51 250.259 112.833 250.925 112.005 250.918C111.176 250.911 110.51 250.234 110.517 249.406ZM118.848 209.473L118.517 249.472C118.51 250.3 119.176 250.977 120.004 250.984C120.833 250.991 121.51 250.325 121.517 249.497L121.848 209.498C121.854 208.67 121.188 207.992 120.36 207.986C119.532 207.979 118.855 208.645 118.848 209.473ZM214.861 208.268L215.163 171.769C215.17 170.94 215.847 170.274 216.675 170.281C217.504 170.288 218.17 170.965 218.163 171.794L217.861 208.292C217.854 209.121 217.177 209.787 216.348 209.78C215.52 209.773 214.854 209.096 214.861 208.268ZM223.237 162.835L222.952 197.334C222.945 198.162 223.611 198.84 224.439 198.846C225.268 198.853 225.945 198.187 225.952 197.359L226.237 162.86C226.244 162.032 225.578 161.355 224.749 161.348C223.921 161.341 223.244 162.007 223.237 162.835ZM25.8674 206.704L26.1694 170.205C26.1762 169.377 25.5102 168.7 24.6818 168.693C23.8534 168.686 23.1763 169.352 23.1695 170.18L22.8675 206.679C22.8607 207.508 23.5267 208.185 24.3551 208.192C25.1835 208.198 25.8606 207.532 25.8674 206.704ZM18.2441 161.139L17.9587 195.638C17.9518 196.467 17.2747 197.133 16.4463 197.126C15.6179 197.119 14.9519 196.442 14.9588 195.613L15.2442 161.115C15.2511 160.286 15.9282 159.62 16.7566 159.627C17.585 159.634 18.2509 160.311 18.2441 161.139Z" fill="#F2DFF2"/>
<ellipse cx="121.245" cy="100.989" rx="120" ry="100" transform="rotate(0.474019 121.245 100.989)" fill="#F2DFF2"/>
</svg>
