<svg width="667" height="719" viewBox="0 0 667 719" fill="none" xmlns="http://www.w3.org/2000/svg">
<path fill-rule="evenodd" clip-rule="evenodd" d="M544.251 84.9479C598.52 125.603 649.316 176.016 662.776 239.979C676.668 303.401 652.789 380.916 630.647 447.049C608.94 513.181 588.968 568.471 559.447 616.174C530.358 663.875 491.284 703.988 447.869 715.372C404.453 726.213 356.696 708.324 290.704 709.951C224.713 712.119 140.922 733.803 83.6131 699.652C26.7388 665.501 -4.08605 575.518 2.86039 492.04C9.37279 408.561 53.2223 331.588 87.0864 252.989C121.385 174.931 145.698 95.2472 191.717 50.2556C237.738 5.264 305.9 -5.03522 368.852 4.72195C431.805 15.0212 489.981 44.8349 544.251 84.9479Z" fill="#F2DFF2"/>
<path fill-rule="evenodd" clip-rule="evenodd" d="M460.093 54.4614V711.379C456.06 712.956 451.984 714.293 447.869 715.373C441.741 716.902 435.527 717.86 429.188 718.381V55.5514L460.093 54.4614Z" fill="#FAC3F9"/>
<path fill-rule="evenodd" clip-rule="evenodd" d="M204.919 76.6557C206.536 78.3106 208.653 79.1868 210.881 79.1233C213.107 79.0591 215.179 78.0628 216.713 76.3184C218.243 74.5716 219.057 72.2892 218.999 69.885C218.938 67.4823 218.015 65.2474 216.399 63.5933C213.061 60.1783 207.772 60.3297 204.605 63.9299C204.32 64.2554 204.062 64.5971 203.828 64.9535C201.491 68.5434 201.881 73.5499 204.919 76.6557ZM218.888 78.5438C216.804 80.9167 213.989 82.2709 210.959 82.357C207.933 82.4443 205.055 81.2535 202.855 79.0037C198.319 74.3616 198.129 66.6148 202.43 61.7041C206.734 56.809 213.925 56.6035 218.461 61.2454C220.661 63.4941 221.915 66.532 221.995 69.7993C222.062 72.4553 221.344 75.0047 219.953 77.14C219.632 77.6305 219.278 78.1003 218.888 78.5438Z" fill="#FEE9D1"/>
<path fill-rule="evenodd" clip-rule="evenodd" d="M472.522 31.3861C472.522 42.2413 467.411 51.9586 459.711 57.6738C455.378 60.8933 450.23 62.8397 444.717 63.0176C441.981 63.1057 439.333 62.7565 436.842 62.0152C434.963 61.4621 433.172 60.6894 431.484 59.7249C431.059 59.4742 430.632 59.224 430.214 58.9453C422.34 53.8284 417.106 44.3727 417.106 33.3848C417.106 16.5161 429.449 2.35961 444.717 1.75078C460.046 1.13951 472.522 14.4012 472.522 31.3861Z" fill="#C42B7C"/>
<path fill-rule="evenodd" clip-rule="evenodd" d="M459.791 30.2684C459.791 38.7078 455.817 46.2626 449.833 50.706C446.463 53.2094 442.46 54.7227 438.175 54.8608C436.049 54.9294 433.99 54.6579 432.051 54.0814C430.591 53.6515 429.199 53.0504 427.886 52.3007C427.556 52.1063 427.222 51.9115 426.899 51.6947C420.778 47.7168 416.706 40.3651 416.706 31.8221C416.706 18.7072 426.304 7.70101 438.175 7.2277C450.092 6.75259 459.791 17.0629 459.791 30.2684Z" fill="#EA409A"/>
<path fill-rule="evenodd" clip-rule="evenodd" d="M522.989 165.658C522.943 165.658 522.897 165.655 522.851 165.647L494.537 160.914L460.094 155.156L429.188 149.993L274.225 124.09C273.608 123.987 273.041 123.665 272.6 123.17L237.169 83.1491C236.706 82.6244 236.462 81.8993 236.503 81.1532L236.696 77.4473L236.911 77.5684C236.921 77.6491 236.952 77.7277 237.008 77.7901L274.068 118.289C274.579 118.849 275.234 119.213 275.945 119.332L524.604 160.894C524.617 160.896 524.63 160.896 524.642 160.896C524.795 160.896 524.908 160.751 524.906 160.594L525.184 160.992L523.873 164.963C523.732 165.383 523.376 165.658 522.989 165.658ZM501.068 119.887L499.818 117.758C499.503 117.22 499.631 116.491 500.107 116.117L534.783 88.744L533.199 94.1526C533.154 94.2736 531.965 95.2802 530.046 96.8464C523.345 102.315 507.767 114.609 501.068 119.887Z" fill="#65ADDE"/>
<path fill-rule="evenodd" clip-rule="evenodd" d="M524.642 160.896C524.63 160.896 524.615 160.896 524.603 160.894L275.945 119.332C275.234 119.213 274.578 118.849 274.068 118.289L237.008 77.7903C236.951 77.7281 236.92 77.6494 236.908 77.5686C236.899 77.4271 236.955 77.279 237.079 77.2003L284.273 46.8907C284.806 46.549 285.403 46.3716 286.007 46.3716C286.176 46.3716 286.345 46.3854 286.512 46.4136L535.015 87.9495C535.246 87.9879 535.315 88.3252 535.121 88.4777L534.783 88.7441L500.105 116.117C499.63 116.491 499.502 117.22 499.818 117.758L524.859 160.44C524.891 160.489 524.903 160.542 524.905 160.595C524.908 160.751 524.793 160.896 524.642 160.896ZM292.829 88.6365C292.388 88.6365 291.999 88.9832 291.928 89.4658L291.076 95.3009C290.997 95.8346 291.34 96.3403 291.833 96.4245L411.764 116.843C411.812 116.851 411.857 116.855 411.904 116.855C412.343 116.855 412.734 116.508 412.805 116.026L413.657 110.19C413.736 109.657 413.396 109.151 412.9 109.067L292.97 88.6484C292.924 88.6404 292.875 88.6365 292.829 88.6365ZM296.485 66.6532C296.046 66.6532 295.657 66.9998 295.588 67.4822L294.671 73.7414C294.592 74.2749 294.935 74.7805 295.429 74.8647L416.327 95.4478C416.374 95.4559 416.421 95.4598 416.466 95.4598C416.907 95.4598 417.296 95.1131 417.367 94.6305L418.281 88.3713C418.359 87.8377 418.02 87.3322 417.527 87.2481L296.629 66.6652C296.58 66.6569 296.534 66.6532 296.485 66.6532Z" fill="#9FD2F5"/>
<path fill-rule="evenodd" clip-rule="evenodd" d="M454.022 111.544C454.022 117.168 449.797 121.727 444.585 121.727C439.374 121.727 435.148 117.168 435.148 111.544C435.148 105.92 439.374 101.361 444.585 101.361C449.797 101.361 454.022 105.92 454.022 111.544Z" fill="#CBEEFF"/>
<path fill-rule="evenodd" clip-rule="evenodd" d="M416.466 95.4627C416.421 95.4627 416.374 95.459 416.326 95.4507L295.428 74.8678C294.935 74.7836 294.592 74.2778 294.671 73.7444L295.588 67.4851C295.656 67.0028 296.046 66.6562 296.485 66.6562C296.532 66.6562 296.58 66.66 296.627 66.6683L417.525 87.2512C418.02 87.3352 418.359 87.8408 418.281 88.3744L417.367 94.6335C417.296 95.116 416.905 95.4627 416.466 95.4627Z" fill="#CBEEFF"/>
<path fill-rule="evenodd" clip-rule="evenodd" d="M411.904 116.858C411.856 116.858 411.811 116.855 411.764 116.846L291.833 96.4282C291.338 96.344 290.997 95.8383 291.076 95.3045L291.928 89.4695C291.999 88.9869 292.388 88.6401 292.827 88.6401C292.875 88.6401 292.922 88.644 292.97 88.652L412.898 109.071C413.396 109.155 413.736 109.66 413.657 110.194L412.803 116.029C412.732 116.512 412.343 116.858 411.904 116.858Z" fill="#CBEEFF"/>
<path fill-rule="evenodd" clip-rule="evenodd" d="M258.311 328.189L260.832 328.855L296.95 289.559L512.26 268.276L540.995 264.405C541.591 264.323 542.112 264.846 542.08 265.494L541.831 270.563C541.74 271.255 514.432 306.024 514.432 306.024L548.384 335.832L547.989 339.917C547.942 340.404 547.6 340.78 547.173 340.82L519.438 343.352L303.65 363.052C303.045 363.107 302.441 362.943 301.921 362.581L259.972 333.471C259.42 333.088 259.038 332.461 258.917 331.746L258.311 328.189Z" fill="#C42B7C"/>
<path fill-rule="evenodd" clip-rule="evenodd" d="M298.742 286.476L541.419 264.32C541.917 264.275 542.217 264.902 541.896 265.314L515.174 299.563C514.809 300.032 514.844 300.765 515.251 301.19L547.974 335.409C548.135 335.577 548.037 335.871 547.814 335.891L304.264 358.125C303.568 358.189 302.871 358.006 302.269 357.604L258.68 328.441C258.492 328.316 258.465 328.032 258.62 327.864L296.728 287.483C297.279 286.9 297.986 286.546 298.742 286.476Z" fill="#EA409A"/>
<path fill-rule="evenodd" clip-rule="evenodd" d="M307.539 314.432C307.071 314.432 306.67 314.041 306.632 313.528L306.145 306.806C306.104 306.266 306.483 305.792 306.981 305.751L442.245 294.341C442.269 294.34 442.293 294.34 442.316 294.34C442.785 294.34 443.186 294.731 443.224 295.244L443.711 301.966C443.75 302.503 443.373 302.98 442.874 303.021L307.61 314.431C307.587 314.432 307.563 314.432 307.539 314.432Z" fill="#FAC3F9"/>
<path fill-rule="evenodd" clip-rule="evenodd" d="M308.716 337.376C308.248 337.376 307.847 336.984 307.807 336.471L307.355 330.198C307.314 329.658 307.691 329.184 308.191 329.141L442.375 317.823C442.397 317.823 442.421 317.82 442.445 317.82C442.916 317.82 443.317 318.216 443.352 318.727L443.808 325.001C443.847 325.538 443.468 326.012 442.97 326.056L308.786 337.373C308.762 337.376 308.738 337.376 308.716 337.376Z" fill="#FAC3F9"/>
<path fill-rule="evenodd" clip-rule="evenodd" d="M340.124 263.431C339.69 263.431 339.302 263.136 339.181 262.698L338.098 258.777L338.433 258.403C338.42 258.564 338.533 258.724 338.697 258.724C338.706 258.724 338.714 258.724 338.72 258.72L605.265 234.831C606.026 234.765 606.748 234.455 607.335 233.949L649.701 197.261C649.764 197.206 649.802 197.131 649.817 197.054L650.058 196.952L649.978 200.541C649.962 201.264 649.648 201.949 649.115 202.426L608.513 238.758C608.01 239.206 607.382 239.48 606.723 239.54L460.093 252.683L429.187 255.452L370.563 260.708L340.212 263.426C340.182 263.428 340.153 263.431 340.124 263.431ZM366.813 220.65C358.205 213.49 334.882 194.047 334.711 193.51L333.372 187.964L333.431 187.962C333.396 188.143 333.447 188.347 333.609 188.479L368.113 217.083C368.584 217.471 368.662 218.195 368.29 218.691L366.813 220.65Z" fill="#3F5B7C"/>
<path fill-rule="evenodd" clip-rule="evenodd" d="M338.697 258.729C338.533 258.729 338.42 258.571 338.433 258.41C338.441 258.358 338.457 258.307 338.492 258.261L368.289 218.696C368.662 218.202 368.584 217.477 368.115 217.09L333.61 188.486C333.449 188.352 333.396 188.15 333.432 187.968C333.474 187.761 333.628 187.578 333.862 187.559L429.188 179.014L460.093 176.244L586.767 164.891L599.685 163.733C599.792 163.724 599.899 163.719 600.006 163.719C600.723 163.719 601.423 163.934 602.022 164.341L649.669 196.695C649.791 196.776 649.841 196.924 649.817 197.061C649.803 197.138 649.764 197.211 649.701 197.268L607.335 233.954C606.748 234.462 606.026 234.772 605.267 234.838L338.721 258.727C338.714 258.729 338.706 258.729 338.697 258.729ZM595.626 206.912C595.603 206.912 595.579 206.913 595.555 206.913L464.496 217.969C463.999 218.01 463.62 218.486 463.661 219.025L464.133 225.554C464.172 226.066 464.57 226.458 465.041 226.458C465.065 226.458 465.088 226.458 465.112 226.457L596.17 215.401C596.671 215.36 597.047 214.886 597.009 214.345L596.534 207.819C596.497 207.303 596.096 206.912 595.626 206.912ZM595.41 182.705C595.386 182.705 595.363 182.707 595.339 182.71L463.223 193.852C462.725 193.893 462.35 194.37 462.387 194.908L462.894 201.898C462.932 202.411 463.333 202.806 463.801 202.806C463.825 202.806 463.848 202.802 463.872 202.801L595.988 191.658C596.485 191.618 596.864 191.144 596.823 190.603L596.318 183.612C596.279 183.099 595.88 182.705 595.41 182.705Z" fill="#4571A4"/>
<path fill-rule="evenodd" clip-rule="evenodd" d="M463.798 202.806C463.33 202.806 462.929 202.411 462.891 201.898L462.386 194.908C462.348 194.37 462.722 193.893 463.222 193.852L595.336 182.71C595.36 182.707 595.384 182.705 595.408 182.705C595.877 182.705 596.277 183.099 596.315 183.612L596.82 190.603C596.861 191.144 596.484 191.618 595.984 191.658L463.87 202.801C463.846 202.804 463.822 202.806 463.798 202.806Z" fill="#A3B5C9"/>
<path fill-rule="evenodd" clip-rule="evenodd" d="M465.039 226.458C464.569 226.458 464.169 226.065 464.131 225.552L463.659 219.023C463.618 218.485 463.997 218.008 464.495 217.967L595.553 206.913C595.577 206.913 595.601 206.91 595.624 206.91C596.095 206.91 596.496 207.302 596.532 207.817L597.007 214.343C597.045 214.884 596.669 215.358 596.169 215.4L465.11 226.455C465.086 226.458 465.062 226.458 465.039 226.458Z" fill="#A3B5C9"/>
<path fill-rule="evenodd" clip-rule="evenodd" d="M452.179 214.974C452.179 220.391 448.11 224.784 443.09 224.784C438.069 224.784 433.997 220.391 433.997 214.974C433.997 209.558 438.069 205.167 443.09 205.167C448.11 205.167 452.179 209.558 452.179 214.974Z" fill="#A3B5C9"/>
<path fill-rule="evenodd" clip-rule="evenodd" d="M464.069 268.806C456.801 259.148 449.976 259.566 449.976 259.566C438.516 309.655 377.883 353.785 318.369 373.071C322.086 390.915 330.742 421.124 349.458 444.987C448.459 386.262 464.069 268.806 464.069 268.806Z" fill="#FDBAB9"/>
<path fill-rule="evenodd" clip-rule="evenodd" d="M462.262 271.223C463.007 273.869 454.063 277.796 448.914 266.949C448.777 261.774 446.057 239.582 448.956 235.398C464.413 213.11 494.244 185.28 494.244 185.28C499.198 190.655 495.032 195.841 495.032 195.841L480.537 211.824C483.489 217.705 487.107 222.684 488.76 229.781C490.011 235.154 489.166 240.876 486.612 245.729C484.051 250.599 480.558 256.929 477.265 261.877C471.033 271.244 462.262 271.223 462.262 271.223Z" fill="#FDBAB9"/>
<path fill-rule="evenodd" clip-rule="evenodd" d="M241.923 385.482C167.085 383.379 84.2967 405.069 84.2967 405.069C64.5873 522.418 73.2588 655.155 76.6142 695.357C77.2427 702.884 82.4618 708.998 89.3522 710.363C128.025 718.033 168.81 713.38 189.326 710.01C197.307 708.7 203.688 702.197 205.384 693.681C218.941 625.59 257.673 475.374 257.673 475.374C294.286 470.853 324.515 459.777 349.458 444.982C330.742 421.119 322.085 390.91 318.369 373.067C291.827 381.667 265.006 386.132 241.923 385.482Z" fill="#4571A4"/>
<path fill-rule="evenodd" clip-rule="evenodd" d="M112.315 483.564L84.2966 405.069C84.2966 405.069 13.9296 455.603 1.85718 520.47C15.0585 521.657 39.0638 525.613 62.4798 538.673C67.9214 508.042 112.315 483.564 112.315 483.564Z" fill="#4571A4"/>
<path fill-rule="evenodd" clip-rule="evenodd" d="M172.762 557.785C172.762 557.785 93.8428 604.841 67.7184 563.695C62.2947 555.152 61.0543 546.706 62.4803 538.678C39.0643 525.618 15.059 521.66 1.85767 520.475C-1.78178 540.033 -0.133656 560.887 10.3496 582.056C55.9342 674.105 182.965 578.771 182.965 578.771L172.762 557.785Z" fill="#FDBAB9"/>
<path fill-rule="evenodd" clip-rule="evenodd" d="M167.022 593.015C167.022 593.015 161.031 566.446 163.448 557.021C165.863 547.592 170.544 535.474 186.145 538.168C201.745 540.86 220.148 547.952 220.148 547.952C220.148 547.952 219.217 560.229 207.361 556.267L214.714 562.407C214.714 562.407 213.663 572.237 203.649 566.987L210.487 575.126C210.487 575.126 206.186 583.2 198.817 578.022C191.449 572.843 187.917 596.215 167.022 593.015Z" fill="#FDBAB9"/>
<path fill-rule="evenodd" clip-rule="evenodd" d="M156.634 632.155L199.624 470.161C200.113 468.323 201.565 466.983 203.326 466.76C211.116 465.781 233.686 463.027 259.744 460.649C291.134 457.784 327.586 455.461 349.37 457.438C352.464 457.717 354.337 461.253 352.959 464.26C340.574 491.297 289.621 601.29 264.105 637.323C263.259 638.515 261.952 639.214 260.562 639.199L160.816 638.199C157.913 638.168 155.836 635.165 156.634 632.155Z" fill="#9FD2F5"/>
<path fill-rule="evenodd" clip-rule="evenodd" d="M256.878 509.005C256.878 516.523 262.527 522.62 269.498 522.62C276.47 522.62 282.116 516.523 282.116 509.005C282.116 501.483 276.47 495.387 269.498 495.387C262.527 495.387 256.878 501.483 256.878 509.005Z" fill="#CBEEFF"/>
<path fill-rule="evenodd" clip-rule="evenodd" d="M204.487 517.983L213.242 485.945C214.314 482.012 217.246 479.057 220.892 478.238C248.325 472.061 323.414 470.752 324.169 470.739L324.12 467.118C321.023 467.169 247.953 468.447 220.205 474.695C215.351 475.786 211.448 479.708 210.024 484.922L201.27 516.961L204.487 517.983Z" fill="#CBEEFF"/>
<path fill-rule="evenodd" clip-rule="evenodd" d="M166.687 319.144L142.212 393.213C141.809 394.438 142.264 395.806 143.316 396.45C149.774 400.388 173.064 411.823 201.421 392.832C204.376 390.853 206.403 387.599 206.882 383.882L215.162 319.641L166.687 319.144Z" fill="#FDBAB9"/>
<path fill-rule="evenodd" clip-rule="evenodd" d="M219.115 250.852C219.115 250.852 244.798 304.238 241.256 325.662C237.713 347.085 205.316 345.209 177.167 327.492L157.896 269.933L219.115 250.852Z" fill="#FDBAB9"/>
<path fill-rule="evenodd" clip-rule="evenodd" d="M178.667 299.342C179.824 298.804 180.26 297.289 179.581 296.146C177.517 292.672 173.651 285.584 172.453 279.402C172.453 279.402 167.779 276.107 184.485 271.974C201.191 267.84 226.106 261.413 231.466 246.16C236.691 231.287 223.64 193.616 202.022 223.302C201.2 224.432 199.609 224.442 198.806 223.293C195.352 218.344 186.238 208.043 173.408 214.099C161.401 219.762 159.971 229.204 160.091 233.97C160.128 235.372 158.957 236.451 157.684 236.174C151.648 234.867 137.152 233.649 130.24 249.639C124.545 262.804 128.105 270.329 131.373 274.024C132.432 275.22 131.945 277.171 130.475 277.64C126.49 278.911 121.328 282.494 121.753 292.542C122.34 306.433 136.739 305.357 140.84 304.765C141.512 304.669 142.186 304.927 142.636 305.472C146.11 309.702 161.775 327.672 178.882 329.993C180.365 330.197 181.528 328.628 181.056 327.097L173.85 303.775C173.515 302.692 174.005 301.513 174.975 301.058L178.667 299.342Z" fill="#332929"/>
<path fill-rule="evenodd" clip-rule="evenodd" d="M181.616 302.673C181.616 302.673 163.119 288.696 161.654 300.291C160.192 311.885 178.274 317.279 187.291 313.043L181.616 302.673Z" fill="#FDBAB9"/>
<path fill-rule="evenodd" clip-rule="evenodd" d="M122.922 45.6132C122.676 45.0234 122.642 44.3312 122.877 43.6811C123.239 42.6966 124.106 42.0977 125.027 42.0977C125.307 42.0977 125.592 42.153 125.87 42.2703C125.886 42.2775 125.903 42.2843 125.919 42.2912C124.908 43.4015 123.91 44.5077 122.922 45.6132Z" fill="#FAC3F9"/>
<path fill-rule="evenodd" clip-rule="evenodd" d="M175.001 175.83C174.394 174.289 173.804 172.752 173.242 171.221C174.037 169.152 174.771 167.041 175.428 164.929C175.744 163.885 176.648 163.225 177.617 163.225C177.858 163.225 178.105 163.268 178.347 163.356C179.557 163.794 180.21 165.206 179.804 166.512C178.988 169.142 178.057 171.77 177.039 174.325C176.984 174.455 176.924 174.583 176.852 174.697C176.437 175.385 175.738 175.799 175.001 175.83ZM180.705 155.393C180.563 155.393 180.421 155.379 180.276 155.35C179.021 155.096 178.196 153.795 178.433 152.443C178.882 149.848 179.237 147.205 179.484 144.581C179.605 143.295 180.605 142.339 181.776 142.339C181.854 142.339 181.933 142.342 182.014 142.352C183.281 142.492 184.206 143.713 184.076 145.084C183.815 147.845 183.444 150.632 182.969 153.36C182.912 153.692 182.797 153.993 182.64 154.261C182.219 154.956 181.494 155.393 180.705 155.393Z" fill="#FAC3F9"/>
<path fill-rule="evenodd" clip-rule="evenodd" d="M31.9574 209.441C31.4056 209.441 30.8518 209.225 30.41 208.795C29.4806 207.887 28.5533 206.944 27.6537 205.991C26.7446 205.026 26.7274 203.452 27.6243 202.467C28.0766 201.97 28.6735 201.719 29.2714 201.719C29.8552 201.719 30.4395 201.957 30.8889 202.434C31.7429 203.341 32.6243 204.236 33.5069 205.097C34.3597 205.93 34.503 207.293 33.8956 208.301C33.8297 208.413 33.755 208.518 33.671 208.619C33.2153 209.163 32.5877 209.441 31.9574 209.441Z" fill="#FAC3F9"/>
<path fill-rule="evenodd" clip-rule="evenodd" d="M3.41645 122.982C3.30165 122.982 3.18564 122.972 3.06888 122.953C1.80815 122.747 0.940265 121.478 1.13005 120.117C1.52001 117.33 2.02841 114.52 2.64059 111.772C2.89509 110.63 3.84067 109.863 4.8828 109.863C5.06187 109.863 5.2435 109.886 5.42513 109.931C6.66383 110.254 7.42748 111.599 7.12908 112.937C6.54812 115.548 6.06598 118.214 5.69592 120.861C5.64554 121.223 5.52425 121.556 5.35046 121.847C4.93273 122.538 4.20876 122.982 3.41645 122.982Z" fill="#FAC3F9"/>
<path fill-rule="evenodd" clip-rule="evenodd" d="M8.63815 102.008C8.35649 102.008 8.07016 101.952 7.79243 101.835C6.60654 101.329 6.02407 99.8832 6.49143 98.6007C7.44999 95.98 8.52576 93.3659 9.68767 90.8335C10.087 89.9556 10.9049 89.4497 11.7549 89.4497C12.1005 89.4497 12.4514 89.5313 12.7818 89.7108C13.9235 90.3211 14.3905 91.8158 13.8244 93.0494C12.7195 95.4546 11.6973 97.9381 10.7871 100.432C10.729 100.591 10.6568 100.738 10.5737 100.875C10.1448 101.59 9.40903 102.008 8.63815 102.008Z" fill="#FAC3F9"/>
<path fill-rule="evenodd" clip-rule="evenodd" d="M18.0453 82.8082C17.5981 82.8082 17.1466 82.6681 16.7488 82.3761C15.7086 81.612 15.4288 80.0919 16.111 78.9581L16.1384 78.9145C17.6093 76.5779 19.1906 74.2849 20.8371 72.098C21.2937 71.4919 21.9592 71.1777 22.6302 71.1777C23.1422 71.1777 23.6569 71.3605 24.0854 71.7364C25.0091 72.547 25.2007 73.9709 24.5658 75.0257C24.5215 75.0995 24.4725 75.1719 24.4206 75.2425C22.856 77.3199 21.3536 79.4977 19.9559 81.7166C19.5095 82.4261 18.7837 82.8082 18.0453 82.8082Z" fill="#FAC3F9"/>
<path fill-rule="evenodd" clip-rule="evenodd" d="M31.1466 66.3434C30.5273 66.3434 29.9094 66.0758 29.4548 65.5471C28.5866 64.5381 28.6456 62.9657 29.5757 62.0245C31.4904 60.1048 33.5061 58.2514 35.5669 56.5167C35.9882 56.1616 36.4885 55.9893 36.9848 55.9893C37.6718 55.9893 38.3514 56.3188 38.8065 56.9488C39.429 57.8096 39.4447 58.9735 38.9227 59.8401C38.7869 60.066 38.6137 60.2713 38.406 60.4465C36.4497 62.0943 34.5354 63.854 32.7176 65.6774C32.2729 66.1229 31.7091 66.3434 31.1466 66.3434Z" fill="#FAC3F9"/>
<path fill-rule="evenodd" clip-rule="evenodd" d="M148.988 62.1222C148.477 62.1222 147.964 61.9402 147.534 61.5664C145.61 59.8837 143.589 58.266 141.527 56.7583C140.484 55.9955 140.202 54.4731 140.886 53.3377L140.911 53.2967C141.356 52.5856 142.083 52.2021 142.824 52.2021C143.269 52.2021 143.72 52.3414 144.117 52.6315C146.286 54.2185 148.413 55.9212 150.442 57.693C151.367 58.503 151.56 59.9291 150.925 60.9852C150.88 61.058 150.835 61.129 150.783 61.1976C150.328 61.8063 149.66 62.1222 148.988 62.1222Z" fill="#FAC3F9"/>
<path fill-rule="evenodd" clip-rule="evenodd" d="M47.3176 53.4626C46.5193 53.4626 45.743 53.0152 45.3159 52.2153C44.6787 51.0227 45.0572 49.4987 46.162 48.8107C48.4257 47.4005 50.7741 46.0788 53.1403 44.8815C53.4571 44.7216 53.7902 44.6455 54.1182 44.6455C54.9861 44.6455 55.8173 45.1765 56.2103 46.0811C56.5618 46.8907 56.4744 47.8004 56.0543 48.4988C55.8272 48.8754 55.5041 49.1909 55.099 49.3956C52.8508 50.533 50.6205 51.7891 48.469 53.1287C48.1056 53.355 47.7089 53.4626 47.3176 53.4626Z" fill="#FAC3F9"/>
<path fill-rule="evenodd" clip-rule="evenodd" d="M132.045 50.4229C131.702 50.4229 131.354 50.3397 131.025 50.1647C128.794 48.9753 126.493 47.8777 124.187 46.9015C123.602 46.6541 123.163 46.1771 122.924 45.6036C123.912 44.4983 124.91 43.3919 125.922 42.2817C128.331 43.3035 130.736 44.4516 133.068 45.6943C134.212 46.3036 134.681 47.7987 134.117 49.0329C134.076 49.1227 134.031 49.2085 133.981 49.2901C133.546 50.011 132.809 50.4229 132.045 50.4229Z" fill="#FAC3F9"/>
<path fill-rule="evenodd" clip-rule="evenodd" d="M65.7442 44.7773C64.7581 44.7773 63.8455 44.0903 63.539 43.0202C63.1621 41.7043 63.8449 40.3088 65.0634 39.9033C67.5642 39.0684 70.125 38.3403 72.6736 37.7391C72.8398 37.6997 73.0058 37.6807 73.1693 37.6807C74.2303 37.6807 75.1857 38.4757 75.4212 39.6415C75.5588 40.3186 75.4266 40.9926 75.102 41.5317C74.7825 42.0627 74.2774 42.4629 73.6593 42.6085C71.2374 43.1802 68.8038 43.8717 66.4267 44.6657C66.1997 44.7415 65.9699 44.7773 65.7442 44.7773Z" fill="#FAC3F9"/>
<path fill-rule="evenodd" clip-rule="evenodd" d="M113.14 43.0494C112.963 43.0494 112.782 43.0271 112.602 42.9808C110.188 42.3591 107.72 41.8435 105.264 41.4478C104.003 41.2452 103.133 39.9764 103.321 38.6151C103.493 37.3792 104.478 36.4902 105.603 36.4902C105.716 36.4902 105.83 36.499 105.945 36.5178C108.531 36.9341 111.131 37.4774 113.673 38.1319C114.914 38.4514 115.679 39.7956 115.384 41.135C115.321 41.4202 115.214 41.6825 115.074 41.915C114.653 42.6153 113.924 43.0494 113.14 43.0494Z" fill="#FAC3F9"/>
<path fill-rule="evenodd" clip-rule="evenodd" d="M85.4983 40.7015C84.3036 40.7015 83.292 39.7078 83.1985 38.4007C83.1015 37.0285 84.0528 35.831 85.3225 35.724C87.6749 35.5286 90.0611 35.4297 92.4265 35.4297C92.6819 35.4297 92.9364 35.4307 93.1912 35.4333C94.4662 35.445 95.4911 36.5703 95.4798 37.9468C95.4758 38.439 95.3403 38.8968 95.1087 39.2815C94.6964 39.9666 93.9817 40.4182 93.1712 40.4182C93.1649 40.4182 93.1589 40.4182 93.1524 40.4182C92.9015 40.416 92.65 40.4147 92.3985 40.4147C90.1597 40.4147 87.9028 40.509 85.6778 40.694C85.6176 40.6989 85.5577 40.7015 85.4983 40.7015Z" fill="#FAC3F9"/>
<path fill-rule="evenodd" clip-rule="evenodd" d="M2.45362 140.452C1.21341 140.452 0.187573 139.388 0.148501 138.04C0.109579 136.686 0.0953988 135.312 0.107166 133.954C0.116821 132.584 1.1493 131.484 2.41409 131.484H2.43672C3.71147 131.497 4.7355 132.623 4.72343 134C4.71287 135.292 4.72554 136.598 4.76371 137.884C4.7791 138.412 4.64061 138.905 4.39275 139.316C3.99494 139.979 3.31366 140.426 2.52769 140.452C2.50295 140.452 2.47851 140.452 2.45362 140.452Z" fill="#FAC3F9"/>
<path fill-rule="evenodd" clip-rule="evenodd" d="M97.9165 234.372C96.7076 234.372 95.6925 233.358 95.615 232.035C95.5343 230.662 96.5005 229.476 97.7726 229.392C100.208 229.226 102.67 228.945 105.091 228.556C105.206 228.54 105.319 228.53 105.432 228.53C106.557 228.53 107.543 229.421 107.712 230.659C107.798 231.284 107.661 231.889 107.365 232.382C107.017 232.959 106.449 233.381 105.767 233.488C103.22 233.895 100.628 234.19 98.0646 234.366C98.015 234.369 97.9654 234.372 97.9165 234.372ZM85.6526 234.304C85.5957 234.304 85.5382 234.301 85.4808 234.294C82.913 234.092 80.3234 233.765 77.7846 233.328C76.5254 233.113 75.6674 231.833 75.8685 230.476C76.0496 229.248 77.0313 228.374 78.1462 228.374C78.267 228.374 78.3891 228.384 78.5122 228.406C80.9224 228.822 83.3813 229.131 85.8207 229.323C87.0922 229.424 88.0466 230.62 87.9529 231.993C87.9229 232.428 87.7927 232.825 87.5874 233.166C87.1732 233.853 86.4544 234.304 85.6526 234.304ZM117.413 230.691C116.411 230.691 115.49 229.986 115.196 228.897C114.84 227.571 115.545 226.188 116.769 225.805C119.113 225.071 121.46 224.216 123.743 223.272C124.015 223.158 124.295 223.106 124.57 223.106C125.498 223.106 126.373 223.717 126.725 224.706C127 225.483 126.894 226.315 126.504 226.962C126.248 227.385 125.869 227.73 125.397 227.927C122.994 228.923 120.525 229.82 118.058 230.594C117.843 230.659 117.626 230.691 117.413 230.691ZM66.1902 230.377C65.9671 230.377 65.7404 230.341 65.5159 230.266C63.059 229.46 60.6017 228.527 58.211 227.496C57.0274 226.984 56.4506 225.535 56.9242 224.255C57.2846 223.282 58.1529 222.689 59.0704 222.689C59.3548 222.689 59.6442 222.745 59.9243 222.865C62.1953 223.847 64.529 224.732 66.8624 225.499C68.0818 225.9 68.7693 227.294 68.3974 228.612C68.3327 228.841 68.2402 229.053 68.1254 229.242C67.7006 229.95 66.9683 230.377 66.1902 230.377ZM135.693 222.522C134.878 222.522 134.089 222.056 133.669 221.23C133.055 220.023 133.463 218.508 134.58 217.845C136.725 216.573 138.841 215.189 140.872 213.73C141.264 213.449 141.708 213.316 142.147 213.316C142.895 213.316 143.627 213.704 144.072 214.428C144.598 215.283 144.571 216.357 144.085 217.166C143.918 217.445 143.698 217.689 143.428 217.881C141.29 219.419 139.06 220.875 136.803 222.212C136.45 222.421 136.069 222.522 135.693 222.522ZM48.0122 221.939C47.6268 221.939 47.2361 221.834 46.8769 221.614C45.2301 220.606 43.5912 219.533 42.0073 218.42C41.4336 218.018 40.8659 217.611 40.3031 217.196C39.2499 216.424 38.9479 214.873 39.6954 213.733C40.142 213.026 40.8671 212.643 41.605 212.643C42.0526 212.643 42.5048 212.783 42.903 213.078C43.4373 213.469 43.9778 213.862 44.523 214.243C46.0293 215.3 47.5861 216.318 49.1518 217.279C50.2612 217.956 50.6512 219.477 50.0227 220.675C49.9992 220.717 49.9746 220.763 49.9486 220.807C49.5113 221.533 48.772 221.939 48.0122 221.939ZM151.868 210.242C151.228 210.242 150.593 209.954 150.136 209.4C149.293 208.368 149.383 206.793 150.337 205.882C152.171 204.133 153.954 202.278 155.638 200.375C156.092 199.861 156.699 199.602 157.307 199.602C157.881 199.602 158.455 199.831 158.903 200.294C159.719 201.133 159.836 202.465 159.244 203.451C159.168 203.581 159.078 203.701 158.978 203.815C157.204 205.822 155.327 207.775 153.395 209.615C152.957 210.032 152.41 210.242 151.868 210.242ZM165.148 194.409C164.679 194.409 164.208 194.256 163.796 193.937C162.766 193.131 162.532 191.574 163.276 190.458C164.697 188.334 166.058 186.111 167.333 183.826C167.763 183.05 168.527 182.619 169.313 182.619C169.718 182.619 170.13 182.736 170.504 182.977C171.596 183.689 171.946 185.22 171.287 186.397C170.733 187.389 170.169 188.367 169.591 189.326C168.766 190.699 167.901 192.061 167.022 193.375C166.571 194.051 165.865 194.409 165.148 194.409ZM174.918 175.824C174.612 175.824 174.304 175.758 174.004 175.622C172.834 175.076 172.293 173.612 172.798 172.345C172.949 171.97 173.097 171.595 173.243 171.216C173.804 172.747 174.394 174.284 175.002 175.824C174.975 175.824 174.948 175.824 174.918 175.824Z" fill="#FAC3F9"/>
<path fill-rule="evenodd" clip-rule="evenodd" d="M182.169 134.014C180.934 134.014 179.913 132.957 179.866 131.612C179.821 130.333 179.754 129.028 179.661 127.735C179.561 126.361 180.513 125.167 181.783 125.059C181.844 125.053 181.904 125.053 181.964 125.053C183.158 125.053 184.168 126.045 184.265 127.35C184.361 128.711 184.434 130.082 184.479 131.43C184.497 131.962 184.358 132.461 184.108 132.879C183.714 133.535 183.037 133.982 182.257 134.011C182.227 134.014 182.2 134.014 182.169 134.014Z" fill="#FAC3F9"/>
<path fill-rule="evenodd" clip-rule="evenodd" d="M155.155 103.774C155.016 103.301 154.612 102.975 154.152 102.965L141.024 102.652C137.87 96.9731 133.856 91.7971 129.051 87.3815L130.924 73.3571C130.99 72.8649 130.759 72.3823 130.35 72.1548L116.344 64.3729C115.935 64.1451 115.437 64.2231 115.105 64.5668L105.624 74.3632C99.5014 72.7089 93.2662 72.1893 87.1534 72.7187L79.2884 61.3653C79.0128 60.967 78.5334 60.8019 78.0955 60.9537L63.095 66.1427C62.6569 66.2945 62.3556 66.7297 62.3457 67.2265L62.0572 81.4011C56.7977 84.806 52.0033 89.1406 47.9117 94.3296L34.923 92.3063C34.4671 92.2344 34.0201 92.4825 33.8093 92.9263L26.6013 108.046C26.3906 108.49 26.4628 109.025 26.7811 109.384L35.8548 119.622C34.3225 126.231 33.8415 132.963 34.3317 139.562L23.8159 148.055C23.4473 148.351 23.2937 148.869 23.4346 149.343L28.2408 165.536C28.3811 166.01 28.7847 166.336 29.2443 166.346L42.3734 166.66C45.5271 172.338 49.5422 177.514 54.3472 181.93L52.4737 195.953C52.4077 196.445 52.6384 196.929 53.0477 197.157L67.0532 204.937C67.4625 205.165 67.9603 205.087 68.293 204.745L77.7741 194.948C83.8964 196.603 90.1317 197.121 96.2446 196.593L104.109 207.947C104.385 208.345 104.864 208.511 105.303 208.358L120.303 203.169C120.741 203.019 121.042 202.581 121.052 202.085L121.34 187.912C126.6 184.505 131.394 180.171 135.486 174.981L148.475 177.004C148.929 177.076 149.376 176.828 149.589 176.385L156.797 161.266C157.006 160.821 156.937 160.285 156.616 159.927L147.541 149.688C149.074 143.08 149.555 136.348 149.065 129.749L159.581 121.257C159.95 120.96 160.105 120.441 159.962 119.968L155.155 103.774Z" fill="#FAC3F9"/>
<path fill-rule="evenodd" clip-rule="evenodd" d="M103.574 145.954C97.8002 153.023 87.7761 153.704 81.2267 147.467C78.054 144.449 76.1609 140.278 75.8958 135.719C75.63 131.163 77.0234 126.767 79.8215 123.343C85.5956 116.271 95.6195 115.592 102.169 121.826C108.127 127.498 109.186 136.965 104.98 143.952C104.564 144.644 104.094 145.314 103.574 145.954Z" fill="#F2DFF2"/>
<path fill-rule="evenodd" clip-rule="evenodd" d="M123.98 157.7C124.702 156.498 125.373 155.255 125.988 153.962C126.181 153.558 126.369 153.149 126.55 152.736C127.445 150.703 128.188 148.594 128.768 146.444L128.792 146.356C128.814 146.274 128.836 146.19 128.857 146.108C128.9 145.944 128.941 145.781 128.982 145.618C129.089 145.19 128.921 144.753 128.595 144.525C128.515 144.47 128.426 144.427 128.33 144.398C127.838 144.253 127.332 144.571 127.199 145.102C126.517 147.836 125.557 150.513 124.346 153.052C118.334 165.666 106.933 173.374 94.7272 174.592C87.9384 175.271 80.9005 173.939 74.4019 170.33C73.262 169.696 72.1601 169.004 71.1006 168.261C63.9664 163.254 58.688 155.814 56.057 146.946C53.034 136.764 53.8658 125.916 58.3985 116.409C67.7618 96.7695 90.1616 89.0283 108.342 99.1289C109.463 99.7522 110.551 100.434 111.601 101.172C116.151 104.367 120.004 108.6 122.869 113.583C122.943 113.71 123.039 113.815 123.15 113.893C123.44 114.096 123.826 114.115 124.14 113.903C124.573 113.613 124.708 112.999 124.438 112.529C121.43 107.298 117.385 102.853 112.608 99.501C111.506 98.7275 110.364 98.0096 109.188 97.3568C90.0999 86.7503 66.5771 94.8928 56.7566 115.496C51.9974 125.479 51.1249 136.862 54.2982 147.556C57.0599 156.865 62.6016 164.675 70.0911 169.932C71.2038 170.711 72.3606 171.436 73.5561 172.102C82.803 177.242 93.3491 178.182 103.252 174.758C111.875 171.776 119.112 165.79 123.98 157.7Z" fill="#F2DFF2"/>
<path fill-rule="evenodd" clip-rule="evenodd" d="M228.331 12.0042C228.279 11.6514 228.34 11.2771 228.527 10.9494C228.777 10.549 229.195 10.2886 229.634 10.2422C229.195 10.8287 228.765 11.4111 228.331 12.0042Z" fill="#FDAB76"/>
<path fill-rule="evenodd" clip-rule="evenodd" d="M192.527 133.163C192.073 133.121 191.621 133.072 191.17 133.016C190.922 132.987 190.694 132.892 190.504 132.746C190.42 131.995 190.335 131.231 190.26 130.464C190.523 130.145 190.91 129.949 191.327 129.949C191.378 129.949 191.429 129.952 191.483 129.955C191.717 129.985 191.953 130.011 192.185 130.037C192.291 131.094 192.407 132.139 192.527 133.163Z" fill="#FAC3F9"/>
<path fill-rule="evenodd" clip-rule="evenodd" d="M205.889 132.851C205.187 132.851 204.573 132.29 204.48 131.516C204.374 130.674 204.925 129.901 205.705 129.786C208.048 129.45 210.4 128.954 212.696 128.314C212.818 128.282 212.936 128.266 213.053 128.266C213.688 128.266 214.268 128.726 214.435 129.421C214.538 129.855 214.459 130.295 214.246 130.645C214.059 130.955 213.77 131.196 213.409 131.294C211.003 131.966 208.536 132.485 206.079 132.838C206.016 132.848 205.952 132.851 205.889 132.851ZM219.99 128.915C219.422 128.915 218.881 128.543 218.664 127.936C218.372 127.146 218.736 126.252 219.471 125.942C221.673 125.012 223.847 123.922 225.93 122.708C226.145 122.584 226.374 122.525 226.603 122.525C227.112 122.525 227.602 122.819 227.861 123.334C228.115 123.847 228.076 124.447 227.801 124.904C227.674 125.113 227.499 125.292 227.284 125.42C225.099 126.689 222.82 127.831 220.51 128.811C220.338 128.882 220.163 128.915 219.99 128.915ZM232.801 121.458C232.354 121.458 231.915 121.229 231.637 120.808C231.18 120.113 231.331 119.157 231.975 118.661C233.903 117.186 235.769 115.567 237.528 113.844C237.8 113.576 238.145 113.446 238.486 113.446C238.874 113.446 239.26 113.616 239.541 113.948C239.986 114.477 240.025 115.251 239.681 115.822C239.616 115.929 239.535 116.034 239.444 116.125C237.604 117.93 235.646 119.627 233.623 121.174C233.375 121.366 233.084 121.458 232.801 121.458ZM243.57 110.877C243.241 110.877 242.908 110.757 242.64 110.505C242.044 109.951 241.983 108.981 242.489 108.335C244.03 106.403 245.479 104.344 246.796 102.216C247.072 101.769 247.521 101.531 247.981 101.531C248.256 101.531 248.531 101.615 248.773 101.792C249.422 102.258 249.602 103.205 249.178 103.91L249.166 103.926C247.784 106.158 246.268 108.315 244.653 110.342C244.368 110.698 243.97 110.877 243.57 110.877ZM251.662 97.8101C251.448 97.8101 251.228 97.7547 251.018 97.6404C250.318 97.2586 250.036 96.3317 250.394 95.5746C251.463 93.2934 252.418 90.9175 253.228 88.5156C253.439 87.8956 253.987 87.5038 254.571 87.5038C254.731 87.5038 254.894 87.5333 255.054 87.5985C255.794 87.889 256.176 88.7702 255.906 89.5697C255.06 92.0858 254.059 94.5759 252.936 96.965C252.911 97.0171 252.887 97.0628 252.86 97.1084C252.59 97.5555 252.135 97.8101 251.662 97.8101ZM256.638 83.0292C256.532 83.0292 256.426 83.0164 256.318 82.9897C255.55 82.7992 255.072 81.9721 255.248 81.1442C255.779 78.6525 256.176 76.1008 256.42 73.5594C256.499 72.7686 257.119 72.1802 257.838 72.1802C257.89 72.1802 257.938 72.1828 257.986 72.1883C258.769 72.2771 259.341 73.034 259.255 73.8796C258.999 76.5452 258.585 79.2223 258.029 81.8354C257.989 82.0159 257.923 82.1817 257.832 82.3285C257.571 82.7609 257.122 83.0292 256.638 83.0292Z" fill="#FAC3F9"/>
<path fill-rule="evenodd" clip-rule="evenodd" d="M243.665 26.157C243.263 26.157 242.864 25.9749 242.582 25.6202C241.83 24.6737 241.042 23.7396 240.241 22.8441C239.693 22.2332 239.702 21.2571 240.274 20.6675C240.549 20.3782 240.908 20.2344 241.265 20.2344C241.636 20.2344 242.009 20.3912 242.29 20.7033C243.13 21.6432 243.958 22.6229 244.747 23.6147C245.168 24.146 245.195 24.8973 244.859 25.4557C244.786 25.5757 244.699 25.6874 244.593 25.7863C244.325 26.035 243.994 26.157 243.665 26.157Z" fill="#FAC3F9"/>
<path fill-rule="evenodd" clip-rule="evenodd" d="M142.59 43.171C142.405 43.171 142.216 43.1315 142.035 43.0486C141.31 42.7169 140.97 41.8143 141.278 41.031C142.127 38.8638 143.102 36.7091 144.17 34.6336C144.331 34.317 144.496 34.0051 144.662 33.6927C144.911 33.1956 145.392 32.9215 145.887 32.9215C146.134 32.9215 146.384 32.9897 146.612 33.1317C147.291 33.5572 147.525 34.4984 147.131 35.2354C146.974 35.5265 146.82 35.8211 146.667 36.1231C145.644 38.1099 144.714 40.1645 143.903 42.2314C143.87 42.3166 143.83 42.3969 143.785 42.4717C143.52 42.9135 143.064 43.171 142.59 43.171ZM149.982 29.3227C149.685 29.3227 149.383 29.2219 149.127 29.0124C148.498 28.5013 148.38 27.5448 148.845 26.8558C150.369 24.6749 152.028 22.5797 153.778 20.6291C154.06 20.3173 154.431 20.1606 154.804 20.1606C155.16 20.1606 155.519 20.305 155.795 20.5944C156.293 21.1146 156.362 21.9321 156 22.5372C155.949 22.6191 155.891 22.6974 155.828 22.7706C154.16 24.6304 152.576 26.6288 151.124 28.7105C150.844 29.1113 150.414 29.3227 149.982 29.3227Z" fill="#FAC3F9"/>
<path fill-rule="evenodd" clip-rule="evenodd" d="M235.789 17.9162C235.475 17.9162 235.161 17.8045 234.894 17.5755C233.347 16.2298 231.717 14.9545 230.052 13.7859C229.702 13.5391 229.346 13.2963 228.985 13.056C228.62 12.8111 228.392 12.4168 228.329 11.9912C228.765 11.3983 229.194 10.8157 229.633 10.2292C229.681 10.2243 229.726 10.2217 229.774 10.2217C230.019 10.2217 230.268 10.2903 230.491 10.4401C230.865 10.6917 231.238 10.9463 231.606 11.204C233.353 12.4295 235.062 13.7667 236.685 15.1781C237.258 15.677 237.379 16.5601 236.987 17.2143C236.96 17.2579 236.933 17.3004 236.902 17.3428C236.617 17.7197 236.207 17.9162 235.789 17.9162Z" fill="#FAC3F9"/>
<path fill-rule="evenodd" clip-rule="evenodd" d="M160.284 17.844C159.867 17.844 159.453 17.6476 159.173 17.2697C158.679 16.6068 158.776 15.6411 159.39 15.1046C161.351 13.3998 163.437 11.8094 165.583 10.3774C165.819 10.2221 166.076 10.1479 166.332 10.1479C166.811 10.1479 167.277 10.4071 167.545 10.878C167.844 11.4014 167.82 12.0432 167.53 12.5264C167.419 12.7114 167.271 12.874 167.082 12.9973C165.036 14.3622 163.05 15.8781 161.176 17.5044C160.914 17.7327 160.598 17.844 160.284 17.844Z" fill="#FAC3F9"/>
<path fill-rule="evenodd" clip-rule="evenodd" d="M223.21 9.48812C223.011 9.48812 222.808 9.44235 222.615 9.34544C220.426 8.2532 218.16 7.29695 215.871 6.50456C215.118 6.24445 214.707 5.37893 214.949 4.56895C215.143 3.91859 215.702 3.49951 216.306 3.49951C216.452 3.49951 216.597 3.52329 216.742 3.57329C219.139 4.40347 221.518 5.40532 223.812 6.55147C224.524 6.9085 224.837 7.82337 224.506 8.59589C224.476 8.66299 224.443 8.72798 224.407 8.78906C224.138 9.23257 223.684 9.48812 223.21 9.48812Z" fill="#FAC3F9"/>
<path fill-rule="evenodd" clip-rule="evenodd" d="M172.869 9.45296C172.33 9.45296 171.815 9.11971 171.572 8.55486C171.246 7.78169 171.557 6.86731 172.273 6.51387C174.565 5.37944 176.947 4.3859 179.353 3.55995C179.495 3.5106 179.64 3.48747 179.783 3.48747C180.389 3.48747 180.949 3.90558 181.142 4.56017C181.275 5.01818 181.202 5.49361 180.979 5.8666C180.807 6.15472 180.54 6.38226 180.214 6.49481C177.92 7.28231 175.649 8.23041 173.462 9.31256C173.272 9.40784 173.068 9.45296 172.869 9.45296ZM200.364 1.73233C200.464 1.28263 200.742 0.91453 201.108 0.713867C200.859 1.05297 200.612 1.39159 200.364 1.73233Z" fill="#FAC3F9"/>
<path fill-rule="evenodd" clip-rule="evenodd" d="M209.113 4.61713C209.025 4.61713 208.938 4.60866 208.846 4.59075C206.483 4.11075 204.065 3.78663 201.662 3.62604C200.876 3.57359 200.277 2.84309 200.325 1.995C200.331 1.90558 200.343 1.81812 200.362 1.73391C200.609 1.39317 200.858 1.05439 201.105 0.715287C201.298 0.609255 201.516 0.549805 201.746 0.549805C201.777 0.549805 201.807 0.550783 201.837 0.553064C204.358 0.7205 206.894 1.06189 209.372 1.56452C210.146 1.72186 210.658 2.5263 210.513 3.36201C210.475 3.56496 210.406 3.7521 210.306 3.91595C210.047 4.34627 209.599 4.61713 209.113 4.61713Z" fill="#FAC3F9"/>
<path fill-rule="evenodd" clip-rule="evenodd" d="M186.973 4.61062C186.301 4.61062 185.703 4.09431 185.573 3.35485C185.431 2.52125 185.939 1.71518 186.713 1.55801C189.189 1.05668 191.725 0.717244 194.246 0.547853C194.276 0.545898 194.306 0.544922 194.336 0.544922C195.083 0.544922 195.712 1.17378 195.757 1.98963C195.775 2.33167 195.691 2.65481 195.529 2.92209C195.291 3.31723 194.893 3.58988 194.421 3.62115C192.017 3.78207 189.599 4.10571 187.238 4.58423C187.151 4.60215 187.06 4.61062 186.973 4.61062Z" fill="#FAC3F9"/>
<path fill-rule="evenodd" clip-rule="evenodd" d="M197.955 133.415C196.145 133.415 194.327 133.331 192.529 133.158C192.408 132.133 192.294 131.089 192.188 130.031C194.089 130.234 196.014 130.338 197.931 130.338C198.154 130.338 198.375 130.335 198.6 130.331H198.615C199.398 130.331 200.031 131.01 200.04 131.855C200.043 132.172 199.959 132.466 199.811 132.711C199.56 133.128 199.128 133.406 198.633 133.412C198.405 133.415 198.179 133.415 197.955 133.415ZM190.507 132.74C190.096 132.427 189.851 131.888 189.912 131.31C189.945 130.981 190.071 130.69 190.262 130.459C190.338 131.226 190.423 131.989 190.507 132.74Z" fill="#FAC3F9"/>
<path fill-rule="evenodd" clip-rule="evenodd" d="M258.154 67.3174C257.377 67.3171 256.742 66.647 256.727 65.807C256.706 64.5495 256.648 63.2879 256.561 62.0565C256.5 61.2086 257.089 60.4698 257.872 60.4015C257.908 60.3986 257.944 60.397 257.983 60.397C258.721 60.397 259.344 61.0109 259.404 61.8176C259.498 63.1093 259.555 64.4317 259.579 65.7489C259.582 66.0685 259.498 66.3664 259.35 66.6154C259.1 67.0296 258.67 67.3063 258.181 67.3171C258.172 67.3171 258.163 67.3174 258.154 67.3174Z" fill="#FAC3F9"/>
<path fill-rule="evenodd" clip-rule="evenodd" d="M240.043 46.0246C239.947 45.7081 239.678 45.4907 239.371 45.4832L230.586 45.275C228.476 41.4752 225.789 38.0116 222.572 35.0556L223.826 25.6715C223.873 25.3422 223.717 25.0195 223.443 24.8671L214.073 19.6598C213.797 19.5073 213.465 19.5596 213.24 19.7893L206.897 26.3448C202.801 25.2378 198.63 24.8902 194.537 25.2443L189.273 17.6471C189.089 17.3808 188.77 17.2702 188.475 17.3717L178.44 20.844C178.146 20.9452 177.944 21.2367 177.938 21.5693L177.745 31.0541C174.227 33.3324 171.017 36.2333 168.277 39.7047L159.588 38.351C159.281 38.3036 158.983 38.4701 158.844 38.7659L154.019 48.8845C153.878 49.1802 153.926 49.5395 154.14 49.78L160.211 56.6299C159.185 61.053 158.865 65.5576 159.191 69.9738L152.155 75.6556C151.909 75.8551 151.806 76.2014 151.9 76.5178L155.116 87.3557C155.21 87.6724 155.48 87.8877 155.787 87.8975L164.572 88.1032C166.684 91.9052 169.369 95.3677 172.586 98.3246L171.33 107.707C171.288 108.037 171.442 108.36 171.715 108.513L181.088 113.719C181.359 113.872 181.696 113.82 181.916 113.591L188.261 107.035C192.357 108.141 196.531 108.49 200.621 108.135L205.883 115.732C206.069 116 206.388 116.111 206.681 116.007L216.721 112.534C217.013 112.433 217.212 112.142 217.221 111.81L217.416 102.326C220.934 100.048 224.141 97.1463 226.879 93.674L235.57 95.0283C235.875 95.0773 236.175 94.9109 236.317 94.614L241.139 84.4953C241.28 84.1995 241.232 83.8399 241.021 83.5998L234.947 76.7499C235.972 72.3269 236.296 67.8222 235.966 63.4059L243.003 57.7238C243.251 57.5248 243.353 57.1785 243.26 56.8618L240.043 46.0246Z" fill="#FAC3F9"/>
<path fill-rule="evenodd" clip-rule="evenodd" d="M205.672 74.4029C203.768 76.7371 201.135 78.1294 198.26 78.3245C195.386 78.52 192.61 77.4948 190.45 75.4372C185.991 71.1917 185.562 63.8318 189.492 59.0021C193.427 54.1867 200.256 53.7233 204.714 57.9688C206.876 60.0254 208.165 62.8678 208.348 65.9717C208.493 68.495 207.894 70.9459 206.64 73.0284C206.352 73.5068 206.029 73.9666 205.672 74.4029Z" fill="#F2DFF2"/>
<path fill-rule="evenodd" clip-rule="evenodd" d="M219.875 82.5728C220.365 81.7558 220.821 80.9055 221.245 80.022C222.082 78.2672 222.755 76.4184 223.245 74.5222C223.266 74.437 223.287 74.3515 223.309 74.266C223.475 73.6055 223.215 72.9299 222.71 72.5755C222.589 72.4893 222.45 72.4224 222.302 72.3794C221.544 72.1581 220.764 72.6473 220.555 73.4658C220.113 75.2408 219.49 76.9718 218.709 78.6118C218.665 78.7019 218.62 78.7926 218.578 78.8814C216.692 82.7445 213.987 85.9538 210.71 88.3134C208.93 89.5926 206.977 90.6206 204.895 91.3647L204.843 91.3811C204.791 91.4007 204.739 91.4169 204.688 91.4365C198.583 93.548 192.078 92.9672 186.377 89.7983C185.639 89.3903 184.926 88.9432 184.239 88.4601C179.621 85.2195 176.205 80.4015 174.5 74.6613C172.545 68.0676 173.083 61.047 176.017 54.8918C178.953 48.7413 183.931 44.1824 190.037 42.0686C196.143 39.9564 202.649 40.5374 208.349 43.706C209.075 44.1083 209.78 44.5502 210.458 45.0271C213.403 47.0951 215.9 49.8352 217.752 53.0616C217.867 53.2603 218.016 53.4215 218.188 53.5402C218.635 53.8549 219.231 53.8829 219.715 53.5578C220.383 53.1075 220.592 52.1612 220.174 51.4372C218.101 47.8274 215.31 44.7608 212.015 42.4471C211.253 41.9129 210.464 41.4192 209.654 40.9682C203.275 37.4232 195.999 36.7732 189.166 39.137C182.335 41.5011 176.761 46.5892 173.482 53.4823C170.199 60.3693 169.594 68.224 171.786 75.6008C173.69 82.0228 177.514 87.4126 182.679 91.0384C183.447 91.5769 184.245 92.0761 185.07 92.5364C197.421 99.3996 212.463 94.886 219.875 82.5728Z" fill="#F2DFF2"/>
</svg>
