<svg width="24" height="24" viewBox="0 0 24 24" fill="none" xmlns="http://www.w3.org/2000/svg">
<path d="M20 11.5C20 16.5681 14.0282 19.9702 12.4037 20.8018C12.1468 20.9334 11.8532 20.9334 11.5963 20.8018C9.97178 19.9702 4 16.5681 4 11.5C4 7 7.87627 4 12 4C16.2667 4 20 7 20 11.5Z" fill="#F5D0DE" stroke="#EA409A" stroke-width="0.5"/>
<path d="M11.2373 8.40671C11.6135 7.4689 11.8015 7 12.125 7C12.4484 7 12.6365 7.4689 13.0127 8.40671L13.0302 8.45038C13.2427 8.9802 13.349 9.24511 13.5656 9.40612C13.7821 9.56713 14.0664 9.59259 14.635 9.64351L14.7378 9.65272C15.6683 9.73606 16.1336 9.77772 16.2332 10.0737C16.3327 10.3698 15.9872 10.6841 15.2961 11.3128L15.0655 11.5227C14.7157 11.8409 14.5407 12.0001 14.4592 12.2086C14.444 12.2476 14.4314 12.2874 14.4214 12.328C14.3678 12.5454 14.419 12.7763 14.5215 13.238L14.5533 13.3817C14.7416 14.2302 14.8357 14.6545 14.6714 14.8375C14.6099 14.9059 14.5301 14.9551 14.4415 14.9793C14.2042 15.0441 13.8673 14.7696 13.1935 14.2205C12.751 13.86 12.5298 13.6797 12.2758 13.6392C12.1759 13.6232 12.0741 13.6232 11.9742 13.6392C11.7202 13.6797 11.499 13.86 11.0565 14.2205C10.3827 14.7696 10.0458 15.0441 9.80854 14.9793C9.71987 14.9551 9.64005 14.9059 9.57863 14.8375C9.41428 14.6545 9.50841 14.2302 9.69668 13.3817L9.72856 13.238C9.831 12.7763 9.88223 12.5454 9.82863 12.328C9.81864 12.2874 9.806 12.2476 9.79079 12.2086C9.70926 12.0001 9.53435 11.8409 9.18452 11.5227L8.95388 11.3128C8.26282 10.6841 7.91729 10.3698 8.01684 10.0737C8.1164 9.77772 8.58168 9.73606 9.51222 9.65272L9.61501 9.64351C10.1836 9.59259 10.4679 9.56713 10.6844 9.40612C10.901 9.24511 11.0073 8.9802 11.2198 8.45038L11.2373 8.40671Z" fill="#EA409A"/>
</svg>
