<svg width="24" height="24" viewBox="0 0 24 24" fill="none" xmlns="http://www.w3.org/2000/svg">
<path d="M20 11.5C20 16.5681 14.0282 19.9702 12.4037 20.8018C12.1468 20.9334 11.8532 20.9334 11.5963 20.8018C9.97178 19.9702 4 16.5681 4 11.5C4 7 7.87627 4 12 4C16.2667 4 20 7 20 11.5Z" fill="#EA409A" fill-opacity="0.2" stroke="#EA409A" stroke-width="0.5"/>
<path fill-rule="evenodd" clip-rule="evenodd" d="M17 10.35C17 10.9437 14.6983 11.625 11.9369 11.625C9.17544 11.625 7 10.9437 7 10.35V13.475C7 13.6753 7.12933 13.8736 7.3806 14.0586C7.63188 14.2436 8.00017 14.4117 8.46447 14.5533C8.92876 14.6949 9.47995 14.8073 10.0866 14.8839C10.6932 14.9606 11.3434 15 12 15C12.6566 15 13.3068 14.9606 13.9134 14.8839C14.52 14.8073 15.0712 14.6949 15.5355 14.5533C15.9998 14.4117 16.3681 14.2436 16.6194 14.0586C16.8707 13.8736 17 13.6753 17 13.475V10.35ZM16.6 11.125C16.6 11.0698 16.5552 11.025 16.5 11.025C16.4448 11.025 16.4 11.0698 16.4 11.125L16.4 13.875C16.4 13.9302 16.4448 13.975 16.5 13.975C16.5552 13.975 16.6 13.9302 16.6 13.875L16.6 11.125ZM16.1 11.375C16.1 11.3198 16.0552 11.275 16 11.275C15.9448 11.275 15.9 11.3198 15.9 11.375L15.9 14.125C15.9 14.1802 15.9448 14.225 16 14.225C16.0552 14.225 16.1 14.1802 16.1 14.125L16.1 11.375ZM15.6 11.525C15.6 11.4698 15.5552 11.425 15.5 11.425C15.4448 11.425 15.4 11.4698 15.4 11.525L15.4 14.275C15.4 14.3302 15.4448 14.375 15.5 14.375C15.5552 14.375 15.6 14.3302 15.6 14.275L15.6 11.525ZM15.1 11.675C15.1 11.6198 15.0552 11.575 15 11.575C14.9448 11.575 14.9 11.6198 14.9 11.675L14.9 14.425C14.9 14.4802 14.9448 14.525 15 14.525C15.0552 14.525 15.1 14.4802 15.1 14.425L15.1 11.675ZM14.6 11.8C14.6 11.7448 14.5552 11.7 14.5 11.7C14.4448 11.7 14.4 11.7448 14.4 11.8L14.4 14.55C14.4 14.6052 14.4448 14.65 14.5 14.65C14.5552 14.65 14.6 14.6052 14.6 14.55L14.6 11.8ZM14.1 11.875C14.1 11.8198 14.0552 11.775 14 11.775C13.9448 11.775 13.9 11.8198 13.9 11.875L13.9 14.625C13.9 14.6802 13.9448 14.725 14 14.725C14.0552 14.725 14.1 14.6802 14.1 14.625L14.1 11.875ZM13.6 11.95C13.6 11.8948 13.5552 11.85 13.5 11.85C13.4448 11.85 13.4 11.8948 13.4 11.95L13.4 14.7C13.4 14.7552 13.4448 14.8 13.5 14.8C13.5552 14.8 13.6 14.7552 13.6 14.7L13.6 11.95ZM13.1 12C13.1 11.9448 13.0552 11.9 13 11.9C12.9448 11.9 12.9 11.9448 12.9 12L12.9 14.75C12.9 14.8052 12.9448 14.85 13 14.85C13.0552 14.85 13.1 14.8052 13.1 14.75L13.1 12ZM12.6 12.025C12.6 11.9698 12.5552 11.925 12.5 11.925C12.4448 11.925 12.4 11.9698 12.4 12.025L12.4 14.775C12.4 14.8302 12.4448 14.875 12.5 14.875C12.5552 14.875 12.6 14.8302 12.6 14.775L12.6 12.025ZM12.1 12.05C12.1 11.9948 12.0552 11.95 12 11.95C11.9448 11.95 11.9 11.9948 11.9 12.05L11.9 14.8C11.9 14.8552 11.9448 14.9 12 14.9C12.0552 14.9 12.1 14.8552 12.1 14.8L12.1 12.05ZM11.6 12.025C11.6 11.9698 11.5552 11.925 11.5 11.925C11.4448 11.925 11.4 11.9698 11.4 12.025L11.4 14.775C11.4 14.8302 11.4448 14.875 11.5 14.875C11.5552 14.875 11.6 14.8302 11.6 14.775L11.6 12.025ZM11.1 12C11.1 11.9448 11.0552 11.9 11 11.9C10.9448 11.9 10.9 11.9448 10.9 12L10.9 14.75C10.9 14.8052 10.9448 14.85 11 14.85C11.0552 14.85 11.1 14.8052 11.1 14.75L11.1 12ZM10.6 11.95C10.6 11.8948 10.5552 11.85 10.5 11.85C10.4448 11.85 10.4 11.8948 10.4 11.95L10.4 14.7C10.4 14.7552 10.4448 14.8 10.5 14.8C10.5552 14.8 10.6 14.7552 10.6 14.7L10.6 11.95ZM10.1 11.875C10.1 11.8198 10.0552 11.775 10 11.775C9.94478 11.775 9.9 11.8198 9.9 11.875L9.9 14.625C9.9 14.6802 9.94477 14.725 10 14.725C10.0552 14.725 10.1 14.6802 10.1 14.625L10.1 11.875ZM9.6 11.8C9.6 11.7448 9.55523 11.7 9.5 11.7C9.44478 11.7 9.4 11.7448 9.4 11.8L9.4 14.55C9.4 14.6052 9.44477 14.65 9.5 14.65C9.55523 14.65 9.6 14.6052 9.6 14.55L9.6 11.8ZM9.1 11.675C9.1 11.6198 9.05523 11.575 9.00001 11.575C8.94478 11.575 8.9 11.6198 8.9 11.675L8.9 14.425C8.9 14.4802 8.94477 14.525 9 14.525C9.05523 14.525 9.1 14.4802 9.1 14.425L9.1 11.675ZM8.6 11.525C8.6 11.4698 8.55523 11.425 8.5 11.425C8.44478 11.425 8.4 11.4698 8.4 11.525L8.4 14.275C8.4 14.3302 8.44477 14.375 8.5 14.375C8.55523 14.375 8.6 14.3302 8.6 14.275L8.6 11.525ZM8.1 11.375C8.1 11.3198 8.05523 11.275 8 11.275C7.94478 11.275 7.9 11.3198 7.9 11.375L7.9 14.125C7.9 14.1802 7.94477 14.225 8 14.225C8.05523 14.225 8.1 14.1802 8.1 14.125L8.1 11.375ZM7.4 13.875C7.4 13.9302 7.44477 13.975 7.5 13.975C7.55523 13.975 7.6 13.9302 7.6 13.875L7.6 11.125C7.6 11.0698 7.55523 11.025 7.5 11.025C7.44478 11.025 7.4 11.0698 7.4 11.125L7.4 13.875Z" fill="#EA409A"/>
<path d="M17 10.075C17 10.6687 14.6983 11.35 11.9369 11.35C9.17545 11.35 7 10.6687 7 10.075C7 9.48129 9.23858 9 12 9C14.7614 9 17 9.48129 17 10.075Z" fill="#EA409A"/>
</svg>
