<svg width="240" height="251" viewBox="0 0 240 251" fill="none" xmlns="http://www.w3.org/2000/svg">
<path fill-rule="evenodd" clip-rule="evenodd" d="M239.992 108.659C239.774 123.862 235.273 138.229 227.424 151H239.992V108.659ZM12.5758 151H-0.00830078V94H1.14099C0.388783 98.4125 6.26035e-06 102.919 6.26035e-06 107.5C6.26035e-06 123.132 4.52774 137.905 12.5758 151ZM238.859 94C239.548 98.0399 239.932 102.159 239.992 106.341V94H238.859Z" fill="#FFBE98"/>
<path fill-rule="evenodd" clip-rule="evenodd" d="M6.67271 151L6.91222 179.949C6.91907 180.777 7.59618 181.443 8.42458 181.436C9.25298 181.43 9.91897 180.753 9.91212 179.924L9.67282 151H12.5757C32.2507 183.014 72.9652 205 120 205C167.035 205 207.749 183.014 227.424 151H230.5L230.5 180C230.5 180.828 231.172 181.5 232 181.5C232.828 181.5 233.5 180.828 233.5 180L233.5 151H240C240 164.132 236.896 177.136 230.866 189.268C224.835 201.401 215.996 212.425 204.853 221.711C193.71 230.997 180.481 238.362 165.922 243.388C151.363 248.413 135.759 251 120 251C104.241 251 88.6371 248.413 74.078 243.388C59.5189 238.362 46.2902 230.997 35.1472 221.711C24.0042 212.425 15.165 201.401 9.13445 189.268C3.10389 177.136 0 164.132 0 151H6.67271ZM206.5 177.5V215C206.5 215.828 207.171 216.5 208 216.5C208.828 216.5 209.5 215.828 209.5 215V177.5C209.5 176.672 208.828 176 208 176C207.171 176 206.5 176.672 206.5 177.5ZM198.5 222.5V184.5C198.5 183.672 199.172 183 200 183C200.828 183 201.5 183.672 201.5 184.5V222.5C201.5 223.329 200.828 224 200 224C199.172 224 198.5 223.329 198.5 222.5ZM190.5 189.5V227.5C190.5 228.328 191.171 229 192 229C192.828 229 193.5 228.328 193.5 227.5V189.5C193.5 188.672 192.828 188 192 188C191.171 188 190.5 188.672 190.5 189.5ZM184 192C184.828 192 185.5 192.672 185.5 193.5V232.5C185.5 233.328 184.828 234 184 234C183.171 234 182.5 233.328 182.5 232.5V193.5C182.5 192.672 183.171 192 184 192ZM177.5 197.5C177.5 196.671 176.828 196 176 196C175.171 196 174.5 196.671 174.5 197.5V236.5C174.5 237.328 175.171 238 176 238C176.828 238 177.5 237.328 177.5 236.5V197.5ZM168 199C168.828 199 169.5 199.672 169.5 200.5V239.5C169.5 240.328 168.828 241 168 241C167.171 241 166.5 240.328 166.5 239.5V200.5C166.5 199.672 167.171 199 168 199ZM161.5 203.5C161.5 202.671 160.828 202 160 202C159.171 202 158.5 202.671 158.5 203.5V242.5C158.5 243.328 159.171 244 160 244C160.828 244 161.5 243.328 161.5 242.5V203.5ZM152 204C152.828 204 153.5 204.672 153.5 205.5V244.5C153.5 245.328 152.828 246 152 246C151.171 246 150.5 245.328 150.5 244.5V205.5C150.5 204.672 151.171 204 152 204ZM142.5 207V246.5C142.5 247.328 143.172 248 144 248C144.828 248 145.5 247.328 145.5 246.5V207C145.5 206.172 144.828 205.5 144 205.5C143.172 205.5 142.5 206.172 142.5 207ZM134.5 247.5V208C134.5 207.171 135.171 206.5 136 206.5C136.828 206.5 137.5 207.171 137.5 208V247.5C137.5 248.328 136.828 249 136 249C135.171 249 134.5 248.328 134.5 247.5ZM33.4999 177.5L33.4999 215C33.4999 215.828 32.8283 216.5 31.9999 216.5C31.1714 216.5 30.4999 215.829 30.4999 215L30.4999 177.5C30.4999 176.672 31.1714 176 31.9999 176C32.8283 176 33.4999 176.672 33.4999 177.5ZM41.5 222.5L41.5 184.5C41.5 183.672 40.8284 183 40 183C39.1715 183 38.5 183.672 38.5 184.5L38.5 222.5C38.5 223.328 39.1715 224 40 224C40.8284 224 41.5 223.328 41.5 222.5ZM49.5 189.5L49.5 227.5C49.5 228.328 48.8284 229 48 229C47.1715 229 46.5 228.328 46.5 227.5L46.5 189.5C46.5 188.672 47.1715 188 48 188C48.8284 188 49.5 188.672 49.5 189.5ZM55.9999 192C55.1715 192 54.4999 192.672 54.4999 193.5L54.4999 232.5C54.4999 233.328 55.1715 234 55.9999 234C56.8283 234 57.4999 233.328 57.4999 232.5L57.4999 193.5C57.4999 192.672 56.8283 192 55.9999 192ZM62.4999 198.5C62.4999 197.672 63.1715 197 63.9999 197C64.8283 197 65.4999 197.672 65.4999 198.5L65.4999 237.5C65.4999 238.328 64.8283 239 63.9999 239C63.1715 239 62.4999 238.328 62.4999 237.5L62.4999 198.5ZM71.9999 199C71.1714 199 70.4999 199.672 70.4999 200.5L70.4999 239.5C70.4999 240.328 71.1714 241 71.9999 241C72.8283 241 73.4999 240.328 73.4999 239.5L73.4999 200.5C73.4999 199.672 72.8283 199 71.9999 199ZM78.4999 203.5C78.4999 202.671 79.1715 202 79.9999 202C80.8284 202 81.4999 202.671 81.4999 203.5L81.4999 242.5C81.4999 243.328 80.8284 244 79.9999 244C79.1715 244 78.4999 243.328 78.4999 242.5L78.4999 203.5ZM87.9999 204C87.1715 204 86.4999 204.671 86.4999 205.5L86.4999 244.5C86.4999 245.328 87.1715 246 87.9999 246C88.8283 246 89.4999 245.328 89.4999 244.5L89.4999 205.5C89.4999 204.671 88.8283 204 87.9999 204ZM97.4999 207V246.5C97.4999 247.328 96.8283 248 95.9999 248C95.1715 248 94.4999 247.328 94.4999 246.5V207C94.4999 206.171 95.1715 205.5 95.9999 205.5C96.8283 205.5 97.4999 206.171 97.4999 207ZM105.5 247.5V208C105.5 207.172 104.828 206.5 104 206.5C103.171 206.5 102.5 207.172 102.5 208V247.5C102.5 248.328 103.171 249 104 249C104.828 249 105.5 248.328 105.5 247.5ZM126.5 208.5V248.5C126.5 249.328 127.171 250 128 250C128.828 250 129.5 249.328 129.5 248.5V208.5C129.5 207.671 128.828 207 128 207C127.171 207 126.5 207.671 126.5 208.5ZM110.5 248.5V208.5C110.5 207.672 111.171 207 112 207C112.828 207 113.5 207.672 113.5 208.5V248.5C113.5 249.328 112.828 250 112 250C111.171 250 110.5 249.328 110.5 248.5ZM118.5 208.5V248.5C118.5 249.328 119.172 250 120 250C120.828 250 121.5 249.328 121.5 248.5V208.5C121.5 207.671 120.828 207 120 207C119.172 207 118.5 207.671 118.5 208.5ZM214.5 206.5V170C214.5 169.172 215.171 168.5 216 168.5C216.828 168.5 217.5 169.172 217.5 170V206.5C217.5 207.328 216.828 208 216 208C215.171 208 214.5 207.328 214.5 206.5ZM222.5 161V195.5C222.5 196.328 223.172 197 224 197C224.828 197 225.5 196.328 225.5 195.5V161C225.5 160.172 224.828 159.5 224 159.5C223.172 159.5 222.5 160.172 222.5 161ZM25.4999 206.5L25.4999 170C25.4999 169.172 24.8284 168.5 23.9999 168.5C23.1715 168.5 22.4999 169.172 22.4999 170L22.4999 206.5C22.4999 207.329 23.1715 208 23.9999 208C24.8284 208 25.4999 207.329 25.4999 206.5ZM17.4999 161L17.4999 195.5C17.4999 196.328 16.8283 197 15.9999 197C15.1715 197 14.4999 196.328 14.4999 195.5L14.4999 161C14.4999 160.172 15.1715 159.5 15.9999 159.5C16.8283 159.5 17.4999 160.172 17.4999 161Z" fill="#FFBE98"/>
<ellipse cx="120" cy="100" rx="120" ry="100" fill="#FFBE98"/>
</svg>
