<svg width="438" height="504" viewBox="0 0 438 504" fill="none" xmlns="http://www.w3.org/2000/svg">
<g clip-path="url(#clip0_999_3721)">
<path fill-rule="evenodd" clip-rule="evenodd" d="M196.111 118.476L152.366 87.2336C146 77.4482 139.374 69.5847 132.492 63.6419C130.279 62.3786 126.211 61.1835 128.895 67.973C131.58 74.7624 134.061 82.0111 131.696 83.6003C129.331 85.1907 124.895 81.7523 121.897 84.5389C119.899 86.3981 127.717 91.0595 145.348 98.5266L177.586 128.241L196.111 118.476Z" fill="#FF928E"/>
<path fill-rule="evenodd" clip-rule="evenodd" d="M220.728 116.922C203.802 114.094 181.82 107.346 160.39 89.9033L147.194 107.239C160.929 124.574 181.941 140.348 202.503 143.055C218.708 145.189 230.382 129.108 220.728 116.922Z" fill="#C42B7C"/>
<path opacity="0.24" fill-rule="evenodd" clip-rule="evenodd" d="M220.727 116.922C203.801 114.094 181.819 107.346 160.388 89.9033L147.193 107.239C160.928 124.574 181.939 140.348 202.502 143.055C218.706 145.189 230.38 129.108 220.727 116.922Z" fill="#C42B7C"/>
<path d="M246.566 58.8729C236.279 61.5127 226.884 61.7289 223.08 59.8137C213.541 55.0111 222.626 21.3898 234.507 10.1193C246.387 -1.15018 288.864 2.85718 283.086 29.4337C281.081 38.6569 274.388 45.7162 266.104 50.8021L263.315 100.445L230.481 92.5938L246.566 58.8729Z" fill="#FDBAB9"/>
<path fill-rule="evenodd" clip-rule="evenodd" d="M248.134 15.2546C252.109 18.5396 254.07 23.5426 256.302 30.0678C257.358 29.9619 258.427 30.0341 259.454 30.2806C263.987 31.3647 266.679 35.5177 265.466 39.5564C265.174 40.5323 264.666 41.4461 263.972 42.2434C263.277 43.0407 262.41 43.7053 261.422 44.1977C262.604 47.0402 263.984 50.0441 265.65 53.2025C276.284 50.4954 288.68 36.9457 283.858 21.0294C283.407 13.6889 277.593 9.58072 271.475 6.32376C266.712 3.04216 261.212 1.48536 256.153 1.5604C246.73 0.0618405 237.752 0.597201 234.975 1.5268C232.642 9.29736 233.64 12.0066 248.134 15.2558V15.2546Z" fill="#332929"/>
<path fill-rule="evenodd" clip-rule="evenodd" d="M254.753 25.7422C254.753 25.7422 245.842 48.6921 237.754 46.7579C229.664 44.8236 224.176 38.6076 220.626 37.7587C218.039 37.1404 217.75 40.1633 218.823 42.7113C219.708 44.8147 226.088 48.1635 225.266 50.8985C224.445 53.6347 219.636 50.2164 219.149 51.8393C218.344 54.5228 215.871 59.3399 221.1 60.591C226.391 61.8566 242.076 63.7651 246.777 57.39C251.477 51.015 258.933 28.6878 258.933 28.6878L254.753 25.7422Z" fill="#332929"/>
<path fill-rule="evenodd" clip-rule="evenodd" d="M253.278 201.58L148.04 358.344L69.1413 490.874H52.1459L184.342 201.58H253.277H253.278Z" fill="#FDBAB9"/>
<path fill-rule="evenodd" clip-rule="evenodd" d="M91.0538 469.652L58.2804 460.819C58.2804 460.819 79.8189 403.45 111.076 334.553C142.335 265.658 178.216 201.58 178.216 201.58H270.778C270.778 201.58 230.886 282.636 186.195 348.878C141.505 415.12 91.0538 469.652 91.0538 469.652Z" fill="#65ADDE"/>
<path opacity="0.48" fill-rule="evenodd" clip-rule="evenodd" d="M91.0538 469.652L58.2816 460.819C58.2816 460.819 79.8189 403.45 111.078 334.553C142.335 265.658 178.217 201.58 178.217 201.58H270.779C270.779 201.58 230.886 282.636 186.196 348.878C141.505 415.12 91.0538 469.652 91.0538 469.652Z" fill="#65ADDE"/>
<path fill-rule="evenodd" clip-rule="evenodd" d="M260.195 201.58C270.128 256.668 289.285 327.049 291.093 329.221C292.298 330.669 335.689 343.624 421.264 368.086L417.593 381.439C315.544 368.319 261.773 358.142 256.28 350.903C248.041 340.047 206.898 254.282 190.963 201.58H260.195Z" fill="#FDBAB9"/>
<path fill-rule="evenodd" clip-rule="evenodd" d="M391.183 356.544L384.717 378.048C308.391 384.014 261.624 379.704 244.417 365.119C227.209 350.534 207.598 296.022 185.583 201.58H273.847C287.795 278.915 295.592 319.206 297.24 322.453C298.888 325.698 330.202 337.063 391.183 356.544Z" fill="#9FD2F5"/>
<path fill-rule="evenodd" clip-rule="evenodd" d="M75.9283 483.217C77.2712 482.684 78.8663 483.218 79.3734 484.448C80.4138 486.973 81.9085 490.99 81.9085 493.215C81.9085 496.629 80.6321 503.178 80.6321 503.178H0.750473C0.750473 503.178 -2.36196 494.005 4.34609 493.274C11.0541 492.542 15.4906 491.953 15.4906 491.953L52.7721 477.146C52.9252 477.085 53.0904 477.052 53.258 477.049C53.4256 477.046 53.5922 477.073 53.7479 477.128C53.9036 477.184 54.0453 477.267 54.1646 477.372C54.2839 477.477 54.3784 477.602 54.4425 477.74L56.8923 483.036C56.8923 483.036 63.1021 485.617 66.9851 485.617C69.4512 485.617 73.3844 484.23 75.9283 483.217ZM414.75 365.425C414.392 364.152 415.26 362.84 416.709 362.608C419.681 362.134 424.377 361.52 426.835 361.907C430.609 362.499 437.625 364.756 437.625 364.756L423.754 434.849C423.754 434.849 413.075 435.989 413.432 429.975C413.789 423.961 413.909 419.965 413.909 419.965L404.015 384.685C403.975 384.54 403.967 384.389 403.993 384.241C404.019 384.093 404.078 383.951 404.166 383.823C404.255 383.696 404.371 383.586 404.508 383.499C404.645 383.413 404.8 383.352 404.964 383.32L411.241 382.089C411.241 382.089 415.172 377.088 415.846 373.681C416.274 371.52 415.427 367.833 414.75 365.425Z" fill="#332929"/>
<path fill-rule="evenodd" clip-rule="evenodd" d="M116.349 126.478L97.1381 112.723C97.1381 112.723 95.6609 96.844 89.4549 95.7699C86.5282 93.9465 89.5553 107.603 83.7295 105.543C77.9062 103.483 65.0875 91.3885 62.1533 92.9733C57.8135 95.3174 59.3847 104.86 62.4495 109.966C68.1761 119.509 73.722 123.338 88.0894 129.468C99.357 134.278 111.379 145.302 111.379 145.302L116.349 126.478Z" fill="#FF928E"/>
<path fill-rule="evenodd" clip-rule="evenodd" d="M281.091 257.303C256.757 248.916 177.351 259.583 169.34 233.312C153.497 181.349 213.612 122.349 229.041 68.9429L267.741 75.0334C271.985 75.701 291.094 129.505 284.798 161.514C279.047 190.745 305.901 214.111 281.091 257.303Z" fill="#EA409A"/>
<path fill-rule="evenodd" clip-rule="evenodd" d="M232.891 69.5474C232.891 69.5474 223.106 139.285 195.228 143.193C167.349 147.101 104.159 115.12 104.159 115.12C104.159 115.12 82.6503 141.7 81.3953 154.263C217.353 247.511 296.601 167.828 266.522 74.8405L232.891 69.5474Z" fill="#EA409A"/>
</g>
<defs>
<clipPath id="clip0_999_3721">
<rect width="438" height="504" fill="white"/>
</clipPath>
</defs>
</svg>
