<svg width="438" height="504" viewBox="0 0 438 504" fill="none" xmlns="http://www.w3.org/2000/svg">
<g clip-path="url(#clip0_999_3721)">
<path fill-rule="evenodd" clip-rule="evenodd" d="M196.111 118.476L152.366 87.2336C146 77.4482 139.374 69.5847 132.492 63.6419C130.279 62.3786 126.211 61.1835 128.895 67.973C131.58 74.7624 134.061 82.0111 131.696 83.6003C129.331 85.1907 124.895 81.7523 121.897 84.5389C119.899 86.3981 127.717 91.0595 145.348 98.5266L177.586 128.241L196.111 118.476Z" fill="#FF928E"/>
<path fill-rule="evenodd" clip-rule="evenodd" d="M220.728 116.922C203.802 114.094 181.82 107.346 160.39 89.9033L147.194 107.239C160.929 124.574 181.941 140.348 202.503 143.055C218.708 145.189 230.382 129.108 220.728 116.922Z" fill="#C42B7C"/>
<path opacity="0.24" fill-rule="evenodd" clip-rule="evenodd" d="M220.727 116.922C203.801 114.094 181.819 107.346 160.388 89.9033L147.193 107.239C160.928 124.574 181.939 140.348 202.502 143.055C218.706 145.189 230.38 129.108 220.727 116.922Z" fill="#C42B7C"/>
<path d="M246.566 58.8729C236.279 61.5127 226.884 61.7289 223.08 59.8137C213.541 55.0111 222.626 21.3898 234.507 10.1193C246.387 -1.15018 288.864 2.85718 283.086 29.4337C281.081 38.6569 274.388 45.7162 266.104 50.8021L263.315 100.445L230.481 92.5938L246.566 58.8729Z" fill="#FDBAB9"/>
<path fill-rule="evenodd" clip-rule="evenodd" d="M248.134 15.2546C252.109 18.5396 254.07 23.5426 256.302 30.0678C257.358 29.9619 258.427 30.0341 259.454 30.2806C263.987 31.3647 266.679 35.5177 265.466 39.5564C265.174 40.5323 264.666 41.4461 263.972 42.2434C263.277 43.0407 262.41 43.7053 261.422 44.1977C262.604 47.0402 263.984 50.0441 265.65 53.2025C276.284 50.4954 288.68 36.9457 283.858 21.0294C283.407 13.6889 277.593 9.58072 271.475 6.32376C266.712 3.04216 261.212 1.48536 256.153 1.5604C246.73 0.0618405 237.752 0.597201 234.975 1.5268C232.642 9.29736 233.64 12.0066 248.134 15.2558V15.2546Z" fill="#332929"/>
<path fill-rule="evenodd" clip-rule="evenodd" d="M254.753 25.7422C254.753 25.7422 245.842 48.6921 237.754 46.7579C229.664 44.8236 224.176 38.6076 220.626 37.7587C218.039 37.1404 217.75 40.1633 218.823 42.7113C219.708 44.8147 226.088 48.1635 225.266 50.8985C224.445 53.6347 219.636 50.2164 219.149 51.8393C218.344 54.5228 215.871 59.3399 221.1 60.591C226.391 61.8566 242.076 63.7651 246.777 57.39C251.477 51.015 258.933 28.6878 258.933 28.6878L254.753 25.7422Z" fill="#332929"/>
<path fill-rule="evenodd" clip-rule="evenodd" d="M253.278 201.58L148.04 358.344L69.1413 490.874H52.1459L184.342 201.58H253.277H253.278Z" fill="#FDBAB9"/>
<path fill-rule="evenodd" clip-rule="evenodd" d="M91.0538 469.652L58.2804 460.819C58.2804 460.819 79.8189 403.45 111.076 334.553C142.335 265.658 178.216 201.58 178.216 201.58H270.778C270.778 201.58 230.886 282.636 186.195 348.878C141.505 415.12 91.0538 469.652 91.0538 469.652Z" fill="#65ADDE"/>
<path opacity="0.48" fill-rule="evenodd" clip-rule="evenodd" d="M91.0538 469.652L58.2816 460.819C58.2816 460.819 79.8189 403.45 111.078 334.553C142.335 265.658 178.217 201.58 178.217 201.58H270.779C270.779 201.58 230.886 282.636 186.196 348.878C141.505 415.12 91.0538 469.652 91.0538 469.652Z" fill="#65ADDE"/>
<path fill-rule="evenodd" clip-rule="evenodd" d="M260.195 201.58C270.128 256.668 289.285 327.049 291.093 329.221C292.298 330.669 335.689 343.624 421.264 368.086L417.593 381.439C315.544 368.319 261.773 358.142 256.28 350.903C248.041 340.047 206.898 254.282 190.963 201.58H260.195Z" fill="#FDBAB9"/>
<path fill-rule="evenodd" clip-rule="evenodd" d="M391.183 356.544L384.717 378.048C308.391 384.014 261.624 379.704 244.417 365.119C227.209 350.534 207.598 296.022 185.583 201.58H273.847C287.795 278.915 295.592 319.206 297.24 322.453C298.888 325.698 330.202 337.063 391.183 356.544Z" fill="#9FD2F5"/>
<path fill-rule="evenodd" clip-rule="evenodd" d="M75.9283 483.217C77.2712 482.684 78.8663 483.218 79.3734 484.448C80.4138 486.973 81.9085 490.99 81.9085 493.215C81.9085 496.629 80.6321 503.178 80.6321 503.178H0.750473C0.750473 503.178 -2.36196 494.005 4.34609 493.274C11.0541 492.542 15.4906 491.953 15.4906 491.953L52.7721 477.146C52.9252 477.085 53.0904 477.052 53.258 477.049C53.4256 477.046 53.5922 477.073 53.7479 477.128C53.9036 477.184 54.0453 477.267 54.1646 477.372C54.2839 477.477 54.3784 477.602 54.4425 477.74L56.8923 483.036C56.8923 483.036 63.1021 485.617 66.9851 485.617C69.4512 485.617 73.3844 484.23 75.9283 483.217ZM414.75 365.425C414.392 364.152 415.26 362.84 416.709 362.608C419.681 362.134 424.377 361.52 426.835 361.907C430.609 362.499 437.625 364.756 437.625 364.756L423.754 434.849C423.754 434.849 413.075 435.989 413.432 429.975C413.789 423.961 413.909 419.965 413.909 419.965L404.015 384.685C403.975 384.54 403.967 384.389 403.993 384.241C404.019 384.093 404.078 383.951 404.166 383.823C404.255 383.696 404.371 383.586 404.508 383.499C404.645 383.413 404.8 383.352 404.964 383.32L411.241 382.089C411.241 382.089 415.172 377.088 415.846 373.681C416.274 371.52 415.427 367.833 414.75 365.425Z" fill="#332929"/>
<path fill-rule="evenodd" clip-rule="evenodd" d="M168.483 117.52C162.099 124.555 127.502 107.878 94.7835 78.1856C62.0652 48.4933 43.6154 17.0295 49.9993 9.99512L16.3976 47.0211C14.2443 49.3939 13.6443 53.1341 14.632 58.0282C15.6198 62.9222 18.1758 68.8742 22.1543 75.5443C26.1327 82.2145 31.4556 89.4722 37.8191 96.903C44.1826 104.334 51.462 111.792 59.2417 118.852C67.0214 125.913 75.1491 132.436 83.1607 138.051C91.1723 143.666 98.9109 148.262 105.935 151.576C112.958 154.891 119.13 156.859 124.096 157.369C129.063 157.878 132.728 156.919 134.881 154.546L168.483 117.52ZM130.808 150.85L156.077 123.007C157.004 121.984 156.928 120.403 155.905 119.475C154.883 118.547 153.302 118.624 152.374 119.647L127.105 147.49L122.804 152.229C121.877 153.252 121.953 154.833 122.976 155.761C123.998 156.689 125.579 156.612 126.507 155.59L130.808 150.85ZM124.884 145.474L147.464 120.593C148.392 119.57 148.315 117.989 147.293 117.061C146.271 116.133 144.69 116.21 143.762 117.232L121.181 142.114L114.192 149.815C113.264 150.838 113.341 152.419 114.363 153.347C115.386 154.275 116.967 154.198 117.895 153.175L124.884 145.474ZM118.96 140.098L139.927 116.994C140.855 115.971 140.778 114.39 139.756 113.462C138.734 112.534 137.152 112.611 136.225 113.633L115.257 136.738L106.655 146.216C105.727 147.239 105.804 148.82 106.826 149.748C107.849 150.676 109.43 150.599 110.358 149.576L118.96 140.098ZM113.036 134.721L132.39 113.395C133.318 112.372 133.241 110.791 132.219 109.863C131.196 108.935 129.615 109.012 128.688 110.034L109.333 131.361L99.1181 142.617C98.1902 143.64 98.2669 145.221 99.2893 146.149C100.312 147.076 101.893 147 102.821 145.977L113.036 134.721ZM107.111 129.345L125.122 109.499C126.05 108.477 125.973 106.896 124.951 105.968C123.928 105.04 122.347 105.117 121.419 106.139L103.409 125.985L91.8499 138.722C90.922 139.744 90.9986 141.326 92.0211 142.253C93.0435 143.181 94.6246 143.105 95.5525 142.082L107.111 129.345ZM101.187 123.969L118.391 105.012C119.319 103.989 119.243 102.408 118.22 101.48C117.198 100.552 115.617 100.629 114.689 101.651L97.4847 120.609L85.1193 134.234C84.1914 135.257 84.268 136.838 85.2905 137.766C86.3129 138.694 87.894 138.617 88.8219 137.595L101.187 123.969ZM95.2631 118.593L111.661 100.524C112.589 99.5016 112.512 97.9205 111.489 96.9926C110.467 96.0647 108.886 96.1414 107.958 97.1638L91.5605 115.233L78.3887 129.747C77.4608 130.769 77.5374 132.35 78.5599 133.278C79.5823 134.206 81.1634 134.129 82.0913 133.107L95.2631 118.593ZM89.3389 113.216L105.199 95.7401C106.127 94.7177 106.05 93.1366 105.028 92.2088C104.005 91.2809 102.424 91.3575 101.496 92.38L85.6363 109.856L71.9269 124.963C70.999 125.985 71.0756 127.566 72.0981 128.494C73.1205 129.422 74.7016 129.345 75.6295 128.323L89.3389 113.216ZM83.4148 107.84L99.0059 90.6601C99.9338 89.6376 99.8572 88.0566 98.8347 87.1287C97.8123 86.2008 96.2312 86.2775 95.3033 87.2999L79.7122 104.48L65.7339 119.883C64.806 120.905 64.8827 122.486 65.9051 123.414C66.9275 124.342 68.5086 124.265 69.4365 123.243L83.4148 107.84ZM77.4906 102.464L92.813 85.58C93.7408 84.5576 93.6642 82.9765 92.6417 82.0486C91.6193 81.1208 90.0382 81.1974 89.1103 82.2199L73.788 99.1037L59.5409 114.803C58.613 115.825 58.6897 117.406 59.7121 118.334C60.7346 119.262 62.3156 119.185 63.2435 118.163L77.4906 102.464ZM71.5664 97.0876L87.1576 79.9076C88.0855 78.8851 88.0088 77.3041 86.9864 76.3762C85.9639 75.4483 84.3829 75.5249 83.455 76.5474L67.8638 93.7275L53.8855 109.13C52.9577 110.153 53.0343 111.734 54.0568 112.662C55.0792 113.59 56.6603 113.513 57.5882 112.49L71.5664 97.0876ZM65.6423 91.7113L81.5022 74.2351C82.4301 73.2126 82.3535 71.6316 81.331 70.7037C80.3086 69.7758 78.7275 69.8525 77.7996 70.8749L61.9397 88.3512L48.2302 103.458C47.3023 104.48 47.379 106.061 48.4014 106.989C49.4239 107.917 51.0049 107.84 51.9328 106.818L65.6423 91.7113ZM59.7181 86.3351L76.1157 68.2664C77.0436 67.2439 76.9669 65.6629 75.9445 64.735C74.922 63.8071 73.341 63.8838 72.4131 64.9062L56.0155 82.9749L42.8436 97.4891C41.9158 98.5116 41.9924 100.093 43.0149 101.02C44.0373 101.948 45.6184 101.872 46.5463 100.849L59.7181 86.3351ZM53.7939 80.9588L70.998 62.0015C71.9259 60.9791 71.8492 59.398 70.8268 58.4701C69.8043 57.5422 68.2233 57.6189 67.2954 58.6413L50.0913 77.5986L37.7259 91.2242C36.798 92.2467 36.8747 93.8277 37.8971 94.7556C38.9196 95.6835 40.5006 95.6068 41.4285 94.5844L53.7939 80.9588ZM47.8698 75.5825L65.8802 55.7366C66.8081 54.7142 66.7315 53.1331 65.709 52.2052C64.6866 51.2773 63.1055 51.354 62.1776 52.3764L44.1672 72.2224L32.6082 84.9593C31.6803 85.9818 31.757 87.5628 32.7794 88.4907C33.8019 89.4186 35.3829 89.3419 36.3108 88.3195L47.8698 75.5825ZM41.9456 70.2063L61.3001 48.8793C62.228 47.8569 62.1514 46.2758 61.1289 45.3479C60.1065 44.42 58.5254 44.4967 57.5975 45.5191L38.243 66.8461L28.0281 78.102C27.1002 79.1245 27.1769 80.7055 28.1993 81.6334C29.2218 82.5613 30.8028 82.4846 31.7307 81.4622L41.9456 70.2063ZM36.0214 64.83L56.9889 41.7258C57.9167 40.7033 57.8401 39.1223 56.8176 38.1944C55.7952 37.2665 54.2141 37.3432 53.2863 38.3656L32.3188 61.4698L23.7168 70.9485C22.7889 71.971 22.8656 73.552 23.888 74.4799C24.9105 75.4078 26.4915 75.3311 27.4194 74.3087L36.0214 64.83ZM30.0973 59.4537L52.6776 34.5723C53.6055 33.5498 53.5288 31.9688 52.5064 31.0409C51.4839 30.113 49.9028 30.1897 48.975 31.2121L26.3947 56.0936L19.4055 63.795C18.4776 64.8174 18.5543 66.3985 19.5767 67.3264C20.5992 68.2543 22.1802 68.1776 23.1081 67.1552L30.0973 59.4537ZM24.1731 54.0775L49.4415 26.2339C50.3694 25.2115 50.2928 23.6304 49.2703 22.7025C48.2479 21.7747 46.6668 21.8513 45.7389 22.8738L20.4705 50.7173L16.1695 55.4566C15.2416 56.4791 15.3183 58.0601 16.3407 58.988C17.3631 59.9159 18.9442 59.8393 19.8721 58.8168L24.1731 54.0775Z" fill="#F5D0DE"/>
<path d="M171.44 114.262C165.056 121.297 130.459 104.62 97.7404 74.9274C65.0221 45.2351 46.5723 13.7714 52.9562 6.73695C59.34 -0.297473 91.0385 18.0704 123.757 47.7627C156.475 77.455 177.823 107.228 171.44 114.262Z" fill="#F5D0DE"/>
<path fill-rule="evenodd" clip-rule="evenodd" d="M116.349 126.478L97.1381 112.723C97.1381 112.723 95.6609 96.844 89.4549 95.7699C86.5282 93.9465 89.5553 107.603 83.7295 105.543C77.9062 103.483 65.0875 91.3885 62.1533 92.9733C57.8135 95.3174 59.3847 104.86 62.4495 109.966C68.1761 119.509 73.722 123.338 88.0894 129.468C99.357 134.278 111.379 145.302 111.379 145.302L116.349 126.478Z" fill="#FF928E"/>
<path fill-rule="evenodd" clip-rule="evenodd" d="M281.091 257.303C256.757 248.916 177.351 259.583 169.34 233.312C153.497 181.349 213.612 122.349 229.041 68.9429L267.741 75.0334C271.985 75.701 291.094 129.505 284.798 161.514C279.047 190.745 305.901 214.111 281.091 257.303Z" fill="#EA409A"/>
<path fill-rule="evenodd" clip-rule="evenodd" d="M232.891 69.5474C232.891 69.5474 223.106 139.285 195.228 143.193C167.349 147.101 104.159 115.12 104.159 115.12C104.159 115.12 82.6503 141.7 81.3953 154.263C217.353 247.511 296.601 167.828 266.522 74.8405L232.891 69.5474Z" fill="#EA409A"/>
</g>
<defs>
<clipPath id="clip0_999_3721">
<rect width="438" height="504" fill="white"/>
</clipPath>
</defs>
</svg>
