<svg width="1440" height="1625" viewBox="0 0 1440 1625" fill="none" xmlns="http://www.w3.org/2000/svg">
<g filter="url(#filter0_d_746_5014)">
<path fill-rule="evenodd" clip-rule="evenodd" d="M1250.76 645.986C1366.18 490.928 1334.04 271.662 1178.99 156.242C1036.78 50.3905 840.573 68.6425 719.991 192.001C596.274 65.4561 394.407 50.3431 252.636 162.677C101.132 282.724 75.6305 502.859 195.677 654.364C304.267 791.409 379.149 866.049 506.15 964.071L732.765 1138.98L949.147 951.56L939.326 940.221L732.218 1119.61L515.315 952.197C389.358 854.98 315.332 781.22 207.434 645.048C92.5321 500.037 116.941 289.336 261.952 174.434C401.823 63.6052 602.809 82.3853 719.993 213.986C834.209 85.6509 1029.62 63.7603 1170.03 168.275C1318.44 278.748 1349.2 488.617 1238.73 637.029C1184.13 710.377 1101.64 790.924 1048.67 840.927C1019.13 868.814 992.188 893.284 972.651 910.775C962.837 919.561 954.774 926.69 949.045 931.726C946.178 934.247 943.887 936.25 942.245 937.682C941.938 937.95 941.653 938.199 941.391 938.426C940.954 938.808 940.581 939.132 940.275 939.398C940.03 939.611 939.828 939.786 939.67 939.924L939.465 940.101L939.387 940.169L939.354 940.197C939.34 940.209 939.326 940.221 720 687L720.239 687.276C949.147 951.56 949.161 951.547 949.176 951.534L949.21 951.505L949.29 951.436L949.5 951.254C949.661 951.114 949.867 950.935 950.115 950.72C950.61 950.289 951.277 949.709 952.105 948.986C953.761 947.542 956.066 945.526 958.949 942.992C964.708 937.929 972.805 930.77 982.656 921.95C1002.26 904.396 1029.3 879.835 1058.96 851.835C1111.9 801.864 1195.29 720.509 1250.76 645.986Z" fill="#EA409A"/>
</g>
<defs>
<filter id="filter0_d_746_5014" x="-211.848" y="-144.856" width="2263.7" height="2115.67" filterUnits="userSpaceOnUse" color-interpolation-filters="sRGB">
<feFlood flood-opacity="0" result="BackgroundImageFix"/>
<feColorMatrix in="SourceAlpha" type="matrix" values="0 0 0 0 0 0 0 0 0 0 0 0 0 0 0 0 0 0 127 0" result="hardAlpha"/>
<feOffset dx="200" dy="300"/>
<feGaussianBlur stdDeviation="265.917"/>
<feComposite in2="hardAlpha" operator="out"/>
<feColorMatrix type="matrix" values="0 0 0 0 0.992157 0 0 0 0 0.905882 0 0 0 0 0.992157 0 0 0 1 0"/>
<feBlend mode="normal" in2="BackgroundImageFix" result="effect1_dropShadow_746_5014"/>
<feBlend mode="normal" in="SourceGraphic" in2="effect1_dropShadow_746_5014" result="shape"/>
</filter>
</defs>
</svg>
