<svg width="1200" height="1052" viewBox="0 0 1200 1052" fill="none" xmlns="http://www.w3.org/2000/svg">
<g filter="url(#filter0_d_758_5507)">
<path fill-rule="evenodd" clip-rule="evenodd" d="M1130.77 559.008C1246.19 403.95 1214.05 184.684 1059 69.2636C916.794 -36.5879 720.587 -18.3359 600.005 105.023C476.288 -21.5223 274.421 -36.6353 132.65 75.6986C-18.854 195.746 -44.3555 415.881 75.691 567.386C184.281 704.431 259.163 779.071 386.164 877.093L612.779 1052L829.161 864.582L819.34 853.243L612.232 1032.63L395.329 865.219C269.372 768.002 195.346 694.242 87.448 558.07C-27.4539 413.059 -3.04501 202.358 141.966 87.4556C281.837 -23.3732 482.823 -4.59314 600.007 127.008C714.223 -1.32755 909.634 -23.2181 1050.04 81.2966C1198.45 191.77 1229.21 401.639 1118.74 550.051C1064.14 623.399 981.654 703.946 928.684 753.949C899.144 781.836 872.202 806.306 852.665 823.797C842.851 832.583 834.788 839.712 829.059 844.748C826.192 847.269 823.901 849.272 822.259 850.704C821.952 850.972 821.667 851.221 821.405 851.448C820.968 851.83 820.595 852.154 820.289 852.42C820.044 852.633 819.842 852.808 819.684 852.946L819.479 853.123L819.401 853.191L819.368 853.219C819.354 853.231 819.34 853.243 600.014 600.022L600.253 600.298C829.161 864.582 829.175 864.569 829.19 864.556L829.224 864.527L829.304 864.458L829.514 864.276C829.675 864.136 829.881 863.957 830.129 863.742C830.624 863.311 831.291 862.731 832.119 862.008C833.775 860.564 836.08 858.548 838.963 856.014C844.722 850.951 852.819 843.792 862.67 834.972C882.274 817.418 909.314 792.857 938.974 764.857C991.914 714.886 1075.3 633.531 1130.77 559.008Z" fill="#EA409A"/>
</g>
<defs>
<filter id="filter0_d_758_5507" x="-331.834" y="-231.834" width="2263.7" height="2115.67" filterUnits="userSpaceOnUse" color-interpolation-filters="sRGB">
<feFlood flood-opacity="0" result="BackgroundImageFix"/>
<feColorMatrix in="SourceAlpha" type="matrix" values="0 0 0 0 0 0 0 0 0 0 0 0 0 0 0 0 0 0 127 0" result="hardAlpha"/>
<feOffset dx="200" dy="300"/>
<feGaussianBlur stdDeviation="265.917"/>
<feComposite in2="hardAlpha" operator="out"/>
<feColorMatrix type="matrix" values="0 0 0 0 0.992157 0 0 0 0 0.905882 0 0 0 0 0.992157 0 0 0 1 0"/>
<feBlend mode="normal" in2="BackgroundImageFix" result="effect1_dropShadow_758_5507"/>
<feBlend mode="normal" in="SourceGraphic" in2="effect1_dropShadow_758_5507" result="shape"/>
</filter>
</defs>
</svg>
