<svg width="669" height="721" viewBox="0 0 669 721" fill="none" xmlns="http://www.w3.org/2000/svg">
<path fill-rule="evenodd" clip-rule="evenodd" d="M344.325 720.451C303.789 720.451 272.822 714.44 260.471 711.781C215.68 702.133 129.099 683.487 66.5025 605.425C-28.2009 487.324 -13.4543 301.257 60.0039 178.436C65.7538 168.82 82.0438 140.483 110.1 109.645C110.291 110.096 110.643 110.472 111.112 110.667C112.962 111.436 114.807 112.301 116.597 113.238C116.861 113.376 117.14 113.442 117.415 113.442C118.028 113.442 118.62 113.117 118.968 112.549C119.008 112.485 119.044 112.417 119.077 112.346C119.53 111.374 119.153 110.196 118.236 109.716C116.365 108.737 114.437 107.833 112.504 107.028C138.521 78.9759 174.215 49.2503 220.525 29.8911C202.464 41.4545 185.98 56.6455 172.808 74.2791C172.515 74.4373 172.293 74.7272 172.212 75.0814C146.978 109.273 134.203 152.508 146.425 196.274C147.537 200.256 148.884 204.401 150.459 208.605C150.344 208.903 150.224 209.198 150.103 209.494C149.698 210.491 150.132 211.646 151.07 212.076C151.311 212.184 151.557 212.236 151.802 212.236H151.87C160.259 233.012 174.102 254.324 192.503 262.838C194.378 263.704 196.296 264.434 198.251 265.03C199.467 265.799 200.774 266.509 202.179 267.159C210.705 271.104 229.199 273.962 244.271 273.962C251.411 273.962 257.778 273.322 261.959 271.85C296.531 259.678 319.255 226.367 300.453 189.422C294.432 177.592 286.637 166.785 281.439 154.524C276.238 142.262 273.87 127.71 279.17 115.497C289.137 92.5394 321.264 84.5779 343.656 84.5779C344.644 84.5779 345.609 84.5934 346.558 84.6237C347.72 84.6609 348.872 84.7232 350.022 84.8101C362.888 91.3669 373.965 101.611 381.965 114.99C399.711 144.659 404.206 180.747 401.61 215.187C398.829 252.041 384.177 280.182 362.217 308.454C343.311 332.791 322.491 356.156 309.928 384.736C298.391 410.975 294.621 440.046 294.1 468.75C293.997 474.314 295.766 532.41 295.876 548.429C295.895 550.691 297.61 552.519 299.742 552.545C306.89 555.605 327.25 560.69 329.007 560.711C340.142 560.845 371.684 561.218 383.292 561.356H383.34C385.706 561.356 387.646 559.343 387.673 556.828C388.501 478.899 411.105 404.603 468.323 352.266C489.143 333.221 511.565 317.712 527.755 293.675C539.552 276.158 548.295 258.782 553.583 240.332L637.417 236.019C640.237 235.872 642.768 234.62 644.643 232.665C686.778 354.39 670.976 498.004 615.579 587.349C614.874 587.376 614.163 587.389 613.453 587.389C601.689 587.389 589.495 584.147 576.757 580.908C564.015 577.665 550.725 574.422 536.759 574.422C527.541 574.422 518.027 575.837 508.183 579.593C456.786 599.213 463.869 673.196 466.754 692.997C467.163 695.787 469.184 697.97 471.774 698.494C425.949 715.477 381.18 720.451 344.325 720.451ZM326.951 713.545C327.197 713.643 327.447 713.741 327.7 713.839C333.839 716.19 356.376 716.252 364.98 716.252H366.317C400.11 716.252 418.841 684.549 418.841 648.714C418.841 613.535 384.346 587.416 351.111 586.476C346.272 585.17 341.204 584.476 335.981 584.476C302.188 584.476 274.796 613.527 274.796 649.361C274.796 681.941 297.441 708.915 326.951 713.545ZM616.52 278.85C613.483 278.85 610.465 281.046 610.087 284.942C604.449 342.994 562.055 363.28 468.53 462.083C370.013 566.161 444.037 680.024 454.217 694.574C454.916 695.57 455.955 696.222 457.117 696.388C457.323 696.419 457.524 696.432 457.724 696.432C460.501 696.432 462.629 693.632 461.905 690.665C456.063 666.626 446.156 582.033 567.023 504.864C676.593 434.906 643.484 328.324 622.232 282.648C621.022 280.049 618.768 278.85 616.52 278.85ZM96.0682 253.759C95.9783 253.759 95.8871 253.766 95.7952 253.779C93.8533 254.085 91.8786 254.306 89.9248 254.437C88.9046 254.503 88.1295 255.437 88.1943 256.52C88.2566 257.561 89.0707 258.36 90.0403 258.36C90.0796 258.36 90.1194 258.359 90.159 258.356C92.2152 258.217 94.2939 257.986 96.3372 257.665C96.8841 257.579 97.3399 257.248 97.619 256.792C97.8564 256.404 97.9664 255.929 97.8975 255.435C97.7618 254.461 96.9711 253.759 96.0682 253.759ZM74.1825 253.635C73.2884 253.635 72.5008 254.324 72.3555 255.292C72.1944 256.36 72.8825 257.368 73.8924 257.538C75.9289 257.883 78.006 258.141 80.0657 258.298C80.1117 258.305 80.1579 258.307 80.2034 258.307C80.8467 258.307 81.4232 257.952 81.7553 257.409C81.9199 257.142 82.0245 256.829 82.0485 256.487C82.1237 255.404 81.3582 254.463 80.3382 254.383C78.3816 254.232 76.4094 253.987 74.4761 253.661C74.3775 253.644 74.2794 253.635 74.1825 253.635ZM111.419 249.485C111.198 249.485 110.974 249.526 110.756 249.617C108.925 250.36 107.042 251.033 105.162 251.612C104.18 251.912 103.615 253.003 103.9 254.046C104.136 254.906 104.875 255.461 105.678 255.461C105.849 255.461 106.023 255.435 106.196 255.383C108.175 254.774 110.155 254.067 112.082 253.284C112.461 253.129 112.765 252.857 112.971 252.521C113.283 252.013 113.368 251.357 113.148 250.746C112.865 249.966 112.163 249.485 111.419 249.485ZM58.8818 249.156C58.146 249.156 57.4495 249.624 57.1605 250.391C56.7805 251.399 57.2431 252.539 58.1926 252.943C60.1102 253.756 62.0811 254.492 64.0518 255.126C64.2318 255.186 64.4137 255.214 64.5927 255.214C65.2167 255.214 65.8042 254.876 66.1449 254.319C66.237 254.17 66.3111 254.003 66.363 253.823C66.6612 252.784 66.1099 251.686 65.1318 251.37C63.2601 250.766 61.3884 250.068 59.5667 249.295C59.3421 249.2 59.11 249.156 58.8818 249.156ZM125.518 241.772C125.166 241.772 124.81 241.877 124.494 242.099C122.866 243.247 121.168 244.338 119.448 245.34C118.552 245.863 118.224 247.055 118.717 248.006C119.054 248.658 119.688 249.026 120.341 249.026C120.643 249.026 120.948 248.946 121.232 248.782C123.042 247.726 124.83 246.58 126.544 245.369C126.761 245.218 126.939 245.024 127.072 244.806C127.462 244.169 127.483 243.322 127.062 242.649C126.705 242.078 126.117 241.772 125.518 241.772ZM44.8728 241.242C44.2809 241.242 43.6992 241.543 43.3411 242.101C42.7416 242.998 42.9838 244.22 43.8286 244.829C44.28 245.156 44.7353 245.477 45.1955 245.793C46.466 246.671 47.7805 247.516 49.1014 248.311C49.3895 248.482 49.7029 248.565 50.0122 248.565C50.6214 248.565 51.2144 248.246 51.5653 247.672C51.5862 247.64 51.6058 247.604 51.6247 247.57C52.1287 246.627 51.816 245.428 50.9262 244.894C49.6703 244.138 48.4215 243.335 47.2135 242.503C46.7761 242.202 46.3425 241.894 45.9139 241.584C45.5946 241.353 45.2319 241.242 44.8728 241.242ZM137.676 230.968C137.189 230.968 136.702 231.172 136.339 231.577C134.988 233.077 133.558 234.537 132.086 235.915C131.322 236.633 131.25 237.874 131.926 238.687C132.292 239.123 132.801 239.35 133.315 239.35C133.749 239.35 134.188 239.185 134.54 238.856C136.089 237.406 137.595 235.869 139.018 234.287C139.099 234.198 139.171 234.102 139.232 233.999C139.707 233.224 139.611 232.175 138.958 231.514C138.598 231.149 138.138 230.968 137.676 230.968ZM34.9823 232.637C34.5028 232.637 34.0238 232.835 33.6611 233.225C32.9418 234.002 32.9555 235.242 33.6846 236.002C34.4062 236.753 35.1501 237.496 35.8957 238.211C36.2498 238.55 36.694 238.721 37.1367 238.721C37.6423 238.721 38.1456 238.501 38.5113 238.073C38.5786 237.993 38.6385 237.91 38.6913 237.823C39.1785 237.029 39.0635 235.954 38.3795 235.299C37.6716 234.62 36.9647 233.914 36.2796 233.199C35.9191 232.825 35.4504 232.637 34.9823 232.637ZM147.307 217.588C146.677 217.588 146.064 217.928 145.719 218.539C144.696 220.339 143.605 222.09 142.466 223.764C141.869 224.644 142.056 225.87 142.882 226.505C143.212 226.756 143.59 226.878 143.967 226.878C144.54 226.878 145.109 226.595 145.469 226.062C146.176 225.026 146.869 223.955 147.531 222.871C147.994 222.116 148.447 221.347 148.891 220.565C149.419 219.637 149.138 218.431 148.264 217.871C147.963 217.681 147.633 217.588 147.307 217.588ZM126.06 114.844C125.467 114.844 124.884 115.146 124.526 115.706L124.506 115.739C123.958 116.633 124.184 117.833 125.02 118.434C126.674 119.621 128.295 120.896 129.839 122.222C130.183 122.516 130.595 122.659 131.005 122.659C131.543 122.659 132.079 122.41 132.445 121.931C132.486 121.877 132.523 121.821 132.559 121.764C133.068 120.932 132.913 119.808 132.171 119.17C130.544 117.774 128.837 116.433 127.097 115.182C126.779 114.954 126.418 114.844 126.06 114.844ZM128.518 99.6536C128.12 99.6536 127.735 99.8696 127.536 100.261C127.402 100.507 127.27 100.753 127.141 101.002C126.284 102.638 125.503 104.335 124.821 106.043C124.575 106.66 124.846 107.371 125.428 107.632C125.574 107.697 125.725 107.729 125.873 107.729C126.254 107.729 126.619 107.526 126.832 107.178C126.868 107.119 126.9 107.055 126.927 106.988C127.577 105.36 128.323 103.741 129.143 102.176C129.266 101.938 129.39 101.706 129.516 101.477C129.831 100.896 129.645 100.154 129.099 99.8191C128.917 99.7074 128.716 99.6536 128.518 99.6536ZM135.67 89.6003C135.371 89.6003 135.073 89.7238 134.847 89.9692C133.443 91.506 132.113 93.1567 130.891 94.875C130.518 95.4177 130.612 96.1714 131.116 96.574C131.322 96.739 131.565 96.8185 131.803 96.8185C132.149 96.8185 132.494 96.6518 132.719 96.3362C133.882 94.696 135.153 93.1217 136.492 91.6564C136.542 91.5988 136.589 91.5371 136.63 91.4726C136.92 90.996 136.866 90.3518 136.465 89.942C136.244 89.714 135.956 89.6003 135.67 89.6003ZM144.917 81.7139C144.711 81.7139 144.504 81.7723 144.315 81.8947C142.595 83.0229 140.922 84.2757 139.348 85.619C138.855 86.0416 138.778 86.8024 139.173 87.3246C139.398 87.6223 139.731 87.7771 140.065 87.7771C140.318 87.7771 140.569 87.6895 140.781 87.5095C142.283 86.2283 143.876 85.0341 145.518 83.9588C145.669 83.8616 145.787 83.7335 145.878 83.5878C146.109 83.207 146.129 82.7016 145.89 82.2892C145.674 81.9181 145.3 81.7139 144.917 81.7139ZM155.704 76.4642C155.59 76.4642 155.474 76.4825 155.359 76.5214C153.43 77.1721 151.519 77.9547 149.681 78.8484C149.106 79.1269 148.857 79.8473 149.118 80.4565C149.312 80.9015 149.727 81.164 150.159 81.164C150.32 81.164 150.481 81.1285 150.634 81.0534C152.389 80.2008 154.211 79.454 156.05 78.8336C156.312 78.7448 156.525 78.5657 156.665 78.3386C156.843 78.0448 156.902 77.6702 156.795 77.3094C156.64 76.7936 156.191 76.4642 155.704 76.4642ZM167.379 74.1499C167.353 74.1499 167.329 74.1508 167.305 74.1522C165.283 74.2858 163.249 74.5531 161.264 74.948C160.642 75.072 160.235 75.707 160.35 76.3637C160.453 76.9463 160.934 77.353 161.472 77.353C161.542 77.353 161.615 77.3464 161.686 77.3322C163.578 76.9553 165.518 76.7002 167.445 76.5735C167.824 76.5488 168.144 76.3341 168.336 76.0228C168.463 75.8122 168.532 75.5577 168.518 75.2883C168.482 74.6454 167.976 74.1499 167.379 74.1499ZM476.937 696.533C477.813 695.393 478.273 693.89 478.058 692.28C476.647 681.731 483.499 673.002 540.413 663.173C519.532 677.372 498.14 688.265 476.937 696.533ZM549.944 134.586C543.539 113.367 533.796 93.3606 520.199 76.1997C510.874 64.4299 499.971 54.2752 487.992 45.704C510.576 57.3485 531.992 71.7746 551.446 89.0586C566.601 102.523 580.161 117.328 592.203 133.199L549.944 134.586Z" fill="#F2DFF2"/>
<path fill-rule="evenodd" clip-rule="evenodd" d="M457.12 696.395C455.958 696.227 454.919 695.577 454.22 694.58C444.04 680.029 370.015 566.168 468.532 462.09C562.058 363.287 604.45 343 610.09 284.948C610.747 278.17 619.391 276.542 622.236 282.653C643.485 328.33 676.596 434.913 567.025 504.871C446.158 582.04 456.066 666.631 461.909 690.671C462.682 693.849 460.187 696.838 457.12 696.395Z" fill="#FAC3F9"/>
<path fill-rule="evenodd" clip-rule="evenodd" d="M472.11 698.553C469.359 698.156 467.181 695.905 466.756 692.997C463.871 673.198 456.786 599.214 508.184 579.594C532.94 570.145 555.607 575.527 576.758 580.908C603.954 587.824 628.644 594.743 652.041 570.14C654.227 567.839 657.908 569.844 657.387 573.066C653.682 595.912 637.195 648.834 563.832 659.481C485.311 670.879 476.474 680.43 478.06 692.281C478.549 695.934 475.558 699.05 472.11 698.553Z" fill="#FAC3F9"/>
<path fill-rule="evenodd" clip-rule="evenodd" d="M449.485 677.721C448.905 677.721 448.355 677.368 448.093 676.793C441.246 661.381 436.132 644.998 433.3 628.083C431.854 619.635 430.997 611.051 430.752 602.438C430.559 593.826 430.901 585.175 431.923 576.605C433.89 559.447 438.456 542.64 445.028 526.817C451.621 510.987 460.329 496.2 470.503 482.712C480.674 469.206 492.472 457.123 505.373 446.565C511.836 441.299 518.594 436.428 525.649 432.048C532.555 427.847 539.111 423.577 545.463 418.716C558.136 409.117 569.849 398.033 579.928 385.382C585.029 379.115 589.648 372.404 593.869 365.411C598.005 358.402 601.872 351.007 604.654 343.36L604.691 343.259C604.904 342.673 605.435 342.312 605.995 342.312C606.161 342.312 606.332 342.344 606.497 342.411C607.155 342.681 607.512 343.424 607.355 344.134C606.394 348.441 605.119 352.483 603.597 356.493C602.104 360.501 600.382 364.41 598.505 368.233C594.79 375.906 590.335 383.164 585.451 390.078C575.624 403.872 563.734 415.99 550.63 426.266C544.094 431.375 537.106 436.069 530.201 440.312C523.475 444.449 517.004 449.076 510.806 454.088C498.401 464.11 487.152 475.739 477.222 488.489C457.432 514.013 443.389 544.811 438.766 577.605C436.406 593.964 436.377 610.712 438.504 627.209C440.604 643.726 445.043 659.898 450.896 675.491C451.214 676.325 450.836 677.268 450.049 677.605C449.866 677.685 449.674 677.721 449.485 677.721Z" fill="#F2DFF2"/>
<path fill-rule="evenodd" clip-rule="evenodd" d="M469.937 686.788C469.517 686.788 469.114 686.547 468.908 686.126C468.756 685.813 468.742 685.463 468.843 685.153L468.852 685.13C469.093 684.414 469.017 683.748 468.996 683.064L468.936 681.023L468.892 676.944C468.895 674.224 468.949 671.506 469.061 668.791C469.291 663.359 469.725 657.93 470.412 652.534C471.809 641.753 474.114 631.004 478.217 620.881C482.275 610.825 488.419 601.217 497.338 594.941C501.78 591.858 506.792 589.666 511.986 588.55C515.411 587.786 518.898 587.449 522.372 587.449C524.165 587.449 525.948 587.539 527.723 587.703C548.165 590.218 568.198 594.373 588.286 597.749C595.383 598.87 602.55 599.906 609.623 599.906C612.523 599.906 615.405 599.732 618.264 599.318C620.706 598.94 623.11 598.373 625.446 597.577C627.759 596.72 630.03 595.72 632.151 594.401C636.423 591.814 640.18 588.276 643.537 584.353L643.547 584.341C643.792 584.055 644.131 583.908 644.47 583.908C644.77 583.908 645.068 584.022 645.307 584.25C645.809 584.734 645.853 585.555 645.411 586.097C642.01 590.249 638.124 594.088 633.579 596.977C631.325 598.448 628.891 599.595 626.411 600.572C623.906 601.491 621.331 602.155 618.735 602.619C615.388 603.137 612.049 603.349 608.728 603.349C601.663 603.349 594.663 602.39 587.78 601.39C577.631 599.857 567.607 597.862 557.551 596.137C547.525 594.407 537.381 592.733 527.396 591.49C525.563 591.303 523.723 591.203 521.888 591.203C518.786 591.203 515.697 591.492 512.679 592.137C507.867 593.124 503.264 595.093 499.148 597.888C490.848 603.492 484.828 612.41 480.741 622.063C476.604 631.764 474.146 642.268 472.586 652.866C471.818 658.175 471.294 663.528 470.977 668.9C470.819 671.584 470.718 674.27 470.666 676.962L470.639 680.997L470.663 683.01C470.682 683.678 470.651 684.362 470.963 684.997C471.255 685.6 471.036 686.339 470.468 686.65C470.297 686.743 470.116 686.788 469.937 686.788Z" fill="#F2DFF2"/>
<path fill-rule="evenodd" clip-rule="evenodd" d="M383.34 561.366C383.324 561.366 383.307 561.366 383.292 561.366C371.684 561.228 340.142 560.855 329.005 560.721C327.25 560.702 306.889 555.615 299.742 552.556H299.746C310.88 552.69 342.422 553.063 354.03 553.198C354.046 553.201 354.062 553.201 354.078 553.201C356.444 553.201 358.384 551.188 358.411 548.674C359.237 470.746 381.843 396.448 439.061 344.11C459.881 325.067 482.304 309.558 498.493 285.52C508.174 271.148 515.799 256.867 521.142 242.011L553.583 240.344C548.295 258.794 539.552 276.17 527.753 293.685C511.566 317.722 489.143 333.231 468.323 352.277C411.103 404.613 388.499 478.909 387.673 556.84C387.646 559.353 385.706 561.366 383.34 561.366ZM244.271 273.972C229.199 273.972 210.705 271.114 202.179 267.171C200.774 266.519 199.467 265.809 198.249 265.04C202.99 266.492 207.928 267.171 212.892 267.171C219.593 267.171 226.339 265.933 232.697 263.693C267.269 251.522 289.993 218.209 271.189 181.267C265.17 169.437 257.375 158.631 252.177 146.369C246.979 134.108 244.607 119.555 249.908 107.342C259.875 84.3841 292.002 76.4225 314.392 76.4225C315.382 76.4225 316.347 76.438 317.296 76.4686C328.884 76.8405 339.993 79.711 350.022 84.8209C348.872 84.7339 347.718 84.6717 346.558 84.6345C345.609 84.6041 344.644 84.5888 343.655 84.5888C321.264 84.5888 289.137 92.5501 279.17 115.508C273.869 127.721 276.238 142.273 281.439 154.534C286.637 166.797 294.432 177.602 300.451 189.432C319.255 226.377 296.531 259.688 261.959 271.86C257.778 273.332 251.41 273.972 244.271 273.972ZM523.194 135.474C516.945 110.911 506.449 87.6249 490.937 68.0447C470.915 42.7716 443.607 24.9464 414.023 14.25C415.536 14.5606 417.04 14.8836 418.537 15.2183C443.164 20.7251 467.196 30.834 487.992 45.7148C499.971 54.2861 510.874 64.4407 520.2 76.2105C533.796 93.3713 543.537 113.378 549.944 134.597L523.194 135.474Z" fill="#C42B7C"/>
<path fill-rule="evenodd" clip-rule="evenodd" d="M364.983 716.251C356.381 716.251 333.842 716.189 327.703 713.836C327.45 713.738 327.2 713.64 326.954 713.543C329.901 714.005 332.916 714.245 335.984 714.245C369.779 714.245 397.171 685.194 397.171 649.358C397.171 619.062 377.59 593.614 351.114 586.474C384.349 587.415 418.844 613.532 418.844 648.713C418.844 684.546 400.115 716.251 366.32 716.251C365.926 716.251 365.478 716.251 364.983 716.251Z" fill="#C42B7C"/>
<path fill-rule="evenodd" clip-rule="evenodd" d="M354.081 553.195C354.063 553.195 354.049 553.195 354.031 553.195C342.423 553.056 310.882 552.683 299.749 552.55C299.746 552.55 299.746 552.55 299.743 552.55C297.613 552.524 295.896 550.696 295.879 548.434C295.767 532.415 294 474.319 294.102 468.755C294.624 440.052 298.394 410.98 309.929 384.741C322.494 356.161 343.312 332.796 362.219 308.459C384.178 280.188 398.83 252.046 401.611 215.192C404.209 180.752 399.712 144.664 381.968 114.995C373.966 101.616 362.889 91.3718 350.024 84.8149C339.996 79.705 328.887 76.8345 317.297 76.4627C316.35 76.4321 315.385 76.4166 314.395 76.4166C292.005 76.4166 259.877 84.3781 249.909 107.336C244.609 119.549 246.98 134.102 252.178 146.363C257.377 158.625 265.172 169.431 271.192 181.26C289.994 218.202 267.272 251.517 232.7 263.688C226.34 265.928 219.596 267.164 212.894 267.164C207.931 267.164 202.992 266.485 198.252 265.035C196.297 264.439 194.38 263.708 192.506 262.841C174.103 254.329 160.262 233.017 151.873 212.241C152.465 212.216 153.024 211.891 153.356 211.348C153.415 211.257 153.463 211.158 153.507 211.055C154.324 209.042 155.07 206.972 155.725 204.9C156.05 203.871 155.527 202.758 154.557 202.413C154.362 202.344 154.164 202.31 153.97 202.31C153.194 202.31 152.469 202.83 152.215 203.652C151.689 205.315 151.099 206.98 150.462 208.61C148.885 204.406 147.54 200.261 146.427 196.279C134.204 152.513 146.979 109.278 172.214 75.0864C172.2 75.1527 172.19 75.2216 172.185 75.2921C172.147 75.9602 172.627 76.5356 173.258 76.577C175.185 76.7036 177.125 76.959 179.02 77.3372C179.093 77.3512 179.164 77.3578 179.234 77.3578C179.624 77.3578 179.982 77.1445 180.191 76.8054C180.271 76.6764 180.327 76.529 180.356 76.369C180.473 75.7107 180.063 75.0768 179.442 74.9528C177.454 74.5569 175.42 74.288 173.398 74.156C173.374 74.1542 173.35 74.1536 173.324 74.1536C173.141 74.1536 172.966 74.2003 172.811 74.2839C185.981 56.6505 202.465 41.4593 220.526 29.8959C227.941 25.1484 235.624 21.0107 243.451 17.5677C270.283 5.76101 300.53 0.544922 330.609 0.544922C331.335 0.544922 332.063 0.544922 332.79 0.554206C352.039 0.715127 371.181 2.99929 389.278 7.04642C397.631 8.91412 405.912 11.311 414.026 14.2441C443.61 24.9404 470.917 42.7657 490.939 68.0386C506.452 87.619 516.947 110.905 523.195 135.468L454.684 137.717C446.239 137.994 439.527 145.335 439.527 154.295V221.09L406.269 257.165L446.162 245.865L446.07 245.518C446.698 245.674 447.353 245.757 448.025 245.757C448.162 245.757 448.303 245.754 448.444 245.748L521.145 242.006C515.8 256.862 508.175 271.141 498.494 285.514C482.305 309.551 459.883 325.06 439.064 344.105C381.844 396.442 359.24 470.739 358.412 548.667C358.387 551.182 356.447 553.195 354.081 553.195ZM170.954 202.279C170.861 202.279 170.767 202.297 170.675 202.333C170.268 202.498 170.067 202.978 170.221 203.408C174.321 214.788 178.731 221.249 178.916 221.517C179.072 221.74 179.309 221.859 179.551 221.859C179.712 221.859 179.874 221.806 180.014 221.699C180.364 221.427 180.441 220.907 180.184 220.534C180.14 220.471 175.709 213.967 171.689 202.814C171.569 202.483 171.268 202.279 170.954 202.279ZM157.306 185.855C156.368 185.855 155.565 186.609 155.468 187.622C155.27 189.689 154.985 191.771 154.625 193.815C154.436 194.88 155.097 195.906 156.103 196.106C156.22 196.129 156.333 196.139 156.448 196.139C157.081 196.139 157.663 195.795 157.999 195.248C158.126 195.036 158.218 194.8 158.264 194.538C158.645 192.388 158.943 190.192 159.152 188.018C159.256 186.938 158.513 185.975 157.498 185.866C157.431 185.858 157.369 185.855 157.306 185.855ZM164.308 178.299C164.722 181.832 165.277 185.127 165.916 188.171C165.996 188.56 166.321 188.824 166.68 188.824C166.737 188.824 166.793 188.819 166.852 188.805C167.273 188.707 167.542 188.262 167.448 187.811C166.854 184.971 166.333 181.904 165.931 178.628C167.373 178.763 168.83 178.832 170.282 178.832C170.462 178.832 170.643 178.832 170.825 178.828C171.223 178.824 171.569 178.605 171.771 178.276C171.89 178.083 171.958 177.851 171.955 177.602C171.948 176.936 171.439 176.402 170.811 176.402C170.808 176.402 170.804 176.402 170.799 176.402C170.619 176.403 170.442 176.407 170.262 176.407C168.725 176.407 167.18 176.323 165.655 176.165C163.672 156.344 166.301 129.567 183.683 99.7913C187.108 93.9254 190.768 88.3813 194.647 83.1702C194.698 83.5054 194.88 83.816 195.173 84.0092C195.461 84.1983 195.747 84.3897 196.028 84.584C197.364 85.5047 198.671 86.5095 199.913 87.5696C200.126 87.7501 200.378 87.8381 200.63 87.8381C200.964 87.8381 201.294 87.6832 201.523 87.3862C201.547 87.3529 201.568 87.3195 201.591 87.2849C201.905 86.7698 201.809 86.074 201.349 85.6809C200.046 84.5688 198.676 83.5155 197.275 82.55C196.98 82.3469 196.68 82.1464 196.38 81.9482C196.2 81.8301 196.002 81.7762 195.806 81.7762C195.766 81.7762 195.73 81.7781 195.692 81.782C225.708 42.3409 268.834 22.1564 321.754 22.1564C348.092 22.1564 376.859 27.1567 407.638 37.2709C407.717 37.2966 407.794 37.3087 407.87 37.3087C408.204 37.3087 408.516 37.0789 408.62 36.722C408.749 36.2829 408.516 35.8163 408.101 35.6799C377.069 25.4836 348.14 20.3784 321.566 20.3784C302.932 20.3784 285.456 22.8901 269.233 27.9183C232.422 39.3298 203.188 63.2163 182.349 98.9146C164.693 129.159 162.068 156.378 164.112 176.501C163.96 176.683 163.857 176.913 163.831 177.172C163.783 177.628 163.978 178.052 164.308 178.299ZM157.459 172.243C157.41 172.243 157.362 172.243 157.313 172.248C156.295 172.333 155.531 173.274 155.612 174.358C155.686 175.376 155.74 176.403 155.776 177.411C155.813 178.472 156.633 179.304 157.624 179.304C157.648 179.304 157.669 179.304 157.693 179.301C158.32 179.278 158.863 178.926 159.177 178.41C159.379 178.081 159.491 177.687 159.475 177.268C159.439 176.206 159.382 175.126 159.304 174.055C159.226 173.025 158.416 172.243 157.459 172.243ZM182.392 174.771C182.299 174.771 182.203 174.784 182.106 174.81C180.264 175.314 178.377 175.705 176.498 175.97C175.873 176.06 175.432 176.669 175.516 177.332C175.592 177.941 176.084 178.384 176.647 178.384C176.698 178.384 176.748 178.381 176.799 178.374C178.771 178.096 180.749 177.687 182.678 177.157C182.967 177.081 183.2 176.89 183.35 176.646C183.52 176.371 183.583 176.024 183.501 175.682C183.368 175.134 182.902 174.771 182.392 174.771ZM193.262 170.248C193.078 170.248 192.893 170.295 192.721 170.393C191.051 171.349 189.308 172.208 187.541 172.941C186.951 173.185 186.66 173.888 186.893 174.512C187.067 174.99 187.501 175.283 187.957 175.283C188.096 175.283 188.237 175.257 188.374 175.201C190.226 174.429 192.055 173.529 193.807 172.528C193.98 172.429 194.12 172.287 194.222 172.123C194.442 171.763 194.474 171.291 194.27 170.887C194.063 170.479 193.669 170.248 193.262 170.248ZM202.794 163.096C202.52 163.096 202.243 163.199 202.025 163.409C200.614 164.767 199.117 166.043 197.571 167.204C197.054 167.595 196.933 168.349 197.299 168.896C197.523 169.229 197.874 169.408 198.232 169.408C198.461 169.408 198.694 169.336 198.892 169.185C200.514 167.965 202.086 166.629 203.562 165.207C203.635 165.134 203.7 165.052 203.751 164.968C204.027 164.518 203.996 163.907 203.639 163.492C203.414 163.23 203.104 163.096 202.794 163.096ZM210.408 153.708C210.04 153.708 209.679 153.897 209.458 154.249C208.4 155.925 207.24 157.547 206.004 159.07C205.598 159.578 205.647 160.342 206.125 160.779C206.34 160.977 206.608 161.072 206.871 161.072C207.191 161.072 207.511 160.93 207.739 160.65C209.034 159.054 210.251 157.355 211.359 155.596L211.369 155.583C211.707 155.027 211.565 154.282 211.043 153.915C210.85 153.775 210.629 153.708 210.408 153.708ZM215.694 142.658C215.226 142.658 214.788 142.967 214.618 143.455C213.968 145.348 213.202 147.219 212.343 149.016C212.057 149.613 212.282 150.343 212.845 150.644C213.013 150.734 213.19 150.778 213.361 150.778C213.739 150.778 214.105 150.578 214.322 150.224C214.344 150.188 214.363 150.153 214.382 150.112C215.284 148.229 216.087 146.268 216.766 144.286C216.981 143.656 216.676 142.961 216.083 142.732C215.954 142.681 215.822 142.658 215.694 142.658ZM218.316 130.586C217.738 130.586 217.242 131.049 217.178 131.672C216.981 133.674 216.664 135.685 216.237 137.648C216.096 138.3 216.479 138.951 217.095 139.102C217.183 139.123 217.267 139.133 217.352 139.133C217.741 139.133 218.102 138.921 218.31 138.581C218.382 138.465 218.437 138.334 218.468 138.192C218.913 136.134 219.246 134.025 219.452 131.924C219.52 131.258 219.062 130.662 218.434 130.592C218.394 130.588 218.357 130.586 218.316 130.586ZM218.434 121.303C218.402 121.303 218.373 121.304 218.344 121.307C217.717 121.36 217.243 121.943 217.291 122.611C217.363 123.581 217.408 124.575 217.425 125.565C217.437 126.227 217.947 126.755 218.57 126.755C218.577 126.755 218.583 126.755 218.591 126.755C218.984 126.746 219.328 126.528 219.531 126.202C219.649 126.006 219.717 125.771 219.714 125.519C219.694 124.482 219.649 123.44 219.573 122.422C219.524 121.787 219.025 121.303 218.434 121.303ZM205.024 89.665C204.738 89.665 204.449 89.7784 204.228 90.0063C203.771 90.4708 203.763 91.2399 204.202 91.7212C204.843 92.4268 205.477 93.1625 206.081 93.9081C206.306 94.1876 206.626 94.3311 206.949 94.3311C207.213 94.3311 207.477 94.235 207.694 94.0391C207.778 93.9612 207.848 93.8733 207.907 93.7786C208.175 93.3387 208.154 92.7468 207.816 92.3282C207.184 91.5469 206.52 90.775 205.845 90.0346C205.62 89.7887 205.322 89.665 205.024 89.665ZM185.002 76.4812C184.517 76.4812 184.069 76.8112 183.913 77.3238C183.719 77.9619 184.049 78.6437 184.653 78.8486C186.488 79.4729 188.306 80.2262 190.061 81.0869C190.217 81.1631 190.379 81.1991 190.539 81.1991C190.921 81.1991 191.284 80.9978 191.5 80.6484C191.529 80.6004 191.556 80.5492 191.58 80.4963C191.843 79.8876 191.594 79.1669 191.022 78.8856C189.182 77.9826 187.273 77.1933 185.35 76.5392C185.235 76.5 185.119 76.4812 185.002 76.4812Z" fill="#EA409A"/>
<path fill-rule="evenodd" clip-rule="evenodd" d="M357.239 606.382C357.207 606.116 357.057 605.872 356.814 605.742C350.32 602.25 343.314 600.479 335.984 600.479C335.55 600.479 335.199 600.85 335.199 601.311C335.199 601.346 335.201 601.381 335.205 601.414C335.251 601.828 335.583 602.149 335.986 602.149C343.065 602.149 349.835 603.859 356.104 607.232C356.218 607.294 356.34 607.321 356.458 607.321C356.744 607.321 357.021 607.155 357.159 606.864C357.233 606.711 357.257 606.541 357.239 606.382ZM291.855 655.756C293.553 668.986 300.474 680.93 311.084 688.531C311.278 688.67 311.394 688.883 311.423 689.111C311.45 689.31 311.411 689.518 311.296 689.696C311.146 689.932 310.898 690.061 310.647 690.061C310.494 690.061 310.341 690.015 310.208 689.919C299.227 682.052 292.064 669.693 290.303 656.003C290.023 653.821 289.879 651.604 289.879 649.368C289.879 631.334 299.194 614.822 314.185 606.276C314.303 606.209 314.432 606.175 314.559 606.175C314.837 606.175 315.107 606.334 315.249 606.615C315.296 606.706 315.324 606.802 315.337 606.898C315.382 607.234 315.229 607.58 314.931 607.75C300.447 616.004 291.448 631.956 291.448 649.376C291.448 651.526 291.586 653.658 291.855 655.756ZM326.954 713.56C329.903 714.023 332.916 714.262 335.986 714.262C369.779 714.262 397.171 685.212 397.171 649.376C397.171 619.079 377.59 593.632 351.115 586.491C346.275 585.185 341.208 584.491 335.986 584.491C302.191 584.491 274.799 613.542 274.799 649.376C274.799 681.956 297.444 708.93 326.954 713.56Z" fill="#EA409A"/>
<path fill-rule="evenodd" clip-rule="evenodd" d="M110.098 109.648C109.901 109.184 109.874 108.639 110.063 108.126C110.352 107.351 111.049 106.879 111.787 106.879C112.012 106.879 112.241 106.923 112.463 107.015C112.476 107.02 112.489 107.026 112.503 107.031C111.691 107.906 110.891 108.778 110.098 109.648Z" fill="#FAC3F9"/>
<path fill-rule="evenodd" clip-rule="evenodd" d="M151.872 212.236C151.385 211.023 150.911 209.813 150.46 208.606C151.099 206.975 151.687 205.312 152.214 203.649C152.468 202.827 153.193 202.307 153.969 202.307C154.162 202.307 154.362 202.34 154.556 202.41C155.526 202.754 156.049 203.868 155.724 204.895C155.07 206.969 154.323 209.037 153.506 211.051C153.462 211.155 153.414 211.254 153.356 211.344C153.023 211.888 152.463 212.213 151.872 212.236ZM156.447 196.136C156.333 196.136 156.218 196.126 156.102 196.103C155.096 195.903 154.435 194.877 154.624 193.812C154.985 191.768 155.268 189.686 155.467 187.618C155.565 186.605 156.367 185.852 157.305 185.852C157.368 185.852 157.432 185.854 157.497 185.862C158.512 185.973 159.255 186.934 159.15 188.013C158.942 190.189 158.644 192.385 158.262 194.535C158.217 194.797 158.125 195.033 157.999 195.243C157.662 195.792 157.079 196.136 156.447 196.136Z" fill="#FAC3F9"/>
<path fill-rule="evenodd" clip-rule="evenodd" d="M37.136 238.716C36.6933 238.716 36.2491 238.547 35.895 238.206C35.1494 237.493 34.4055 236.749 33.6839 235.998C32.9548 235.237 32.9411 233.998 33.6604 233.222C34.0231 232.832 34.502 232.633 34.9816 232.633C35.4497 232.633 35.9184 232.82 36.2789 233.196C36.9639 233.911 37.6709 234.615 38.3788 235.294C39.0628 235.949 39.1777 237.024 38.6906 237.819C38.6378 237.907 38.5779 237.988 38.5106 238.068C38.1449 238.498 37.6416 238.716 37.136 238.716Z" fill="#FAC3F9"/>
<path fill-rule="evenodd" clip-rule="evenodd" d="M14.2431 170.602C14.151 170.602 14.0578 170.594 13.9643 170.579C12.9529 170.416 12.2569 169.416 12.4091 168.344C12.7219 166.149 13.1296 163.935 13.6207 161.771C13.8248 160.87 14.5832 160.266 15.4192 160.266C15.5628 160.266 15.7085 160.284 15.8542 160.319C16.8477 160.575 17.4603 161.634 17.2209 162.688C16.755 164.745 16.3683 166.846 16.0714 168.931C16.0309 169.216 15.9338 169.478 15.7943 169.708C15.4592 170.252 14.8785 170.602 14.2431 170.602Z" fill="#FAC3F9"/>
<path fill-rule="evenodd" clip-rule="evenodd" d="M18.4315 154.078C18.2054 154.078 17.9758 154.034 17.7531 153.941C16.8018 153.542 16.3346 152.404 16.7095 151.394C17.4784 149.329 18.3412 147.27 19.2732 145.275C19.5935 144.583 20.2496 144.184 20.9313 144.184C21.2085 144.184 21.4901 144.249 21.755 144.39C22.6707 144.871 23.0453 146.049 22.5913 147.021C21.705 148.915 20.885 150.871 20.1551 152.836C20.1085 152.963 20.0505 153.078 19.9838 153.186C19.6398 153.749 19.0496 154.078 18.4315 154.078Z" fill="#FAC3F9"/>
<path fill-rule="evenodd" clip-rule="evenodd" d="M25.9768 138.952C25.6183 138.952 25.2559 138.842 24.9369 138.611C24.1027 138.01 23.8782 136.812 24.4254 135.919L24.4475 135.884C25.6272 134.043 26.8954 132.237 28.2162 130.514C28.5825 130.037 29.116 129.789 29.6543 129.789C30.0651 129.789 30.4779 129.933 30.8215 130.229C31.5625 130.868 31.7162 131.99 31.207 132.82C31.1714 132.879 31.1321 132.936 31.0905 132.991C29.8354 134.628 28.6304 136.344 27.5094 138.092C27.1513 138.651 26.5691 138.952 25.9768 138.952Z" fill="#FAC3F9"/>
<path fill-rule="evenodd" clip-rule="evenodd" d="M36.4855 125.98C35.9888 125.98 35.4932 125.769 35.1286 125.353C34.4322 124.558 34.4794 123.319 35.2255 122.578C36.7611 121.065 38.3781 119.605 40.0309 118.238C40.3689 117.959 40.7702 117.823 41.1683 117.823C41.7194 117.823 42.2645 118.083 42.6296 118.579C43.1288 119.257 43.1414 120.174 42.7228 120.857C42.6138 121.035 42.4749 121.196 42.3084 121.335C40.7392 122.633 39.2037 124.019 37.7456 125.455C37.389 125.806 36.9368 125.98 36.4855 125.98Z" fill="#FAC3F9"/>
<path fill-rule="evenodd" clip-rule="evenodd" d="M131.006 122.655C130.597 122.655 130.184 122.511 129.84 122.217C128.297 120.891 126.676 119.617 125.022 118.429C124.185 117.828 123.959 116.629 124.508 115.734L124.527 115.702C124.885 115.141 125.468 114.839 126.062 114.839C126.419 114.839 126.781 114.949 127.099 115.178C128.839 116.428 130.546 117.769 132.173 119.165C132.914 119.803 133.07 120.927 132.561 121.759C132.524 121.816 132.488 121.872 132.447 121.926C132.08 122.406 131.545 122.655 131.006 122.655Z" fill="#FAC3F9"/>
<path fill-rule="evenodd" clip-rule="evenodd" d="M49.4562 115.833C48.816 115.833 48.1933 115.48 47.8508 114.85C47.3396 113.91 47.6432 112.71 48.5293 112.168C50.3452 111.057 52.2287 110.015 54.1268 109.072C54.3808 108.946 54.648 108.886 54.9111 108.886C55.6071 108.886 56.2739 109.304 56.5891 110.017C56.8711 110.655 56.8009 111.372 56.464 111.922C56.2819 112.219 56.0227 112.467 55.6978 112.628C53.8944 113.524 52.1056 114.514 50.3799 115.57C50.0883 115.748 49.7703 115.833 49.4562 115.833Z" fill="#FAC3F9"/>
<path fill-rule="evenodd" clip-rule="evenodd" d="M117.416 113.437C117.141 113.437 116.862 113.372 116.598 113.234C114.808 112.297 112.963 111.432 111.113 110.663C110.644 110.468 110.292 110.092 110.101 109.641C110.893 108.77 111.693 107.898 112.505 107.023C114.438 107.828 116.366 108.733 118.237 109.712C119.154 110.192 119.531 111.37 119.078 112.342C119.045 112.413 119.009 112.481 118.969 112.545C118.621 113.113 118.029 113.437 117.416 113.437Z" fill="#FAC3F9"/>
<path fill-rule="evenodd" clip-rule="evenodd" d="M64.2364 108.99C63.4455 108.99 62.7136 108.449 62.4677 107.606C62.1653 106.569 62.7131 105.469 63.6904 105.15C65.6962 104.492 67.7504 103.919 69.7944 103.445C69.9279 103.414 70.061 103.399 70.1922 103.399C71.0432 103.399 71.8096 104.025 71.9984 104.944C72.1087 105.477 72.0028 106.008 71.7424 106.433C71.4861 106.851 71.081 107.166 70.5851 107.281C68.6425 107.732 66.6906 108.276 64.7839 108.902C64.6018 108.962 64.4175 108.99 64.2364 108.99Z" fill="#FAC3F9"/>
<path fill-rule="evenodd" clip-rule="evenodd" d="M102.252 107.628C102.11 107.628 101.966 107.611 101.821 107.574C99.8849 107.084 97.905 106.678 95.9351 106.367C94.924 106.207 94.226 105.207 94.377 104.135C94.515 103.161 95.3048 102.461 96.2071 102.461C96.2977 102.461 96.3891 102.468 96.4815 102.482C98.556 102.81 100.641 103.239 102.681 103.754C103.675 104.006 104.289 105.065 104.052 106.12C104.002 106.345 103.917 106.552 103.804 106.735C103.466 107.286 102.881 107.628 102.252 107.628Z" fill="#FAC3F9"/>
<path fill-rule="evenodd" clip-rule="evenodd" d="M80.0809 105.779C79.1228 105.779 78.3113 104.996 78.2364 103.966C78.1585 102.885 78.9216 101.942 79.9401 101.857C81.8269 101.704 83.7409 101.625 85.638 101.625C85.843 101.625 86.0471 101.626 86.2515 101.628C87.2742 101.638 88.0963 102.524 88.0872 103.609C88.084 103.996 87.9754 104.357 87.7896 104.66C87.4589 105.2 86.8855 105.556 86.2355 105.556C86.2305 105.556 86.2255 105.556 86.2205 105.556C86.0193 105.554 85.8174 105.553 85.6158 105.553C83.8198 105.553 82.0097 105.627 80.225 105.773C80.1767 105.777 80.1287 105.779 80.0809 105.779Z" fill="#FAC3F9"/>
<path fill-rule="evenodd" clip-rule="evenodd" d="M13.4709 184.365C12.4762 184.365 11.6532 183.528 11.622 182.466C11.5907 181.399 11.5792 180.316 11.5887 179.246C11.5964 178.166 12.4247 177.299 13.4391 177.299H13.4573C14.4798 177.311 15.3011 178.197 15.2915 179.282C15.283 180.299 15.2931 181.329 15.3237 182.342C15.3361 182.759 15.2251 183.147 15.0263 183.471C14.7072 183.992 14.1607 184.345 13.5303 184.365C13.5104 184.365 13.4907 184.365 13.4709 184.365Z" fill="#FAC3F9"/>
<path fill-rule="evenodd" clip-rule="evenodd" d="M90.0416 258.358C89.072 258.358 88.2578 257.56 88.1955 256.517C88.1307 255.436 88.9059 254.502 89.9262 254.436C91.8799 254.304 93.8547 254.082 95.7965 253.776C95.8884 253.765 95.9795 253.757 96.0695 253.757C96.9724 253.757 97.763 254.459 97.8989 255.433C97.9677 255.926 97.8576 256.402 97.6202 256.791C97.3413 257.245 96.8854 257.578 96.3384 257.662C94.2952 257.983 92.2164 258.214 90.1604 258.353C90.1206 258.356 90.0808 258.358 90.0416 258.358ZM80.2046 258.304C80.1591 258.304 80.1131 258.302 80.0669 258.297C78.0073 258.138 75.9301 257.881 73.8938 257.535C72.8837 257.366 72.1956 256.358 72.3569 255.289C72.5021 254.322 73.2896 253.633 74.1838 253.633C74.2808 253.633 74.3787 253.641 74.4775 253.659C76.4108 253.985 78.3828 254.229 80.3396 254.38C81.3595 254.46 82.1249 255.402 82.0497 256.485C82.0258 256.827 81.9213 257.139 81.7567 257.407C81.4244 257.949 80.8479 258.304 80.2046 258.304ZM105.679 255.459C104.876 255.459 104.137 254.903 103.902 254.045C103.616 253.001 104.181 251.91 105.164 251.61C107.044 251.032 108.926 250.357 110.757 249.615C110.975 249.523 111.2 249.483 111.42 249.483C112.165 249.483 112.867 249.963 113.149 250.743C113.37 251.354 113.284 252.01 112.972 252.52C112.766 252.854 112.463 253.126 112.083 253.281C110.156 254.064 108.176 254.771 106.197 255.38C106.025 255.433 105.85 255.459 105.679 255.459ZM64.594 255.211C64.415 255.211 64.2332 255.183 64.053 255.125C62.0823 254.489 60.1114 253.753 58.1938 252.941C57.2443 252.538 56.7818 251.396 57.1617 250.388C57.4507 249.621 58.1473 249.154 58.8832 249.154C59.1113 249.154 59.3433 249.198 59.5681 249.292C61.3896 250.067 63.2615 250.763 65.1332 251.367C66.1113 251.683 66.6626 252.783 66.3644 253.82C66.3125 254.001 66.2382 254.167 66.1461 254.317C65.8055 254.874 65.2181 255.211 64.594 255.211ZM120.343 249.023C119.689 249.023 119.056 248.655 118.719 248.005C118.226 247.053 118.553 245.86 119.45 245.339C121.17 244.336 122.868 243.246 124.496 242.096C124.811 241.875 125.167 241.769 125.519 241.769C126.119 241.769 126.706 242.075 127.063 242.647C127.485 243.319 127.464 244.166 127.073 244.803C126.94 245.022 126.763 245.215 126.546 245.367C124.831 246.577 123.044 247.724 121.233 248.779C120.95 248.944 120.644 249.023 120.343 249.023ZM50.0134 248.562C49.7043 248.562 49.3908 248.481 49.1028 248.308C47.7819 247.513 46.4672 246.668 45.1968 245.79C44.7366 245.474 44.2812 245.153 43.8298 244.826C42.9852 244.217 42.7429 242.995 43.3425 242.1C43.7006 241.541 44.2823 241.24 44.874 241.24C45.2331 241.24 45.5958 241.35 45.9151 241.582C46.3439 241.891 46.7773 242.199 47.2147 242.5C48.4229 243.332 49.6715 244.135 50.9275 244.891C51.8173 245.425 52.13 246.624 51.6259 247.567C51.607 247.601 51.5874 247.637 51.5665 247.67C51.2157 248.243 50.6226 248.562 50.0134 248.562ZM133.316 239.347C132.803 239.347 132.294 239.122 131.928 238.684C131.251 237.871 131.324 236.63 132.087 235.912C133.56 234.534 134.99 233.075 136.341 231.574C136.704 231.169 137.191 230.965 137.678 230.965C138.139 230.965 138.599 231.146 138.959 231.511C139.613 232.172 139.708 233.221 139.233 233.996C139.173 234.101 139.099 234.195 139.02 234.285C137.596 235.866 136.091 237.404 134.542 238.853C134.189 239.182 133.751 239.347 133.316 239.347ZM143.969 226.876C143.592 226.876 143.214 226.755 142.884 226.503C142.058 225.867 141.87 224.641 142.468 223.761C143.607 222.087 144.698 220.336 145.72 218.536C146.065 217.926 146.678 217.585 147.309 217.585C147.634 217.585 147.964 217.678 148.264 217.869C149.14 218.429 149.421 219.634 148.891 220.562C148.448 221.344 147.994 222.113 147.531 222.869C146.87 223.952 146.177 225.024 145.471 226.06C145.109 226.592 144.542 226.876 143.969 226.876ZM151.804 212.233C151.559 212.233 151.312 212.181 151.071 212.073C150.133 211.643 149.699 210.489 150.105 209.492C150.226 209.195 150.344 208.901 150.46 208.603C150.911 209.808 151.385 211.02 151.872 212.233C151.851 212.233 151.828 212.233 151.804 212.233Z" fill="#FAC3F9"/>
<path fill-rule="evenodd" clip-rule="evenodd" d="M157.621 179.293C156.63 179.293 155.81 178.461 155.774 177.402C155.737 176.394 155.684 175.364 155.609 174.346C155.529 173.265 156.293 172.323 157.311 172.239C157.359 172.234 157.408 172.234 157.456 172.234C158.415 172.234 159.225 173.016 159.302 174.043C159.379 175.115 159.438 176.195 159.474 177.257C159.488 177.676 159.377 178.07 159.176 178.399C158.86 178.915 158.317 179.268 157.692 179.291C157.668 179.293 157.645 179.293 157.621 179.293Z" fill="#FAC3F9"/>
<path fill-rule="evenodd" clip-rule="evenodd" d="M135.953 155.464C135.841 155.091 135.518 154.834 135.148 154.826L124.618 154.58C122.089 150.106 118.868 146.029 115.014 142.55L116.517 131.501C116.57 131.113 116.385 130.733 116.056 130.553L104.823 124.423C104.494 124.243 104.095 124.305 103.828 124.575L96.2234 132.293C91.3128 130.99 86.3116 130.581 81.4084 130.998L75.1 122.053C74.8788 121.739 74.4943 121.609 74.143 121.729L62.1111 125.817C61.7598 125.937 61.518 126.28 61.5102 126.671L61.2788 137.838C57.06 140.52 53.2145 143.936 49.9326 148.023L39.5143 146.43C39.1486 146.373 38.7901 146.568 38.6211 146.918L32.8395 158.829C32.6705 159.18 32.7285 159.601 32.9838 159.883L40.2618 167.949C39.0328 173.156 38.6468 178.461 39.04 183.66L30.6053 190.349C30.3097 190.584 30.1865 190.992 30.2995 191.365L34.1546 204.122C34.2671 204.495 34.5908 204.752 34.9595 204.76L45.4903 205.006C48.0198 209.48 51.2405 213.559 55.0945 217.038L53.5918 228.086C53.5388 228.473 53.7238 228.854 54.0521 229.034L65.2861 235.164C65.6144 235.343 66.0137 235.282 66.2804 235.011L73.8853 227.294C78.796 228.597 83.7974 229.006 88.7005 228.589L95.0087 237.534C95.2299 237.848 95.6142 237.979 95.9659 237.858L107.997 233.77C108.349 233.651 108.59 233.308 108.599 232.917L108.83 221.75C113.049 219.066 116.894 215.652 120.176 211.564L130.595 213.158C130.959 213.214 131.318 213.018 131.487 212.67L137.27 200.757C137.437 200.407 137.381 199.985 137.124 199.703L129.846 191.637C131.075 186.43 131.461 181.127 131.068 175.928L139.503 169.237C139.799 169.004 139.923 168.595 139.808 168.222L135.953 155.464Z" fill="#FAC3F9"/>
<path fill-rule="evenodd" clip-rule="evenodd" d="M94.5797 188.697C89.9485 194.266 81.9081 194.804 76.6548 189.89C74.11 187.512 72.5915 184.226 72.379 180.635C72.1658 177.045 73.2832 173.581 75.5277 170.885C80.1591 165.313 88.1994 164.777 93.4524 169.69C98.2313 174.157 99.0811 181.617 95.7078 187.121C95.3735 187.666 94.9969 188.194 94.5797 188.697Z" fill="#F2DFF2"/>
<path fill-rule="evenodd" clip-rule="evenodd" d="M110.947 197.952C111.527 197.007 112.064 196.026 112.558 195.009C112.713 194.689 112.863 194.368 113.009 194.041C113.726 192.44 114.322 190.779 114.788 189.085L114.807 189.015C114.825 188.951 114.842 188.884 114.859 188.819C114.894 188.691 114.927 188.564 114.959 188.435C115.045 188.098 114.911 187.752 114.649 187.573C114.585 187.529 114.514 187.495 114.437 187.472C114.042 187.36 113.636 187.609 113.529 188.028C112.982 190.183 112.212 192.29 111.24 194.292C106.418 204.229 97.2736 210.301 87.4835 211.26C82.0382 211.796 76.393 210.746 71.1806 207.903C70.2662 207.403 69.3825 206.859 68.5327 206.273C62.8103 202.328 58.5765 196.466 56.4662 189.481C54.0414 181.459 54.7085 172.913 58.3443 165.422C65.8545 149.951 83.8214 143.851 98.4042 151.809C99.3034 152.299 100.176 152.837 101.018 153.418C104.668 155.935 107.758 159.27 110.056 163.196C110.115 163.297 110.193 163.378 110.282 163.44C110.514 163.6 110.824 163.616 111.076 163.448C111.423 163.22 111.531 162.736 111.314 162.365C108.902 158.244 105.658 154.742 101.826 152.102C100.942 151.493 100.026 150.926 99.0825 150.413C83.7719 142.057 64.9043 148.472 57.0272 164.702C53.21 172.568 52.51 181.535 55.0553 189.961C57.2706 197.294 61.7156 203.447 67.7229 207.589C68.6154 208.203 69.5432 208.775 70.5022 209.299C77.9191 213.348 86.3782 214.089 94.3209 211.392C101.238 209.042 107.042 204.327 110.947 197.952Z" fill="#F2DFF2"/>
<path fill-rule="evenodd" clip-rule="evenodd" d="M194.648 83.1654C194.606 82.8875 194.656 82.5925 194.806 82.3344C195.007 82.0189 195.341 81.8138 195.692 81.7773C195.341 82.2393 194.998 82.6982 194.648 83.1654Z" fill="#FDAB76"/>
<path fill-rule="evenodd" clip-rule="evenodd" d="M165.929 178.618C165.566 178.584 165.203 178.547 164.842 178.503C164.642 178.48 164.46 178.405 164.308 178.289C164.239 177.698 164.171 177.095 164.111 176.491C164.323 176.24 164.633 176.085 164.967 176.085C165.008 176.085 165.05 176.089 165.093 176.09C165.28 176.113 165.469 176.134 165.655 176.155C165.74 176.988 165.832 177.81 165.929 178.618Z" fill="#FAC3F9"/>
<path fill-rule="evenodd" clip-rule="evenodd" d="M176.648 178.372C176.085 178.372 175.594 177.929 175.518 177.32C175.433 176.657 175.874 176.048 176.5 175.957C178.379 175.693 180.265 175.302 182.108 174.797C182.205 174.773 182.299 174.76 182.394 174.76C182.902 174.76 183.368 175.121 183.501 175.67C183.585 176.011 183.521 176.359 183.352 176.633C183.202 176.877 182.969 177.068 182.68 177.146C180.75 177.675 178.772 178.084 176.801 178.361C176.749 178.369 176.698 178.372 176.648 178.372ZM187.958 175.271C187.503 175.271 187.069 174.978 186.893 174.499C186.66 173.877 186.952 173.173 187.541 172.929C189.308 172.196 191.052 171.338 192.722 170.38C192.895 170.282 193.079 170.237 193.263 170.237C193.671 170.237 194.063 170.468 194.272 170.874C194.476 171.277 194.444 171.751 194.223 172.111C194.122 172.276 193.981 172.418 193.809 172.517C192.055 173.517 190.228 174.418 188.374 175.188C188.237 175.245 188.096 175.271 187.958 175.271ZM198.234 169.396C197.875 169.396 197.523 169.215 197.3 168.885C196.934 168.336 197.055 167.583 197.571 167.193C199.119 166.03 200.614 164.754 202.025 163.398C202.243 163.187 202.52 163.083 202.794 163.083C203.104 163.083 203.415 163.217 203.641 163.479C203.996 163.896 204.028 164.505 203.751 164.956C203.701 165.041 203.635 165.122 203.562 165.194C202.086 166.616 200.515 167.953 198.893 169.171C198.694 169.325 198.461 169.396 198.234 169.396ZM206.872 161.06C206.608 161.06 206.341 160.966 206.125 160.767C205.648 160.331 205.599 159.567 206.004 159.057C207.24 157.536 208.402 155.913 209.459 154.237C209.68 153.884 210.04 153.697 210.409 153.697C210.63 153.697 210.851 153.763 211.045 153.902C211.567 154.27 211.709 155.016 211.37 155.571L211.36 155.584C210.252 157.342 209.034 159.042 207.741 160.638C207.512 160.919 207.192 161.06 206.872 161.06ZM213.363 150.765C213.19 150.765 213.013 150.723 212.847 150.631C212.284 150.332 212.058 149.6 212.344 149.004C213.202 147.208 213.969 145.335 214.618 143.443C214.788 142.955 215.226 142.646 215.695 142.646C215.824 142.646 215.954 142.669 216.083 142.721C216.677 142.95 216.983 143.644 216.767 144.274C216.087 146.257 215.285 148.218 214.384 150.1C214.364 150.141 214.344 150.177 214.323 150.213C214.107 150.565 213.741 150.765 213.363 150.765ZM217.354 139.121C217.269 139.121 217.184 139.111 217.096 139.09C216.481 138.94 216.098 138.288 216.239 137.636C216.665 135.673 216.983 133.662 217.18 131.66C217.242 131.037 217.739 130.574 218.316 130.574C218.357 130.574 218.396 130.576 218.435 130.58C219.063 130.65 219.522 131.246 219.453 131.912C219.248 134.013 218.915 136.122 218.469 138.18C218.437 138.323 218.384 138.453 218.311 138.569C218.102 138.91 217.741 139.121 217.354 139.121Z" fill="#FAC3F9"/>
<path fill-rule="evenodd" clip-rule="evenodd" d="M206.948 94.3156C206.626 94.3156 206.305 94.1721 206.08 93.8927C205.476 93.147 204.844 92.4111 204.201 91.7056C203.762 91.2243 203.769 90.4553 204.228 89.9906C204.449 89.7629 204.736 89.6494 205.022 89.6494C205.32 89.6494 205.62 89.7732 205.845 90.019C206.518 90.7594 207.182 91.5313 207.816 92.3126C208.152 92.7312 208.175 93.3231 207.906 93.763C207.847 93.8576 207.777 93.9456 207.692 94.0234C207.476 94.2194 207.213 94.3156 206.948 94.3156Z" fill="#FAC3F9"/>
<path fill-rule="evenodd" clip-rule="evenodd" d="M125.875 107.72C125.726 107.72 125.575 107.688 125.43 107.623C124.848 107.362 124.577 106.651 124.823 106.034C125.504 104.326 126.286 102.629 127.143 100.993C127.272 100.744 127.404 100.498 127.537 100.252C127.736 99.8606 128.122 99.6446 128.52 99.6446C128.718 99.6446 128.919 99.6984 129.101 99.8103C129.646 100.145 129.833 100.887 129.518 101.468C129.392 101.697 129.268 101.929 129.145 102.167C128.324 103.732 127.579 105.351 126.929 106.979C126.902 107.046 126.87 107.11 126.834 107.169C126.621 107.517 126.256 107.72 125.875 107.72ZM131.804 96.8095C131.567 96.8095 131.324 96.73 131.118 96.565C130.614 96.1624 130.519 95.4087 130.893 94.866C132.115 93.1477 133.445 91.4971 134.849 89.9604C135.074 89.7148 135.374 89.5913 135.672 89.5913C135.958 89.5913 136.247 89.705 136.466 89.933C136.867 90.343 136.923 90.987 136.631 91.4637C136.59 91.5282 136.545 91.59 136.493 91.6474C135.155 93.1128 133.885 94.687 132.721 96.3272C132.495 96.6428 132.151 96.8095 131.804 96.8095Z" fill="#FAC3F9"/>
<path fill-rule="evenodd" clip-rule="evenodd" d="M200.63 87.8231C200.379 87.8231 200.127 87.7352 199.913 87.5547C198.673 86.4947 197.366 85.4899 196.03 84.5692C195.748 84.3747 195.462 84.1835 195.173 83.9943C194.88 83.8011 194.698 83.4905 194.647 83.1553C194.996 82.6882 195.341 82.2292 195.692 81.7671C195.732 81.7633 195.768 81.7612 195.806 81.7612C196.003 81.7612 196.202 81.8153 196.381 81.9332C196.682 82.1314 196.98 82.3319 197.275 82.5352C198.677 83.5006 200.046 84.5539 201.349 85.666C201.809 86.059 201.906 86.7548 201.591 87.2702C201.57 87.3045 201.547 87.3379 201.523 87.3713C201.296 87.6684 200.966 87.8231 200.63 87.8231Z" fill="#FAC3F9"/>
<path fill-rule="evenodd" clip-rule="evenodd" d="M140.068 87.7663C139.734 87.7663 139.401 87.6116 139.176 87.3139C138.781 86.7917 138.858 86.0309 139.35 85.6082C140.925 84.265 142.596 83.0122 144.318 81.8839C144.507 81.7614 144.713 81.7031 144.92 81.7031C145.303 81.7031 145.677 81.9074 145.891 82.2782C146.132 82.6906 146.112 83.1962 145.879 83.577C145.79 83.7228 145.67 83.8508 145.521 83.948C143.879 85.0232 142.286 86.2175 140.784 87.4987C140.572 87.6787 140.319 87.7663 140.068 87.7663Z" fill="#FAC3F9"/>
<path fill-rule="evenodd" clip-rule="evenodd" d="M190.541 81.1834C190.381 81.1834 190.219 81.1474 190.063 81.071C188.308 80.2105 186.489 79.4572 184.654 78.8329C184.051 78.628 183.721 77.946 183.915 77.3079C184.07 76.7955 184.518 76.4653 185.004 76.4653C185.12 76.4653 185.235 76.4842 185.352 76.5235C187.275 77.1776 189.184 77.9669 191.024 78.8699C191.595 79.1511 191.845 79.8719 191.582 80.4804C191.556 80.5333 191.53 80.5846 191.502 80.6327C191.285 80.982 190.922 81.1834 190.541 81.1834Z" fill="#FAC3F9"/>
<path fill-rule="evenodd" clip-rule="evenodd" d="M150.162 81.1554C149.731 81.1554 149.316 80.893 149.123 80.4479C148.86 79.8387 149.109 79.1183 149.684 78.84C151.522 77.9463 153.433 77.1635 155.363 76.5128C155.477 76.4741 155.593 76.4558 155.707 76.4558C156.194 76.4558 156.643 76.7851 156.798 77.3008C156.905 77.6616 156.846 78.0362 156.668 78.33C156.528 78.5571 156.315 78.7364 156.053 78.825C154.214 79.4454 152.392 80.1923 150.637 81.045C150.484 81.1199 150.323 81.1554 150.162 81.1554ZM172.215 75.073C172.296 74.7187 172.519 74.4287 172.813 74.2705C172.613 74.5376 172.415 74.8046 172.215 75.073Z" fill="#FAC3F9"/>
<path fill-rule="evenodd" clip-rule="evenodd" d="M179.234 77.346C179.162 77.346 179.093 77.3393 179.02 77.3252C177.123 76.947 175.184 76.6916 173.256 76.5652C172.625 76.5237 172.146 75.9484 172.185 75.2801C172.19 75.2096 172.199 75.1407 172.214 75.0744C172.412 74.806 172.612 74.539 172.81 74.2719C172.966 74.1883 173.14 74.1416 173.324 74.1416C173.349 74.1416 173.373 74.1424 173.397 74.1442C175.42 74.276 177.453 74.545 179.441 74.941C180.063 75.0649 180.473 75.6987 180.356 76.357C180.326 76.517 180.271 76.6644 180.191 76.7934C179.982 77.1326 179.624 77.346 179.234 77.346Z" fill="#FAC3F9"/>
<path fill-rule="evenodd" clip-rule="evenodd" d="M161.475 77.3408C160.937 77.3408 160.456 76.9341 160.353 76.3515C160.238 75.6948 160.645 75.0597 161.267 74.9358C163.252 74.541 165.286 74.2735 167.308 74.1401C167.332 74.1385 167.356 74.1377 167.382 74.1377C167.979 74.1377 168.485 74.6332 168.521 75.276C168.535 75.5454 168.466 75.8 168.339 76.0106C168.147 76.3219 167.827 76.5367 167.448 76.5613C165.521 76.688 163.581 76.9431 161.689 77.3201C161.618 77.3341 161.545 77.3408 161.475 77.3408Z" fill="#FAC3F9"/>
<path fill-rule="evenodd" clip-rule="evenodd" d="M170.283 178.817C168.831 178.817 167.374 178.75 165.931 178.614C165.834 177.806 165.742 176.983 165.657 176.151C167.182 176.31 168.727 176.392 170.264 176.392C170.444 176.392 170.621 176.39 170.799 176.387H170.811C171.441 176.387 171.949 176.921 171.957 177.587C171.96 177.837 171.892 178.068 171.772 178.262C171.571 178.591 171.224 178.809 170.827 178.814C170.645 178.817 170.463 178.817 170.283 178.817ZM164.309 178.285C163.979 178.039 163.784 177.613 163.833 177.159C163.858 176.898 163.961 176.67 164.114 176.488C164.174 177.092 164.241 177.693 164.309 178.285Z" fill="#FAC3F9"/>
<path fill-rule="evenodd" clip-rule="evenodd" d="M218.568 126.743C217.945 126.743 217.437 126.215 217.425 125.553C217.408 124.562 217.361 123.568 217.292 122.598C217.243 121.93 217.715 121.348 218.343 121.295C218.372 121.292 218.402 121.291 218.432 121.291C219.024 121.291 219.524 121.775 219.573 122.41C219.647 123.428 219.694 124.47 219.714 125.507C219.715 125.759 219.647 125.994 219.529 126.19C219.328 126.516 218.983 126.734 218.591 126.743C218.583 126.743 218.576 126.743 218.568 126.743Z" fill="#FAC3F9"/>
<path fill-rule="evenodd" clip-rule="evenodd" d="M204.043 109.968C203.966 109.719 203.75 109.548 203.503 109.542L196.456 109.378C194.765 106.384 192.609 103.655 190.03 101.326L191.036 93.9334C191.072 93.6741 190.948 93.4197 190.729 93.2996L183.211 89.1973C182.992 89.0771 182.724 89.1183 182.545 89.2992L177.456 94.4639C174.17 93.5918 170.825 93.3179 167.542 93.5969L163.321 87.6117C163.173 87.4017 162.916 87.3146 162.68 87.3946L154.631 90.1302C154.395 90.21 154.234 90.4395 154.229 90.7016L154.073 98.174C151.252 99.9689 148.677 102.254 146.48 104.989L139.509 103.923C139.264 103.885 139.025 104.017 138.913 104.25L135.043 112.221C134.929 112.454 134.969 112.737 135.139 112.927L140.008 118.323C139.186 121.808 138.929 125.357 139.191 128.836L133.546 133.312C133.351 133.469 133.268 133.742 133.344 133.992L135.923 142.53C135.999 142.779 136.214 142.949 136.462 142.957L143.507 143.119C145.202 146.115 147.354 148.841 149.935 151.172L148.928 158.563C148.895 158.824 149.019 159.078 149.236 159.199L156.755 163.3C156.973 163.42 157.243 163.38 157.42 163.199L162.509 158.034C165.793 158.905 169.141 159.181 172.423 158.901L176.644 164.886C176.792 165.096 177.049 165.184 177.284 165.101L185.335 162.367C185.571 162.287 185.732 162.057 185.738 161.795L185.893 154.324C188.715 152.529 191.288 150.244 193.485 147.507L200.455 148.574C200.7 148.613 200.941 148.481 201.054 148.248L204.921 140.277C205.036 140.044 204.997 139.76 204.827 139.571L199.956 134.174C200.777 130.69 201.037 127.141 200.773 123.662L206.417 119.185C206.615 119.028 206.699 118.755 206.623 118.506L204.043 109.968Z" fill="#FAC3F9"/>
<path fill-rule="evenodd" clip-rule="evenodd" d="M176.473 132.328C174.946 134.167 172.834 135.263 170.529 135.417C168.221 135.571 165.996 134.764 164.262 133.142C160.687 129.798 160.342 123.999 163.494 120.194C166.651 116.401 172.128 116.036 175.704 119.38C177.438 121.001 178.473 123.24 178.618 125.685C178.734 127.673 178.255 129.604 177.249 131.245C177.019 131.622 176.759 131.984 176.473 132.328Z" fill="#F2DFF2"/>
<path fill-rule="evenodd" clip-rule="evenodd" d="M187.865 138.762C188.258 138.119 188.624 137.449 188.963 136.753C189.635 135.37 190.176 133.914 190.568 132.42C190.586 132.353 190.603 132.286 190.62 132.218C190.753 131.698 190.544 131.166 190.14 130.886C190.043 130.819 189.931 130.766 189.812 130.732C189.204 130.558 188.579 130.943 188.411 131.588C188.057 132.986 187.558 134.35 186.93 135.642C186.895 135.713 186.859 135.784 186.825 135.854C185.312 138.898 183.141 141.426 180.514 143.285C179.085 144.294 177.52 145.103 175.849 145.69L175.809 145.703C175.766 145.717 175.725 145.73 175.685 145.745C170.787 147.41 165.569 146.952 160.996 144.455C160.404 144.134 159.833 143.781 159.282 143.401C155.577 140.848 152.837 137.052 151.471 132.53C149.902 127.335 150.333 121.804 152.687 116.955C155.041 112.109 159.035 108.517 163.932 106.852C168.83 105.188 174.048 105.646 178.621 108.142C179.202 108.459 179.768 108.807 180.312 109.183C182.674 110.812 184.677 112.971 186.163 115.513C186.255 115.669 186.374 115.796 186.512 115.89C186.871 116.138 187.349 116.16 187.736 115.904C188.273 115.549 188.44 114.803 188.105 114.233C186.443 111.389 184.204 108.973 181.562 107.15C180.951 106.73 180.317 106.34 179.668 105.985C174.55 103.192 168.713 102.68 163.234 104.543C157.755 106.405 153.283 110.414 150.652 115.844C148.02 121.27 147.534 127.458 149.292 133.27C150.82 138.329 153.887 142.575 158.031 145.432C158.647 145.856 159.286 146.25 159.949 146.611C169.855 152.019 181.921 148.463 187.865 138.762Z" fill="#F2DFF2"/>
<path fill-rule="evenodd" clip-rule="evenodd" d="M439.525 221.085L406.268 257.16L446.161 245.86L439.525 221.085Z" fill="#CBEEFF"/>
<path fill-rule="evenodd" clip-rule="evenodd" d="M637.417 236.019L448.442 245.743C443.589 245.994 439.525 241.889 439.525 236.737V154.291C439.525 145.332 446.238 137.99 454.683 137.713L624.999 132.125C637.682 132.125 647.963 143.028 647.963 156.477V224.281C647.963 230.548 643.323 235.713 637.417 236.019Z" fill="#CBEEFF"/>
<path fill-rule="evenodd" clip-rule="evenodd" d="M621.865 150.255L470.757 156.251C469.273 156.309 468.105 157.353 468.155 158.575L468.211 159.984C468.259 161.192 469.485 162.121 470.951 162.064L622.064 156.211C623.55 156.156 624.72 155.112 624.673 153.887L624.608 152.335C624.559 151.123 623.334 150.196 621.865 150.255Z" fill="#4571A4"/>
<path fill-rule="evenodd" clip-rule="evenodd" d="M608.341 190.821L457.232 196.786C455.75 196.844 454.583 197.924 454.633 199.19L454.694 200.647C454.742 201.9 455.969 202.864 457.436 202.807L608.552 196.991C610.036 196.934 611.204 195.857 611.154 194.59L611.089 192.981C611.037 191.725 609.813 190.761 608.341 190.821Z" fill="#4571A4"/>
<path fill-rule="evenodd" clip-rule="evenodd" d="M625.996 207.794L457.542 214.537C455.889 214.604 454.583 215.7 454.635 216.977L454.694 218.451C454.745 219.715 456.108 220.682 457.744 220.617L626.202 214.026C627.859 213.962 629.164 212.866 629.116 211.589L629.049 209.964C628.998 208.696 627.633 207.729 625.996 207.794Z" fill="#4571A4"/>
<path fill-rule="evenodd" clip-rule="evenodd" d="M539.015 174.173L456.654 176.719C455.848 176.745 455.241 177.923 455.309 179.341L455.385 180.98C455.45 182.385 456.149 183.5 456.948 183.477L539.315 181.1C540.126 181.078 540.731 179.9 540.666 178.478L540.581 176.67C540.516 175.265 539.817 174.149 539.015 174.173Z" fill="#4571A4"/>
<path fill-rule="evenodd" clip-rule="evenodd" d="M629.77 171.154L551.921 173.519C551.157 173.541 550.59 174.719 550.655 176.139L550.734 177.776C550.799 179.183 551.463 180.299 552.22 180.276L630.072 178.081C630.838 178.06 631.405 176.882 631.34 175.46L631.255 173.652C631.19 172.247 630.526 171.131 629.77 171.154Z" fill="#4571A4"/>
<path fill-rule="evenodd" clip-rule="evenodd" d="M152.59 690.753C152.59 690.753 151.034 700.104 150.27 709.36C149.97 712.977 152.599 716.119 156.023 716.271C167.646 716.785 192.514 717.782 201.435 717.36C202.775 717.297 203.654 715.841 203.157 714.516C202.739 713.409 201.937 712.511 200.916 712.015L159.842 691.997L152.59 690.753Z" fill="#4571A4"/>
<path fill-rule="evenodd" clip-rule="evenodd" d="M151.315 685.256L152.566 696.44C152.566 696.44 159.76 699.994 164.675 695.994L161.695 683.529L151.315 685.256Z" fill="#FDBAB9"/>
<path fill-rule="evenodd" clip-rule="evenodd" d="M152.254 474.961C151.713 477.881 149.351 620.725 163.751 684.735C163.984 685.782 163.485 686.857 162.55 687.263C160.341 688.219 156.009 689.605 150.822 689.792C149.217 689.846 147.773 688.741 147.321 687.106C143.206 672.252 123.484 597.839 120.911 526.755C118.036 447.327 120.911 524.052 120.911 524.052L122.597 474.953L152.254 474.961Z" fill="#332929"/>
<path fill-rule="evenodd" clip-rule="evenodd" d="M105.342 695.628C105.342 695.628 102.862 700.351 100.462 712.896C100.029 715.162 101.521 717.329 103.691 717.554C107.529 717.957 113.438 718.47 118.171 718.434C120.354 718.419 122.056 716.406 121.793 714.108C121.269 709.528 119.636 702.016 114.59 696.161L105.342 695.628Z" fill="#4571A4"/>
<path fill-rule="evenodd" clip-rule="evenodd" d="M103.163 681.236L106.087 698.151C106.087 698.151 108.979 700.433 114.698 698.779L113.302 680.578L103.163 681.236Z" fill="#FDBAB9"/>
<path fill-rule="evenodd" clip-rule="evenodd" d="M95.2643 479.347C83.4882 554.711 97.8188 665.616 102.652 687.324C102.947 688.653 103.959 689.671 105.229 689.893C107.387 690.272 110.938 690.582 114.44 689.504C115.646 689.132 116.494 687.977 116.543 686.648C117.191 669.097 116.025 561.36 126.997 518.782C127.553 516.626 128.797 514.743 130.516 513.448L151.811 497.393L153.445 471.441L95.2643 479.347Z" fill="#332929"/>
<path fill-rule="evenodd" clip-rule="evenodd" d="M274.543 281.419C271.079 276.979 266.69 279.08 266.69 279.08C261.498 302.343 234.268 321.204 206.29 330.425C208.118 338.674 212.325 352.631 221.248 363.596C267.675 335.915 274.543 281.419 274.543 281.419Z" fill="#FDBAB9"/>
<path fill-rule="evenodd" clip-rule="evenodd" d="M273.702 282.549C274.065 283.774 269.864 285.636 267.39 280.634C267.306 278.238 265.93 267.968 267.281 266.016C274.475 255.614 288.421 242.576 288.421 242.576C290.779 245.045 288.838 247.467 288.838 247.467L282.071 254.942C283.487 257.654 285.214 259.942 286.02 263.222C286.634 265.706 286.259 268.363 285.074 270.622C283.89 272.892 282.268 275.842 280.737 278.151C277.838 282.52 273.702 282.549 273.702 282.549Z" fill="#FDBAB9"/>
<path fill-rule="evenodd" clip-rule="evenodd" d="M279.109 259.792L272.943 265.335L271.008 270.853L276.506 277.321C276.506 277.321 278.354 266.371 279.727 264.001C281.102 261.633 280.389 260.486 279.109 259.792Z" fill="#FDBAB9"/>
<path fill-rule="evenodd" clip-rule="evenodd" d="M170.3 336.549C135.011 335.928 96.0717 346.372 96.0717 346.372C85.5526 411.464 94.2324 486.543 94.2324 486.543C121.553 494.139 152.373 481.896 152.373 481.896C156.914 454.689 178.1 378.123 178.1 378.123C195.344 375.852 209.547 370.577 221.245 363.601C212.323 352.636 208.116 338.679 206.288 330.43C193.812 334.542 181.187 336.738 170.3 336.549Z" fill="#4571A4"/>
<path fill-rule="evenodd" clip-rule="evenodd" d="M109.607 382.607L96.0711 346.371C96.0711 346.371 63.1079 370.123 57.6868 400.235C63.9153 400.724 75.2491 402.441 86.3426 408.381C88.7806 394.162 109.607 382.607 109.607 382.607Z" fill="#4571A4"/>
<path fill-rule="evenodd" clip-rule="evenodd" d="M133.968 444.762L154.167 369.962C154.397 369.113 155.079 368.494 155.908 368.39C159.566 367.939 170.172 366.668 182.414 365.57C197.161 364.246 214.288 363.175 224.523 364.087C225.977 364.215 226.857 365.847 226.21 367.237C220.388 379.721 196.452 430.511 184.464 447.148C184.067 447.702 183.45 448.023 182.798 448.015L135.934 447.555C134.569 447.539 133.595 446.153 133.968 444.762Z" fill="#9FD2F5"/>
<path fill-rule="evenodd" clip-rule="evenodd" d="M184.509 359.089L199.154 356.503C199.931 356.364 200.571 357.156 200.322 357.951L198.874 362.609C198.748 363.014 198.414 363.308 198.013 363.365L183.922 365.363C183.194 365.466 182.594 364.76 182.76 364.003L183.657 359.934C183.754 359.498 184.088 359.164 184.509 359.089Z" fill="#CBEEFF"/>
<path fill-rule="evenodd" clip-rule="evenodd" d="M173.542 372.243L174.75 365.578C174.871 364.91 175.389 364.405 176.026 364.337L205.606 361.154C206.6 361.045 207.397 362.014 207.166 363.045L205.284 371.349C205.134 372.013 204.588 372.495 203.945 372.528L175.043 374.07C174.102 374.123 173.365 373.222 173.542 372.243Z" fill="#CBEEFF"/>
<path fill-rule="evenodd" clip-rule="evenodd" d="M138.415 416.702C138.415 416.702 101.405 438.884 88.9172 419.945C86.3242 416.011 85.7046 412.102 86.3431 408.377C75.2497 402.437 63.9158 400.721 57.6873 400.232C56.053 409.311 56.9174 418.967 61.9479 428.725C83.8216 471.156 143.313 426.38 143.313 426.38L138.415 416.702Z" fill="#FDBAB9"/>
<path fill-rule="evenodd" clip-rule="evenodd" d="M138.846 426.694C138.846 426.694 136.032 414.425 137.168 410.073C138.303 405.719 140.501 400.124 147.831 401.367C155.159 402.611 163.805 405.887 163.805 405.887C163.805 405.887 163.37 411.556 157.801 409.726L161.253 412.561C161.253 412.561 160.761 417.099 156.055 414.674L159.267 418.433C159.267 418.433 157.247 422.161 153.786 419.77C150.323 417.379 148.662 428.173 138.846 426.694Z" fill="#FDBAB9"/>
<path fill-rule="evenodd" clip-rule="evenodd" d="M134.557 306.158L123.327 340.593C123.141 341.163 123.362 341.795 123.861 342.089C126.921 343.883 137.949 349.069 151.238 340.136C152.622 339.204 153.565 337.684 153.777 335.963L157.412 306.158H134.557Z" fill="#FDBAB9"/>
<path fill-rule="evenodd" clip-rule="evenodd" d="M158.988 274.271C158.988 274.271 171.318 298.884 169.739 308.829C168.158 318.771 152.875 318.058 139.531 309.981L130.206 283.403L158.988 274.271Z" fill="#FDBAB9"/>
<path fill-rule="evenodd" clip-rule="evenodd" d="M140.118 296.921C140.661 296.665 140.86 295.962 140.537 295.434C139.548 293.835 137.696 290.571 137.108 287.711C137.108 287.711 134.888 286.207 142.749 284.212C150.607 282.217 162.324 279.121 164.789 272.027C167.191 265.112 160.879 247.72 150.813 261.579C150.43 262.105 149.681 262.116 149.298 261.589C147.646 259.31 143.309 254.582 137.285 257.448C131.647 260.131 131.012 264.512 131.089 266.721C131.113 267.369 130.565 267.876 129.962 267.752C127.113 267.175 120.273 266.682 117.081 274.12C114.451 280.249 116.16 283.718 117.717 285.416C118.221 285.965 118 286.87 117.309 287.093C115.436 287.704 113.017 289.387 113.259 294.042C113.594 300.474 120.377 299.908 122.308 299.615C122.625 299.566 122.943 299.682 123.158 299.931C124.813 301.876 132.275 310.125 140.348 311.121C141.049 311.209 141.59 310.476 141.362 309.769L137.866 298.998C137.704 298.496 137.929 297.949 138.387 297.734L140.118 296.921Z" fill="#332929"/>
<path fill-rule="evenodd" clip-rule="evenodd" d="M141.525 298.464C141.525 298.464 132.747 292.077 132.104 297.456C131.464 302.835 140.011 305.249 144.244 303.244L141.525 298.464Z" fill="#FDBAB9"/>
</svg>
