<?xml version="1.0" standalone="no"?>
<!DOCTYPE svg PUBLIC "-//W3C//DTD SVG 20010904//EN"
 "http://www.w3.org/TR/2001/REC-SVG-20010904/DTD/svg10.dtd">
<svg version="1.0" xmlns="http://www.w3.org/2000/svg"
 width="674.000000pt" height="674.000000pt" viewBox="0 0 674.000000 674.000000"
 preserveAspectRatio="xMidYMid meet">
<metadata>
Created by potrace 1.14, written by Peter Selinger 2001-2017
</metadata>
<g transform="translate(0.000000,674.000000) scale(0.100000,-0.100000)"
fill="#000000" stroke="none">
<path d="M1645 6269 c-628 -68 -1120 -387 -1367 -884 -136 -272 -188 -527
-188 -909 -1 -272 22 -460 85 -701 220 -847 809 -1585 1950 -2441 253 -190
1187 -844 1228 -860 27 -10 1035 694 1402 980 1179 917 1735 1716 1861 2671
21 157 24 515 5 655 -59 455 -240 817 -536 1073 -456 394 -1137 524 -1821 346
-287 -74 -588 -217 -812 -386 -46 -35 -86 -63 -89 -63 -3 0 -35 22 -72 48
-342 251 -696 397 -1106 457 -135 20 -419 27 -540 14z"/>
</g>
</svg>
