<svg width="59" height="48" viewBox="0 0 59 48" fill="none" xmlns="http://www.w3.org/2000/svg">
<path d="M0.709717 5.28578V35.5742C0.709717 38.099 2.7564 40.1457 5.28115 40.1457H39.3674V5.28578C39.3674 2.76108 37.3207 0.714355 34.796 0.714355H5.28115C2.7564 0.714355 0.709717 2.76108 0.709717 5.28578Z" fill="white"/>
<path d="M0.709717 5.28578V35.5742C0.709717 38.099 2.7564 40.1457 5.28115 40.1457H39.3674V5.28578C39.3674 2.76108 37.3207 0.714355 34.796 0.714355H5.28115C2.7564 0.714355 0.709717 2.76108 0.709717 5.28578Z" stroke="#4571A4" stroke-linecap="round" stroke-linejoin="round"/>
<path d="M39.3794 39.2927H53.7121C56.2364 39.2927 58.2835 37.2461 58.2835 34.7213V22.3571L39.3794 22.3489V39.2927Z" fill="white"/>
<path d="M39.3794 39.293H53.7121C56.2364 39.293 58.2835 37.2464 58.2835 34.7216V22.3575L39.3794 22.3494V39.293Z" stroke="#4571A4" stroke-linecap="round" stroke-linejoin="round"/>
<path d="M58.2835 21.0029L51.9178 7.97048C51.1511 6.40079 49.5571 5.40527 47.8103 5.40527H39.3794V22.3491L58.2835 22.3573V21.0029Z" fill="white"/>
<path d="M58.2835 21.0029L51.9178 7.97048C51.1511 6.40079 49.5571 5.40527 47.8103 5.40527H39.3794V22.3491L58.2835 22.3573V21.0029Z" stroke="#4571A4" stroke-linecap="round" stroke-linejoin="round"/>
<path d="M15.3192 46.6663C18.8437 46.6663 21.7009 43.8091 21.7009 40.2845C21.7009 36.76 18.8437 33.9028 15.3192 33.9028C11.7947 33.9028 8.9375 36.76 8.9375 40.2845C8.9375 43.8091 11.7947 46.6663 15.3192 46.6663Z" fill="white"/>
<path d="M15.3192 46.6663C18.8437 46.6663 21.7009 43.8091 21.7009 40.2845C21.7009 36.76 18.8437 33.9028 15.3192 33.9028C11.7947 33.9028 8.9375 36.76 8.9375 40.2845C8.9375 43.8091 11.7947 46.6663 15.3192 46.6663Z" stroke="#4571A4" stroke-linecap="round" stroke-linejoin="round"/>
<path d="M44.2885 46.6663C47.813 46.6663 50.6702 43.8091 50.6702 40.2845C50.6702 36.76 47.813 33.9028 44.2885 33.9028C40.7639 33.9028 37.9067 36.76 37.9067 40.2845C37.9067 43.8091 40.7639 46.6663 44.2885 46.6663Z" fill="white"/>
<path d="M44.2885 46.6663C47.813 46.6663 50.6702 43.8091 50.6702 40.2845C50.6702 36.76 47.813 33.9028 44.2885 33.9028C40.7639 33.9028 37.9067 36.76 37.9067 40.2845C37.9067 43.8091 40.7639 46.6663 44.2885 46.6663Z" stroke="#4571A4" stroke-linecap="round" stroke-linejoin="round"/>
<path d="M13.1829 19H26.8951" stroke="#4571A4" stroke-linecap="round" stroke-linejoin="round"/>
<path d="M20.0391 12.144V25.8563" stroke="#4571A4" stroke-linecap="round" stroke-linejoin="round"/>
</svg>
