<svg width="64" height="69" viewBox="0 0 64 69" fill="none" xmlns="http://www.w3.org/2000/svg">
<path d="M30.666 9.47705C33.7999 24.3108 56.1842 29.2172 57.2579 45.7977C58.4892 64.7792 42.3505 68.658 30.666 68.658C18.9816 68.658 3.44051 63.9298 4.07756 45.7977C4.65639 29.1915 24.9103 28.426 30.666 9.47705Z" fill="white"/>
<path d="M9.41882 51.0157C9.41882 53.8619 7.30729 56.1704 4.7077 56.1704C2.1081 56.1704 0 53.8619 0 51.0157C0 48.1695 2.10639 45.8645 4.7077 45.8645C7.309 45.8645 9.41882 48.173 9.41882 51.0157Z" fill="white"/>
<path d="M60.9124 51.0157C60.9124 53.8619 58.8043 56.1704 56.1978 56.1704C53.5914 56.1704 51.4867 53.8619 51.4867 51.0157C51.4867 48.1695 53.5999 45.8645 56.1978 45.8645C58.7957 45.8645 60.9124 48.173 60.9124 51.0157Z" fill="white"/>
<path d="M18.0482 50.3821C18.0482 51.8275 16.8751 53.0057 15.4229 53.0057C13.9707 53.0057 12.801 51.8275 12.801 50.3821C12.801 48.9368 13.9775 47.75 15.4229 47.75C16.8682 47.75 18.0482 48.9316 18.0482 50.3821Z" fill="#4571A4"/>
<path d="M48.1147 50.3821C48.1147 51.8275 46.9365 53.0057 45.4877 53.0057C44.0389 53.0057 42.8607 51.8275 42.8607 50.3821C42.8607 48.9368 44.0389 47.75 45.4877 47.75C46.9365 47.75 48.1147 48.9316 48.1147 50.3821Z" fill="#4571A4"/>
<path d="M18.8634 59.6571C20.1049 61.0357 21.7952 62.1591 23.7765 62.9434C25.7579 63.7261 28.0338 64.1696 30.4553 64.1696C32.8785 64.1696 35.1545 63.7261 37.1359 62.9434C39.1172 62.1591 40.8058 61.0357 42.0473 59.6571C42.2905 59.3865 42.27 58.9687 41.9977 58.7238C41.7271 58.4806 41.3092 58.5012 41.0644 58.7735C39.9855 59.9739 38.4682 60.9963 36.6495 61.7139C34.8325 62.4331 32.7176 62.8475 30.4553 62.8475C28.1948 62.8475 26.0799 62.4331 24.2629 61.7139C22.4442 60.9963 20.9252 59.9722 19.8463 58.7735C19.6032 58.5029 19.1853 58.4806 18.913 58.7238C18.6424 58.967 18.6202 59.3848 18.8634 59.6571Z" fill="#4571A4"/>
<path d="M31.0666 25.9769C29.2548 26.9736 27.8317 28.4121 26.8675 30.0818C25.9017 31.7515 25.3896 33.6524 25.3896 35.5859C25.3896 37.3737 25.8298 39.1907 26.7511 40.8655C27.3779 42.0026 28.2821 42.8949 29.3301 43.5011C30.3799 44.1073 31.5735 44.4293 32.7877 44.4293C33.9094 44.4293 35.0499 44.1536 36.0997 43.5764C36.8309 43.174 37.4081 42.5883 37.7985 41.9119C38.189 41.2354 38.3945 40.4665 38.3945 39.6839C38.3945 38.9595 38.2164 38.2214 37.843 37.5433C37.5742 37.0552 37.182 36.6682 36.7316 36.4079C36.2795 36.1476 35.7658 36.0088 35.2417 36.0071C34.7571 36.0071 34.2622 36.127 33.8101 36.377C33.4676 36.5671 33.1936 36.8428 33.0103 37.1614C32.8271 37.4799 32.7295 37.8412 32.7295 38.2094C32.7295 38.5485 32.8134 38.8961 32.9881 39.213C33.1936 39.5846 33.6594 39.7199 34.031 39.5144C34.4026 39.3089 34.5379 38.8413 34.3324 38.4714C34.2861 38.3858 34.2656 38.3002 34.2656 38.2094C34.2656 38.1118 34.2913 38.0142 34.3409 37.9286C34.3906 37.8429 34.4591 37.7727 34.5533 37.7196C34.7742 37.5981 35.0071 37.5415 35.24 37.5415C35.4918 37.5415 35.7435 37.6083 35.961 37.7351C36.1802 37.8618 36.3651 38.045 36.497 38.2813C36.7419 38.7266 36.8583 39.2044 36.8583 39.6788C36.8583 40.1908 36.7231 40.6977 36.4679 41.1395C36.2127 41.5814 35.8394 41.9598 35.3582 42.2253C34.5396 42.6757 33.6594 42.888 32.7877 42.888C31.8441 42.888 30.9142 42.638 30.0991 42.167C29.2839 41.6961 28.5852 41.006 28.0954 40.1206C27.3008 38.6769 26.9241 37.1203 26.9241 35.5824C26.9241 33.9213 27.3642 32.2824 28.1947 30.8473C29.0253 29.4122 30.2429 28.1792 31.8047 27.3178C32.1763 27.1141 32.3116 26.6465 32.1078 26.2749C31.904 25.9033 31.4365 25.768 31.0649 25.9718" fill="#4571A4"/>
<path d="M64 5.08102C60.8918 1.94713 56.59 0 51.8531 0C56.5882 0 60.8901 1.94713 63.9983 5.08102" fill="white"/>
</svg>
