<svg width="62" height="62" viewBox="0 0 62 62" fill="none" xmlns="http://www.w3.org/2000/svg">
<path d="M26.4667 45.0891V54.2265C26.4548 54.5703 26.31 54.8953 26.0628 55.1339C25.8156 55.373 25.4853 55.506 25.1417 55.506H15.5472C13.9696 55.24 12.5415 54.4125 11.5266 53.176" stroke="#4571A4" stroke-linecap="round" stroke-linejoin="round"/>
<path d="M11.5266 53.2216C11.5266 53.2216 6.54657 48.8811 18.1057 37.322H23.2684L15.5472 24.575H1.33813L5.22163 29.555C5.22163 29.555 2.6174 30.0118 2.6174 33.6212C3.98337 40.7711 7.03791 47.4909 11.5266 53.2216Z" fill="white"/>
<path d="M46.3412 28.1387L53.1028 23.5699C53.2541 23.5032 53.4173 23.4688 53.5823 23.4688C53.7478 23.4688 53.911 23.5032 54.0623 23.5699C54.2388 23.5906 54.4084 23.6506 54.5588 23.7454C54.7087 23.8403 54.8358 23.9677 54.9304 24.1182L60.1844 31.9765C60.4984 32.6083 60.6616 33.3042 60.6616 34.0097C60.6616 34.7152 60.4984 35.411 60.1844 36.0428" stroke="#4571A4" stroke-linecap="round" stroke-linejoin="round"/>
<path d="M60.3673 35.5857C60.3673 35.5857 58.9053 41.5252 43.7824 40.1545V36.1797L34.9189 47.7845L43.3256 60.7143L43.7824 54.6375C43.7824 54.6375 45.4731 56.6938 48.3513 54.6375C53.1787 48.8442 57.2189 42.4381 60.3673 35.5857Z" fill="white"/>
<path d="M18.928 18.5897L12.7601 15.757C12.4559 15.5999 12.2216 15.3345 12.1032 15.0132C11.9848 14.6918 11.991 14.3379 12.1205 14.0209L17.329 3.60399C17.6769 2.98726 18.1635 2.45984 18.7503 2.06339C19.337 1.66694 20.0079 1.4123 20.7099 1.31958" stroke="#4571A4" stroke-linecap="round" stroke-linejoin="round"/>
<path d="M20.71 1.31958C20.71 1.31958 26.3296 1.31958 33.457 15.026L29.7562 19.5949H45.1074L50.5442 5.24875L44.148 7.21337C44.0551 6.22206 43.6961 5.27422 43.109 4.47006C42.522 3.66585 41.7286 3.03516 40.8128 2.64453C37.6637 1.60202 34.3485 1.15276 31.0355 1.31958H20.71Z" fill="white"/>
<path d="M11.5266 53.2216C11.5266 53.2216 6.54657 48.8811 18.1057 37.322H23.2684L15.5472 24.575H1.33813L5.22163 29.555C5.22163 29.555 2.6174 30.0118 2.6174 33.6212C3.98337 40.7711 7.03791 47.4909 11.5266 53.2216Z" stroke="#4571A4" stroke-linecap="round" stroke-linejoin="round"/>
<path d="M60.3673 35.5857C60.3673 35.5857 58.9053 41.5252 43.7824 40.1545V36.1797L34.9189 47.7845L43.3256 60.7143L43.7824 54.6375C43.7824 54.6375 45.4731 56.6938 48.3513 54.6375C53.1787 48.8442 57.2189 42.4381 60.3673 35.5857Z" stroke="#4571A4" stroke-linecap="round" stroke-linejoin="round"/>
<path d="M20.71 1.31958C20.71 1.31958 26.3296 1.31958 33.457 15.026L29.7562 19.5949H45.1074L50.5442 5.24875L44.148 7.21337C44.0551 6.22206 43.6961 5.27422 43.109 4.47006C42.522 3.66585 41.7286 3.03516 40.8128 2.64453C37.6637 1.60202 34.3485 1.15276 31.0355 1.31958H20.71Z" stroke="#4571A4" stroke-linecap="round" stroke-linejoin="round"/>
</svg>
