<svg width="174" height="163" viewBox="0 0 174 163" fill="none" xmlns="http://www.w3.org/2000/svg">
<path fill-rule="evenodd" clip-rule="evenodd" d="M131.362 16.0705C136.78 23.1381 115.598 52.2546 82.7259 77.4566C49.8535 102.658 17.739 114.402 12.3206 107.335L40.8406 144.535C42.6683 146.919 46.0177 148.099 50.6975 148.009C55.3772 147.918 61.2958 146.558 68.1152 144.006C74.9346 141.455 82.5213 137.762 90.4421 133.138C98.3629 128.514 106.463 123.049 114.279 117.057C122.095 111.064 129.475 104.661 135.997 98.2123C142.519 91.7637 148.056 85.396 152.29 79.473C156.525 73.5499 159.375 68.1874 160.677 63.6917C161.98 59.1959 161.71 55.6549 159.882 53.271L131.362 16.0705ZM155.914 56.3131L134.467 28.3384C133.627 27.2426 132.057 27.0354 130.962 27.8754C129.866 28.7155 129.659 30.2848 130.499 31.3805L151.946 59.3552L155.596 64.1169C156.437 65.2126 158.006 65.4199 159.102 64.5798C160.197 63.7398 160.405 62.1705 159.565 61.0747L155.914 56.3131ZM149.962 60.8763L130.796 35.8776C129.956 34.7819 128.387 34.5746 127.291 35.4147C126.196 36.2547 125.988 37.824 126.828 38.9198L145.994 63.9184L151.926 71.6561C152.766 72.7519 154.335 72.9592 155.431 72.1191C156.527 71.279 156.734 69.7097 155.894 68.614L149.962 60.8763ZM144.01 65.4395L126.213 42.2264C125.373 41.1307 123.804 40.9234 122.708 41.7635C121.612 42.6036 121.405 44.1728 122.245 45.2686L140.042 68.4817L147.343 78.005C148.183 79.1007 149.752 79.308 150.848 78.4679C151.944 77.6278 152.151 76.0586 151.311 74.9628L144.01 65.4395ZM138.058 70.0027L121.63 48.5753C120.79 47.4795 119.221 47.2723 118.125 48.1123C117.029 48.9524 116.822 50.5217 117.662 51.6174L134.09 73.0449L142.76 84.3538C143.6 85.4495 145.169 85.6568 146.265 84.8167C147.361 83.9767 147.568 82.4074 146.728 81.3117L138.058 70.0027ZM132.106 74.5659L116.819 54.6265C115.979 53.5308 114.41 53.3235 113.314 54.1635C112.218 55.0036 112.011 56.5729 112.851 57.6686L128.138 77.6081L137.949 90.405C138.789 91.5008 140.358 91.708 141.454 90.868C142.549 90.0279 142.757 88.4586 141.917 87.3629L132.106 74.5659ZM126.154 79.1291L111.551 60.0825C110.711 58.9868 109.142 58.7795 108.046 59.6196C106.95 60.4596 106.743 62.0289 107.583 63.1247L122.186 82.1713L132.681 95.861C133.521 96.9568 135.09 97.1641 136.186 96.324C137.282 95.4839 137.489 93.9146 136.649 92.8189L126.154 79.1291ZM120.202 83.6924L106.284 65.5385C105.444 64.4428 103.874 64.2355 102.779 65.0756C101.683 65.9157 101.476 67.4849 102.316 68.5807L116.233 86.7345L127.413 101.317C128.253 102.413 129.823 102.62 130.918 101.78C132.014 100.94 132.221 99.3707 131.381 98.2749L120.202 83.6924ZM114.249 88.2556L100.788 70.697C99.9479 69.6012 98.3787 69.3939 97.2829 70.234C96.1872 71.0741 95.9799 72.6433 96.8199 73.7391L110.281 91.2977L121.918 106.475C122.758 107.571 124.327 107.778 125.423 106.938C126.518 106.098 126.726 104.529 125.886 103.433L114.249 88.2556ZM108.297 92.8188L95.0641 75.5578C94.224 74.462 92.6547 74.2547 91.559 75.0948C90.4632 75.9349 90.256 77.5042 91.096 78.5999L104.329 95.8609L116.194 111.336C117.034 112.432 118.603 112.639 119.699 111.799C120.795 110.959 121.002 109.39 120.162 108.294L108.297 92.8188ZM102.345 97.382L89.3402 80.4186C88.5001 79.3228 86.9308 79.1156 85.8351 79.9556C84.7393 80.7957 84.5321 82.365 85.3721 83.4607L98.3773 100.424L110.47 116.197C111.31 117.293 112.879 117.5 113.975 116.66C115.071 115.82 115.278 114.251 114.438 113.155L102.345 97.382ZM96.3933 101.945L83.16 84.6842C82.3199 83.5884 80.7506 83.3812 79.6549 84.2212C78.5591 85.0613 78.3518 86.6306 79.1919 87.7263L92.4252 104.987L104.29 120.463C105.13 121.558 106.699 121.766 107.795 120.926C108.89 120.086 109.098 118.516 108.258 117.421L96.3933 101.945ZM90.4412 106.508L76.9797 88.9498C76.1397 87.8541 74.5704 87.6468 73.4746 88.4868C72.3789 89.3269 72.1716 90.8962 73.0117 91.9919L86.4731 109.551L98.1093 124.728C98.9494 125.824 100.519 126.031 101.614 125.191C102.71 124.351 102.917 122.782 102.077 121.686L90.4412 106.508ZM84.4891 111.072L70.5713 92.9178C69.7313 91.8221 68.162 91.6148 67.0662 92.4548C65.9705 93.2949 65.7632 94.8642 66.6033 95.9599L80.5211 114.114L91.7009 128.696C92.541 129.792 94.1103 129.999 95.206 129.159C96.3018 128.319 96.509 126.75 95.669 125.654L84.4891 111.072ZM78.537 115.635L63.9348 96.5882C63.0947 95.4925 61.5254 95.2852 60.4297 96.1252C59.3339 96.9653 59.1267 98.5346 59.9667 99.6303L74.569 118.677L85.0644 132.367C85.9044 133.462 87.4737 133.67 88.5695 132.83C89.6652 131.99 89.8725 130.42 89.0324 129.325L78.537 115.635ZM72.585 120.198L57.2982 100.259C56.4582 99.1629 54.8889 98.9556 53.7931 99.7956C52.6974 100.636 52.4901 102.205 53.3302 103.301L68.6169 123.24L78.4278 136.037C79.2679 137.133 80.8372 137.34 81.9329 136.5C83.0287 135.66 83.2359 134.091 82.3959 132.995L72.585 120.198ZM66.6329 124.761L50.2054 103.334C49.3653 102.238 47.796 102.031 46.7003 102.871C45.6045 103.711 45.3973 105.28 46.2373 106.376L62.6649 127.803L71.335 139.112C72.175 140.208 73.7443 140.415 74.8401 139.575C75.9358 138.735 76.1431 137.166 75.303 136.07L66.6329 124.761ZM60.6808 129.324L42.8843 106.111C42.0443 105.016 40.475 104.808 39.3792 105.648C38.2835 106.488 38.0762 108.058 38.9163 109.154L56.7128 132.367L64.0139 141.89C64.854 142.986 66.4233 143.193 67.519 142.353C68.6148 141.513 68.822 139.944 67.982 138.848L60.6808 129.324ZM54.7288 133.888L35.5633 108.889C34.7232 107.793 33.154 107.586 32.0582 108.426C30.9625 109.266 30.7552 110.835 31.5953 111.931L50.7607 136.93L56.6929 144.667C57.533 145.763 59.1023 145.971 60.198 145.13C61.2937 144.29 61.501 142.721 60.6609 141.625L54.7288 133.888ZM48.7767 138.451L27.3296 110.476C26.4896 109.38 24.9203 109.173 23.8245 110.013C22.7288 110.853 22.5215 112.423 23.3616 113.518L44.8087 141.493L48.4592 146.255C49.2993 147.35 50.8686 147.558 51.9643 146.718C53.0601 145.878 53.2673 144.308 52.4273 143.213L48.7767 138.451Z" fill="#F0E942"/>
<path d="M128.852 12.7969C134.271 19.8645 113.089 48.981 80.2162 74.1829C47.3439 99.3849 15.2293 111.129 9.8109 104.061C4.39249 96.9935 26.6483 70.834 59.5207 45.6321C92.393 20.4302 123.434 5.72936 128.852 12.7969Z" fill="#F0E942"/>
</svg>
