<svg width="256" height="210" viewBox="0 0 256 210" fill="none" xmlns="http://www.w3.org/2000/svg">
<path fill-rule="evenodd" clip-rule="evenodd" d="M41.9813 182.108C36.7613 170.138 77.0945 136.072 132.704 111.659C188.33 87.2381 238.178 81.7235 243.429 93.6832L215.792 30.7325C214.021 26.6983 209.662 23.8473 202.964 22.3423C196.266 20.8374 187.361 20.7079 176.755 21.9613C166.15 23.2148 154.053 25.8265 141.156 29.6475C128.258 33.4684 114.812 38.4238 101.585 44.2306C88.3578 50.0374 75.6093 56.5819 64.067 63.4905C52.5246 70.3991 42.4146 77.5365 34.3142 84.4951C26.2137 91.4538 20.2813 98.0974 16.8559 104.047C13.4304 109.996 12.5789 115.134 14.35 119.169L41.9813 182.108ZM22.133 115.752L42.9155 163.091C43.4705 164.355 44.9453 164.93 46.2096 164.375C47.4738 163.82 48.0487 162.345 47.4937 161.081L26.7112 113.742L23.1738 105.684C22.6188 104.42 21.144 103.845 19.8797 104.4C18.6155 104.955 18.0405 106.43 18.5955 107.694L22.133 115.752ZM32.2051 111.33L50.7767 153.633C51.3317 154.897 52.8065 155.472 54.0708 154.917C55.335 154.362 55.91 152.887 55.3549 151.623L36.7834 109.32L31.035 96.2263C30.48 94.962 29.0052 94.3871 27.7409 94.9421C26.4767 95.4971 25.9017 96.972 26.4568 98.2362L32.2051 111.33ZM42.2772 106.908L59.5223 146.189C60.0773 147.454 61.5521 148.029 62.8164 147.474C64.0806 146.919 64.6555 145.444 64.1005 144.18L46.8555 104.898L39.7806 88.7828C39.2256 87.5186 37.7508 86.9437 36.4865 87.4987C35.2223 88.0537 34.6473 89.5285 35.2023 90.7928L42.2772 106.908ZM52.3494 102.486L68.2679 138.746C68.8229 140.01 70.2977 140.585 71.5619 140.03C72.8262 139.475 73.4011 138 72.8461 136.736L56.9276 100.476L48.5262 81.3394C47.9711 80.0752 46.4963 79.5002 45.2321 80.0552C43.9678 80.6103 43.3929 82.0851 43.9479 83.3493L52.3494 102.486ZM62.4215 98.0645L77.2345 131.806C77.7896 133.07 79.2644 133.645 80.5286 133.09C81.7928 132.535 82.3678 131.06 81.8128 129.796L66.9997 96.0546L57.4928 74.3996C56.9378 73.1353 55.463 72.5604 54.1988 73.1154C52.9345 73.6704 52.3596 75.1452 52.9146 76.4095L62.4215 98.0645ZM72.4936 93.6427L86.6434 125.874C87.1984 127.138 88.6732 127.713 89.9375 127.158C91.2017 126.603 91.7766 125.128 91.2216 123.864L77.0718 91.6328L66.9017 68.4669C66.3467 67.2027 64.8719 66.6278 63.6076 67.1828C62.3434 67.7378 61.7684 69.2126 62.3234 70.4768L72.4936 93.6427ZM82.5657 89.2209L96.0522 119.941C96.6073 121.205 98.0821 121.78 99.3463 121.225C100.611 120.67 101.185 119.195 100.63 117.931L87.144 87.211L76.3105 62.5343C75.7555 61.2701 74.2807 60.6951 73.0165 61.2502C71.7522 61.8052 71.1773 63.28 71.7323 64.5442L82.5657 89.2209ZM92.6378 84.7991L105.682 114.512C106.237 115.776 107.712 116.351 108.976 115.796C110.24 115.241 110.815 113.766 110.26 112.502L97.2161 82.7892L85.9405 57.1053C85.3854 55.841 83.9107 55.2661 82.6464 55.8211C81.3822 56.3761 80.8072 57.851 81.3622 59.1152L92.6378 84.7991ZM102.71 80.3773L115.533 109.586C116.088 110.851 117.563 111.426 118.827 110.871C120.092 110.316 120.666 108.841 120.111 107.577L107.288 78.3674L95.7915 52.1799C95.2365 50.9156 93.7617 50.3407 92.4974 50.8957C91.2332 51.4507 90.6582 52.9255 91.2133 54.1898L102.71 80.3773ZM112.782 75.9555L125.384 104.661C125.939 105.925 127.414 106.5 128.678 105.945C129.943 105.39 130.517 103.915 129.962 102.651L117.36 73.9456L105.643 47.2545C105.088 45.9902 103.613 45.4153 102.348 45.9703C101.084 46.5253 100.509 48.0001 101.064 49.2644L112.782 75.9555ZM122.854 71.5337L135.677 100.743C136.232 102.007 137.707 102.582 138.972 102.027C140.236 101.472 140.811 99.9972 140.256 98.7329L127.432 69.5238L115.936 43.3363C115.381 42.072 113.906 41.4971 112.642 42.0521C111.377 42.6071 110.802 44.0819 111.358 45.3462L122.854 71.5337ZM132.926 67.1119L145.971 96.8246C146.526 98.0889 148 98.6638 149.265 98.1088C150.529 97.5538 151.104 96.079 150.549 94.8147L137.505 65.102L126.229 39.4181C125.674 38.1538 124.199 37.5789 122.935 38.1339C121.671 38.6889 121.096 40.1637 121.651 41.428L132.926 67.1119ZM142.998 62.6901L156.485 93.41C157.04 94.6743 158.515 95.2492 159.779 94.6942C161.043 94.1392 161.618 92.6644 161.063 91.4001L147.577 60.6802L136.743 36.0035C136.188 34.7392 134.713 34.1643 133.449 34.7193C132.185 35.2743 131.61 36.7491 132.165 38.0134L142.998 62.6901ZM153.071 58.2683L167.22 90.4991C167.775 91.7633 169.25 92.3382 170.514 91.7832C171.779 91.2282 172.354 89.7534 171.799 88.4891L157.649 56.2584L147.479 33.0925C146.924 31.8282 145.449 31.2533 144.185 31.8083C142.92 32.3633 142.345 33.8381 142.9 35.1024L153.071 58.2683ZM163.143 53.8465L177.956 87.5881C178.511 88.8523 179.986 89.4273 181.25 88.8722C182.514 88.3172 183.089 86.8424 182.534 85.5782L167.721 51.8365L158.214 30.1815C157.659 28.9172 156.184 28.3423 154.92 28.8973C153.656 29.4523 153.081 30.9272 153.636 32.1914L163.143 53.8465ZM173.215 49.4247L189.133 85.6843C189.688 86.9485 191.163 87.5235 192.427 86.9685C193.692 86.4134 194.267 84.9386 193.712 83.6744L177.793 47.4147L169.392 28.2777C168.837 27.0135 167.362 26.4385 166.098 26.9935C164.833 27.5486 164.258 29.0234 164.813 30.2876L173.215 49.4247ZM183.287 45.0028L200.532 84.2841C201.087 85.5484 202.562 86.1233 203.826 85.5683C205.09 85.0133 205.665 83.5385 205.11 82.2742L187.865 42.9929L180.79 26.8775C180.235 25.6133 178.76 25.0384 177.496 25.5934C176.232 26.1484 175.657 27.6232 176.212 28.8875L183.287 45.0028ZM193.359 40.581L211.931 82.884C212.486 84.1482 213.96 84.7231 215.225 84.1681C216.489 83.6131 217.064 82.1383 216.509 80.874L197.937 38.5711L192.189 25.4774C191.634 24.2131 190.159 23.6382 188.895 24.1932C187.631 24.7482 187.056 26.223 187.611 27.4873L193.359 40.581ZM208.009 34.1493L204.472 26.0916C203.917 24.8274 202.442 24.2524 201.178 24.8075C199.914 25.3625 199.339 26.8373 199.894 28.1015L203.431 36.1592L224.214 83.4982C224.769 84.7624 226.243 85.3374 227.508 84.7824C228.772 84.2273 229.347 82.7525 228.792 81.4883L208.009 34.1493Z" fill="#759465"/>
<path d="M44.4184 187.659C39.1678 175.699 79.5089 141.62 135.136 117.199C190.762 92.7778 240.61 87.2631 245.861 99.2229C251.111 111.183 210.273 140.675 154.646 165.096C99.0197 189.517 49.6689 199.619 44.4184 187.659Z" fill="#759465"/>
</svg>
