<svg width="209" height="196" viewBox="0 0 209 196" fill="none" xmlns="http://www.w3.org/2000/svg">
<path fill-rule="evenodd" clip-rule="evenodd" d="M157.407 19.4559C163.931 27.9207 138.6 62.9243 99.2294 93.2656C59.8587 123.607 21.3568 137.796 14.8334 129.332L49.1695 173.886C51.3699 176.741 55.3927 178.148 61.0082 178.025C66.6236 177.902 73.7217 176.252 81.8973 173.169C90.0728 170.087 99.1657 165.632 108.657 160.059C118.148 154.487 127.851 147.905 137.213 140.691C146.574 133.476 155.411 125.77 163.217 118.012C171.024 110.254 177.649 102.596 182.712 95.4756C187.776 88.3551 191.18 81.9116 192.729 76.5127C194.279 71.1139 193.944 66.8656 191.744 64.0103L157.407 19.4559ZM186.595 67.9781L160.774 34.4732C159.931 33.3795 158.362 33.1762 157.268 34.019C156.174 34.8618 155.971 36.4316 156.814 37.5253L182.635 71.0302L187.03 76.7331C187.872 77.8268 189.442 78.0301 190.536 77.1873C191.63 76.3445 191.833 74.7747 190.99 73.681L186.595 67.9781ZM179.466 73.4719L156.392 43.5313C155.55 42.4377 153.98 42.2343 152.886 43.0772C151.793 43.92 151.589 45.4898 152.432 46.5834L175.506 76.524L182.648 85.7913C183.491 86.8849 185.06 87.0882 186.154 86.2454C187.248 85.4026 187.451 83.8328 186.608 82.7392L179.466 73.4719ZM172.338 78.9656L150.912 51.1637C150.069 50.0701 148.499 49.8667 147.406 50.7095C146.312 51.5524 146.109 53.1222 146.951 54.2158L168.377 82.0177L177.167 93.4237C178.01 94.5173 179.58 94.7206 180.674 93.8778C181.767 93.035 181.97 91.4652 181.128 90.3716L172.338 78.9656ZM165.209 84.4594L145.431 58.7961C144.588 57.7024 143.019 57.4991 141.925 58.3419C140.831 59.1847 140.628 60.7545 141.471 61.8482L161.249 87.5115L171.687 101.056C172.53 102.15 174.099 102.353 175.193 101.51C176.287 100.667 176.49 99.0976 175.647 98.0039L165.209 84.4594ZM158.08 89.9532L139.676 66.072C138.833 64.9784 137.263 64.7751 136.17 65.6179C135.076 66.4607 134.873 68.0305 135.716 69.1241L154.12 93.0053L165.931 108.332C166.774 109.426 168.344 109.629 169.438 108.786C170.531 107.943 170.735 106.374 169.892 105.28L158.08 89.9532ZM150.952 95.447L133.371 72.6351C132.529 71.5415 130.959 71.3382 129.865 72.181C128.772 73.0238 128.568 74.5936 129.411 75.6872L146.991 98.4991L159.627 114.895C160.47 115.989 162.039 116.192 163.133 115.349C164.227 114.506 164.43 112.937 163.587 111.843L150.952 95.447ZM143.823 100.941L127.067 79.1982C126.224 78.1046 124.654 77.9012 123.561 78.7441C122.467 79.5869 122.264 81.1567 123.106 82.2503L139.862 103.993L153.322 121.458C154.165 122.552 155.735 122.755 156.828 121.912C157.922 121.07 158.125 119.5 157.283 118.406L143.823 100.941ZM136.694 106.435L120.487 85.4049C119.645 84.3112 118.075 84.1079 116.981 84.9507C115.888 85.7935 115.684 87.3633 116.527 88.457L132.734 109.487L146.743 127.665C147.586 128.758 149.155 128.962 150.249 128.119C151.343 127.276 151.546 125.706 150.703 124.613L136.694 106.435ZM129.565 111.928L113.633 91.2551C112.791 90.1614 111.221 89.9581 110.127 90.8009C109.034 91.6437 108.83 93.2135 109.673 94.3072L125.605 114.98L139.889 133.515C140.732 134.609 142.301 134.812 143.395 133.969C144.489 133.126 144.692 131.557 143.849 130.463L129.565 111.928ZM122.437 117.422L106.779 97.1053C105.937 96.0116 104.367 95.8083 103.273 96.6511C102.18 97.494 101.976 99.0637 102.819 100.157L118.476 120.474L133.035 139.365C133.878 140.459 135.447 140.662 136.541 139.819C137.635 138.977 137.838 137.407 136.995 136.313L122.437 117.422ZM115.308 122.916L99.3761 102.243C98.5332 101.149 96.9634 100.946 95.8698 101.788C94.7762 102.631 94.5729 104.201 95.4157 105.295L111.348 125.968L125.631 144.503C126.474 145.596 128.044 145.8 129.138 144.957C130.231 144.114 130.435 142.544 129.592 141.45L115.308 122.916ZM108.179 128.41L91.9727 107.38C91.1299 106.286 89.5601 106.083 88.4664 106.926C87.3728 107.769 87.1695 109.338 88.0123 110.432L104.219 131.462L118.228 149.64C119.071 150.734 120.641 150.937 121.734 150.094C122.828 149.251 123.031 147.681 122.188 146.588L108.179 128.41ZM101.051 133.903L84.2946 112.161C83.4518 111.067 81.882 110.864 80.7883 111.707C79.6947 112.55 79.4914 114.119 80.3342 115.213L97.0902 136.956L110.55 154.421C111.393 155.514 112.963 155.718 114.056 154.875C115.15 154.032 115.353 152.462 114.51 151.369L101.051 133.903ZM93.9219 139.397L76.3418 116.585C75.499 115.492 73.9292 115.288 72.8356 116.131C71.7419 116.974 71.5386 118.544 72.3814 119.637L89.9615 142.449L102.597 158.845C103.44 159.939 105.01 160.142 106.103 159.299C107.197 158.457 107.4 156.887 106.558 155.793L93.9219 139.397ZM86.7932 144.891L68.389 121.01C67.5462 119.916 65.9764 119.713 64.8828 120.556C63.7892 121.398 63.5858 122.968 64.4287 124.062L82.8328 147.943L94.6444 163.27C95.4873 164.363 97.0571 164.567 98.1507 163.724C99.2443 162.881 99.4476 161.311 98.6048 160.218L86.7932 144.891ZM79.6645 150.385L59.8869 124.721C59.0441 123.628 57.4743 123.424 56.3806 124.267C55.287 125.11 55.0837 126.68 55.9265 127.774L75.7041 153.437L86.1423 166.981C86.9851 168.075 88.5549 168.278 89.6485 167.436C90.7422 166.593 90.9455 165.023 90.1027 163.929L79.6645 150.385ZM72.5358 155.879L51.1101 128.077C50.2672 126.983 48.6974 126.78 47.6038 127.622C46.5102 128.465 46.3069 130.035 47.1497 131.129L68.5754 158.931L77.3655 170.337C78.2083 171.43 79.7781 171.634 80.8717 170.791C81.9653 169.948 82.1687 168.378 81.3259 167.284L72.5358 155.879ZM65.4071 161.372L42.3332 131.432C41.4904 130.338 39.9206 130.135 38.827 130.978C37.7333 131.82 37.53 133.39 38.3728 134.484L61.4467 164.424L68.5886 173.692C69.4314 174.785 71.0012 174.989 72.0949 174.146C73.1885 173.303 73.3918 171.733 72.549 170.64L65.4071 161.372ZM58.2784 166.866L32.4576 133.361C31.6148 132.268 30.045 132.064 28.9514 132.907C27.8578 133.75 27.6544 135.32 28.4972 136.413L54.318 169.918L58.713 175.621C59.5559 176.715 61.1256 176.918 62.2193 176.075C63.3129 175.233 63.5162 173.663 62.6734 172.569L58.2784 166.866Z" fill="#FFBE98"/>
<path d="M154.386 15.5351C160.909 23.9998 135.579 59.0034 96.2078 89.3447C56.8371 119.686 18.3351 133.875 11.8118 125.411C5.28837 116.946 31.9164 85.4875 71.2871 55.1462C110.658 24.8049 147.862 7.07039 154.386 15.5351Z" fill="#FFBE98"/>
</svg>
