<svg width="230" height="182" viewBox="0 0 230 182" fill="none" xmlns="http://www.w3.org/2000/svg">
<path fill-rule="evenodd" clip-rule="evenodd" d="M219.849 94.7692C215.725 105.904 167.824 102.697 116.032 83.5193C64.2407 64.3413 28.1707 36.455 32.2939 25.3198L10.5911 83.9306C9.20022 87.6867 10.2486 92.3041 13.6764 97.5194C17.1042 102.735 22.8443 108.445 30.5688 114.326C38.2934 120.206 47.8512 126.141 58.6966 131.792C69.5419 137.442 81.4624 142.697 93.7774 147.257C106.092 151.817 118.561 155.593 130.471 158.369C142.38 161.144 153.499 162.865 163.19 163.434C172.882 164.003 180.957 163.407 186.954 161.682C192.952 159.957 196.755 157.136 198.146 153.38L219.849 94.7692ZM191.113 150.776L207.433 106.7C207.913 105.406 207.252 103.967 205.957 103.488C204.662 103.008 203.224 103.669 202.744 104.964L186.424 149.039L183.646 156.542C183.166 157.836 183.827 159.275 185.122 159.754C186.417 160.234 187.855 159.573 188.335 158.278L191.113 150.776ZM181.735 147.303L196.319 107.917C196.799 106.622 196.138 105.184 194.843 104.704C193.548 104.225 192.11 104.886 191.63 106.18L177.046 145.567L172.532 157.758C172.052 159.053 172.713 160.491 174.008 160.97C175.303 161.45 176.741 160.789 177.221 159.494L181.735 147.303ZM172.357 143.831L185.9 107.258C186.379 105.963 185.718 104.524 184.423 104.045C183.129 103.566 181.69 104.227 181.211 105.521L167.668 142.094L162.112 157.099C161.633 158.394 162.294 159.832 163.589 160.311C164.883 160.791 166.322 160.13 166.801 158.835L172.357 143.831ZM162.979 140.358L175.48 106.598C175.96 105.304 175.299 103.865 174.004 103.386C172.709 102.906 171.271 103.567 170.791 104.862L158.29 138.622L151.693 156.44C151.213 157.734 151.874 159.173 153.169 159.652C154.464 160.132 155.902 159.471 156.382 158.176L162.979 140.358ZM153.602 136.886L165.234 105.47C165.714 104.176 165.053 102.737 163.758 102.258C162.463 101.778 161.025 102.439 160.545 103.734L148.913 135.149L141.447 155.312C140.967 156.606 141.628 158.045 142.923 158.524C144.218 159.004 145.656 158.343 146.136 157.048L153.602 136.886ZM144.224 133.413L155.336 103.405C155.815 102.11 155.154 100.671 153.859 100.192C152.565 99.7126 151.126 100.374 150.647 101.668L139.535 131.677L131.548 153.246C131.069 154.541 131.73 155.979 133.025 156.458C134.319 156.938 135.758 156.277 136.237 154.982L144.224 133.413ZM134.846 129.941L145.437 101.339C145.917 100.044 145.256 98.6056 143.961 98.1262C142.666 97.6467 141.228 98.3077 140.748 99.6025L130.157 128.205L121.65 151.18C121.17 152.475 121.831 153.913 123.126 154.393C124.421 154.872 125.859 154.211 126.339 152.916L134.846 129.941ZM125.468 126.468L135.712 98.8041C136.192 97.5093 135.531 96.0709 134.236 95.5915C132.941 95.1121 131.503 95.773 131.023 97.0678L120.779 124.732L111.925 148.645C111.445 149.94 112.106 151.378 113.401 151.858C114.696 152.337 116.134 151.676 116.614 150.382L125.468 126.468ZM116.091 122.996L126.161 95.8005C126.64 94.5057 125.979 93.0674 124.684 92.5879C123.39 92.1085 121.951 92.7694 121.472 94.0642L111.402 121.26L102.373 145.642C101.894 146.936 102.555 148.375 103.85 148.854C105.144 149.334 106.583 148.673 107.062 147.378L116.091 122.996ZM106.713 119.523L116.609 92.7969C117.089 91.5021 116.428 90.0638 115.133 89.5843C113.838 89.1049 112.4 89.7659 111.921 91.0607L102.024 117.787L92.822 142.638C92.3425 143.933 93.0035 145.371 94.2983 145.851C95.5931 146.33 97.0314 145.669 97.5108 144.374L106.713 119.523ZM97.3351 116.051L107.405 88.8555C107.885 87.5607 107.224 86.1224 105.929 85.643C104.634 85.1635 103.196 85.8245 102.716 87.1193L92.6463 114.315L83.6179 138.697C83.1384 139.992 83.7994 141.43 85.0942 141.909C86.389 142.389 87.8273 141.728 88.3067 140.433L97.3351 116.051ZM87.9574 112.578L98.2012 84.9142C98.6806 83.6194 98.0196 82.1811 96.7248 81.7016C95.43 81.2222 93.9917 81.8831 93.5123 83.1779L83.2685 110.842L74.4137 134.755C73.9343 136.05 74.5953 137.489 75.8901 137.968C77.1849 138.447 78.6232 137.786 79.1026 136.492L87.9574 112.578ZM78.5797 109.106L89.1707 80.5039C89.6501 79.2091 88.9892 77.7708 87.6944 77.2914C86.3996 76.8119 84.9612 77.4729 84.4818 78.7677L73.8908 107.37L65.3833 130.345C64.9038 131.64 65.5648 133.078 66.8596 133.558C68.1544 134.037 69.5927 133.376 70.0721 132.081L78.5797 109.106ZM69.2019 105.634L80.3138 75.6248C80.7932 74.33 80.1323 72.8917 78.8375 72.4123C77.5427 71.9328 76.1044 72.5938 75.6249 73.8886L64.513 103.897L56.5264 125.466C56.0469 126.761 56.7079 128.199 58.0027 128.679C59.2975 129.158 60.7358 128.497 61.2152 127.202L69.2019 105.634ZM59.8242 102.161L71.4569 70.7457C71.9364 69.4509 71.2754 68.0126 69.9806 67.5331C68.6858 67.0537 67.2475 67.7146 66.7681 69.0094L55.1353 100.425L47.6695 120.587C47.1901 121.882 47.851 123.32 49.1458 123.799C50.4406 124.279 51.8789 123.618 52.3584 122.323L59.8242 102.161ZM50.4464 98.6886L62.9473 64.9288C63.4268 63.634 62.7658 62.1957 61.471 61.7162C60.1762 61.2368 58.7379 61.8977 58.2584 63.1925L45.7576 96.9523L39.1599 114.77C38.6804 116.065 39.3414 117.503 40.6362 117.983C41.931 118.462 43.3693 117.801 43.8488 116.506L50.4464 98.6886ZM41.0687 95.2161L54.6113 58.643C55.0908 57.3482 54.4298 55.9099 53.135 55.4304C51.8402 54.951 50.4019 55.612 49.9224 56.9068L36.3798 93.4799L30.8239 108.484C30.3444 109.779 31.0054 111.217 32.3002 111.697C33.595 112.176 35.0333 111.515 35.5128 110.22L41.0687 95.2161ZM31.691 91.7436L46.2753 52.3572C46.7548 51.0624 46.0938 49.6241 44.799 49.1447C43.5042 48.6652 42.0659 49.3262 41.5864 50.621L27.0021 90.0074L22.4879 102.198C22.0084 103.493 22.6694 104.932 23.9642 105.411C25.259 105.89 26.6973 105.229 27.1768 103.935L31.691 91.7436ZM22.3132 88.2712L38.6338 44.1959C39.1132 42.9011 38.4523 41.4628 37.1575 40.9833C35.8627 40.5039 34.4244 41.1649 33.9449 42.4596L17.6244 86.5349L14.8464 94.0371C14.3669 95.3319 15.0279 96.7702 16.3227 97.2497C17.6175 97.7291 19.0558 97.0681 19.5353 95.7733L22.3132 88.2712Z" fill="#9FD2F5"/>
<path d="M221.759 89.6115C217.635 100.747 169.734 97.5394 117.942 78.3615C66.1505 59.1836 30.0805 31.2973 34.2038 20.1621C38.327 9.02688 83.6551 15.5468 135.447 34.7247C187.239 53.9026 225.882 78.4762 221.759 89.6115Z" fill="#9FD2F5"/>
</svg>
