<svg width="193" height="133" viewBox="0 0 193 133" fill="none" xmlns="http://www.w3.org/2000/svg">
<path fill-rule="evenodd" clip-rule="evenodd" d="M180.608 23.9025C182.169 34.4145 143.208 52.5315 94.3152 59.7948C45.4223 67.0582 5.11253 60.7175 3.5509 50.2056L11.7706 105.536C12.2974 109.082 15.1088 112.253 20.0445 114.868C24.9801 117.483 31.9433 119.491 40.5364 120.777C49.1295 122.063 59.1842 122.602 70.1266 122.363C81.0689 122.124 92.6846 121.113 104.31 119.386C115.936 117.658 127.344 115.25 137.883 112.297C148.423 109.345 157.886 105.906 165.734 102.178C173.583 98.449 179.661 94.5037 183.624 90.5668C187.586 86.6299 189.354 82.7786 188.828 79.2328L180.608 23.9025ZM182.448 80.1806L176.266 38.5722C176.063 37.2065 174.792 36.2638 173.426 36.4667C172.06 36.6696 171.118 37.9412 171.321 39.3069L177.502 80.9153L178.554 87.9976C178.757 89.3633 180.028 90.306 181.394 90.1031C182.76 89.9002 183.703 88.6286 183.5 87.2629L182.448 80.1806ZM173.595 81.4957L168.071 44.3138C167.868 42.9481 166.597 42.0054 165.231 42.2083C163.865 42.4112 162.922 43.6828 163.125 45.0485L168.649 82.2305L170.359 93.7392C170.562 95.1049 171.833 96.0476 173.199 95.8447C174.565 95.6418 175.507 94.3702 175.304 93.0044L173.595 81.4957ZM164.742 82.8109L159.613 48.2848C159.41 46.9191 158.138 45.9764 156.773 46.1793C155.407 46.3822 154.464 47.6538 154.667 49.0195L159.796 83.5456L161.9 97.7102C162.103 99.0759 163.375 100.019 164.741 99.8157C166.106 99.6128 167.049 98.3412 166.846 96.9754L164.742 82.8109ZM155.889 84.126L151.154 52.2558C150.952 50.8901 149.68 49.9474 148.314 50.1503C146.948 50.3532 146.006 51.6248 146.209 52.9905L150.943 84.8608L153.442 101.681C153.645 103.047 154.917 103.99 156.282 103.787C157.648 103.584 158.591 102.312 158.388 100.946L155.889 84.126ZM147.036 85.4412L142.63 55.7842C142.427 54.4184 141.156 53.4758 139.79 53.6787C138.424 53.8815 137.482 55.1532 137.685 56.5189L142.09 86.1759L144.918 105.21C145.121 106.575 146.393 107.518 147.758 107.315C149.124 107.112 150.067 105.841 149.864 104.475L147.036 85.4412ZM138.183 86.7564L133.975 58.4272C133.772 57.0615 132.5 56.1189 131.135 56.3217C129.769 56.5246 128.826 57.7962 129.029 59.162L133.238 87.4911L136.262 107.853C136.465 109.218 137.737 110.161 139.103 109.958C140.468 109.755 141.411 108.484 141.208 107.118L138.183 86.7564ZM129.33 88.0715L125.319 61.0703C125.116 59.7046 123.845 58.7619 122.479 58.9648C121.113 59.1677 120.171 60.4393 120.374 61.805L124.385 88.8062L127.607 110.496C127.81 111.861 129.081 112.804 130.447 112.601C131.813 112.398 132.755 111.127 132.553 109.761L129.33 88.0715ZM120.478 89.3867L116.598 63.2708C116.395 61.905 115.123 60.9624 113.758 61.1653C112.392 61.3681 111.449 62.6398 111.652 64.0055L115.532 90.1214L118.886 112.696C119.088 114.062 120.36 115.005 121.726 114.802C123.091 114.599 124.034 113.327 123.831 111.961L120.478 89.3867ZM111.625 90.7018L107.811 65.0286C107.608 63.6628 106.336 62.7202 104.971 62.9231C103.605 63.1259 102.662 64.3976 102.865 65.7633L106.679 91.4365L110.098 114.454C110.301 115.82 111.573 116.762 112.939 116.559C114.304 116.357 115.247 115.085 115.044 113.719L111.625 90.7018ZM102.772 92.017L99.0237 66.7863C98.8209 65.4206 97.5492 64.478 96.1835 64.6808C94.8178 64.8837 93.8751 66.1553 94.078 67.5211L97.8262 92.7517L101.311 116.212C101.514 117.577 102.786 118.52 104.152 118.317C105.517 118.114 106.46 116.843 106.257 115.477L102.772 92.017ZM93.9191 93.3321L90.1051 67.6589C89.9023 66.2931 88.6306 65.3505 87.2649 65.5534C85.8992 65.7562 84.9565 67.0279 85.1594 68.3936L88.9734 94.0668L92.3928 117.084C92.5956 118.45 93.8673 119.393 95.233 119.19C96.5987 118.987 97.5414 117.715 97.3385 116.35L93.9191 93.3321ZM85.0662 94.6473L81.1865 68.5314C80.9837 67.1656 79.712 66.223 78.3463 66.4259C76.9806 66.6288 76.0379 67.9004 76.2408 69.2661L80.1205 95.382L83.4742 117.957C83.677 119.322 84.9487 120.265 86.3144 120.062C87.6801 119.859 88.6228 118.588 88.4199 117.222L85.0662 94.6473ZM76.2134 95.9624L72.2022 68.9612C71.9993 67.5955 70.7277 66.6529 69.362 66.8557C67.9962 67.0586 67.0536 68.3302 67.2565 69.696L71.2677 96.6972L74.4898 118.387C74.6927 119.752 75.9643 120.695 77.33 120.492C78.6957 120.289 79.6384 119.018 79.4355 117.652L76.2134 95.9624ZM67.3605 97.2776L63.1521 68.9485C62.9492 67.5827 61.6776 66.6401 60.3118 66.843C58.9461 67.0459 58.0034 68.3175 58.2063 69.6832L62.4148 98.0123L65.4397 118.374C65.6426 119.74 66.9142 120.682 68.2799 120.479C69.6456 120.276 70.5883 119.005 70.3854 117.639L67.3605 97.2776ZM58.5077 98.5927L54.1019 68.9357C53.899 67.57 52.6274 66.6273 51.2617 66.8302C49.896 67.0331 48.9533 68.3047 49.1562 69.6704L53.562 99.3275L56.3896 118.361C56.5924 119.727 57.8641 120.669 59.2298 120.467C60.5955 120.264 61.5382 118.992 61.3353 117.626L58.5077 98.5927ZM49.6549 99.9079L44.9203 68.0376C44.7174 66.6719 43.4458 65.7292 42.0801 65.9321C40.7144 66.135 39.7717 67.4066 39.9746 68.7724L44.7091 100.643L47.2079 117.463C47.4108 118.829 48.6824 119.771 50.0482 119.569C51.4139 119.366 52.3565 118.094 52.1537 116.728L49.6549 99.9079ZM40.802 101.223L35.6729 66.6969C35.47 65.3312 34.1984 64.3885 32.8327 64.5914C31.467 64.7943 30.5243 66.0659 30.7272 67.4317L35.8563 101.958L37.9605 116.122C38.1634 117.488 39.435 118.431 40.8008 118.228C42.1665 118.025 43.1091 116.753 42.9063 115.388L40.802 101.223ZM31.9492 102.538L26.4255 65.3562C26.2226 63.9905 24.951 63.0478 23.5853 63.2507C22.2196 63.4536 21.2769 64.7252 21.4798 66.091L27.0034 103.273L28.7131 114.782C28.916 116.147 30.1876 117.09 31.5534 116.887C32.9191 116.684 33.8618 115.413 33.6589 114.047L31.9492 102.538ZM23.0963 103.853L16.9151 62.245C16.7122 60.8792 15.4406 59.9366 14.0749 60.1395C12.7092 60.3424 11.7665 61.614 11.9694 62.9797L18.1506 104.588L19.2027 111.67C19.4056 113.036 20.6772 113.979 22.0429 113.776C23.4087 113.573 24.3513 112.301 24.1484 110.936L23.0963 103.853Z" fill="#EA409A"/>
<path d="M179.884 19.0335C181.446 29.5455 142.485 47.6625 93.5919 54.9259C44.699 62.1893 4.38921 55.8486 2.82758 45.3366C1.26595 34.8246 39.6355 20.4148 88.5284 13.1514C137.421 5.88804 178.323 8.52154 179.884 19.0335Z" fill="#EA409A"/>
</svg>
