<svg width="212" height="233" viewBox="0 0 212 233" fill="none" xmlns="http://www.w3.org/2000/svg">
<path fill-rule="evenodd" clip-rule="evenodd" d="M134.774 15.1802C144.594 21.8562 129.981 67.5864 98.9296 113.259C67.8785 158.932 32.1482 187.252 22.3285 180.576L74.0148 215.716C77.3271 217.968 82.0612 218.058 87.9469 215.983C93.8326 213.908 100.754 209.706 108.317 203.62C115.88 197.533 123.936 189.679 132.025 180.508C140.114 171.336 148.077 161.026 155.461 150.166C162.844 139.306 169.503 128.108 175.056 117.213C180.61 106.318 184.95 95.9383 187.829 86.6667C190.707 77.3951 192.068 69.4132 191.833 63.1768C191.599 56.9403 189.773 52.5714 186.461 50.3195L134.774 15.1802ZM182.244 56.5219L143.376 30.0971C142.234 29.3208 140.679 29.6172 139.903 30.759C139.127 31.9008 139.423 33.4557 140.565 34.232L179.433 60.6568L186.049 65.1546C187.191 65.9309 188.745 65.6346 189.522 64.4927C190.298 63.3509 190.002 61.796 188.86 61.0197L182.244 56.5219ZM176.622 64.7917L141.889 41.1781C140.747 40.4018 139.192 40.6981 138.415 41.8399C137.639 42.9817 137.936 44.5367 139.077 45.313L173.811 68.9266L184.561 76.2356C185.703 77.0119 187.258 76.7155 188.034 75.5737C188.811 74.4319 188.514 72.8769 187.372 72.1007L176.622 64.7917ZM170.999 73.0615L138.747 51.1346C137.605 50.3583 136.05 50.6546 135.274 51.7964C134.498 52.9382 134.794 54.4932 135.936 55.2695L168.188 77.1964L181.42 86.1921C182.562 86.9684 184.117 86.672 184.893 85.5302C185.669 84.3884 185.373 82.8334 184.231 82.0572L170.999 73.0615ZM165.377 81.3313L135.606 61.0911C134.464 60.3148 132.909 60.6111 132.133 61.7529C131.356 62.8948 131.653 64.4497 132.795 65.226L162.566 85.4662L178.279 96.1486C179.42 96.9249 180.975 96.6285 181.752 95.4867C182.528 94.3449 182.232 92.7899 181.09 92.0137L165.377 81.3313ZM159.755 89.6011L132.051 70.7664C130.909 69.9902 129.354 70.2865 128.578 71.4283C127.802 72.5701 128.098 74.1251 129.24 74.9013L156.944 93.736L174.724 105.824C175.866 106.6 177.421 106.304 178.197 105.162C178.973 104.02 178.677 102.465 177.535 101.689L159.755 89.6011ZM154.133 97.8709L127.669 79.8796C126.527 79.1033 124.972 79.3997 124.196 80.5415C123.42 81.6833 123.716 83.2382 124.858 84.0145L151.321 102.006L170.342 114.937C171.484 115.713 173.039 115.417 173.815 114.275C174.591 113.133 174.295 111.578 173.153 110.802L154.133 97.8709ZM148.51 106.141L123.287 88.9927C122.145 88.2165 120.591 88.5128 119.814 89.6546C119.038 90.7964 119.334 92.3514 120.476 93.1277L145.699 110.276L165.96 124.05C167.102 124.827 168.657 124.53 169.433 123.388C170.209 122.247 169.913 120.692 168.771 119.915L148.51 106.141ZM142.888 114.411L118.492 97.8248C117.35 97.0485 115.795 97.3448 115.019 98.4867C114.243 99.6285 114.539 101.183 115.681 101.96L140.077 118.545L161.165 132.882C162.307 133.659 163.862 133.362 164.638 132.22C165.414 131.079 165.118 129.524 163.976 128.747L142.888 114.411ZM137.266 122.68L113.283 106.376C112.141 105.599 110.586 105.896 109.81 107.038C109.034 108.179 109.33 109.734 110.472 110.511L134.454 126.815L155.956 141.433C157.098 142.21 158.653 141.913 159.429 140.771C160.205 139.63 159.909 138.075 158.767 137.298L137.266 122.68ZM131.643 130.95L108.074 114.927C106.933 114.15 105.378 114.447 104.601 115.589C103.825 116.73 104.121 118.285 105.263 119.062L128.832 135.085L150.747 149.984C151.889 150.76 153.444 150.464 154.22 149.322C154.996 148.18 154.7 146.626 153.558 145.849L131.643 130.95ZM126.021 139.22L102.039 122.915C100.897 122.139 99.3418 122.435 98.5656 123.577C97.7893 124.719 98.0856 126.274 99.2274 127.05L123.21 143.355L144.711 157.973C145.853 158.749 147.408 158.453 148.184 157.311C148.961 156.169 148.664 154.614 147.523 153.838L126.021 139.22ZM120.399 147.49L96.0028 130.904C94.861 130.128 93.3061 130.424 92.5298 131.566C91.7535 132.708 92.0498 134.263 93.1917 135.039L117.588 151.625L138.676 165.962C139.817 166.738 141.372 166.441 142.149 165.3C142.925 164.158 142.629 162.603 141.487 161.827L120.399 147.49ZM114.776 155.76L89.5535 138.612C88.4117 137.835 86.8568 138.132 86.0805 139.273C85.3042 140.415 85.6006 141.97 86.7424 142.747L111.965 159.895L132.226 173.669C133.368 174.445 134.923 174.149 135.699 173.007C136.476 171.865 136.179 170.311 135.037 169.534L114.776 155.76ZM109.154 164.029L82.6908 146.038C81.5489 145.262 79.994 145.558 79.2177 146.7C78.4415 147.842 78.7378 149.397 79.8796 150.173L106.343 168.164L125.364 181.096C126.505 181.872 128.06 181.576 128.837 180.434C129.613 179.292 129.317 177.737 128.175 176.961L109.154 164.029ZM103.532 172.299L75.828 153.465C74.6862 152.688 73.1312 152.985 72.355 154.126C71.5787 155.268 71.875 156.823 73.0168 157.599L100.721 176.434L118.501 188.522C119.643 189.298 121.198 189.002 121.974 187.86C122.75 186.718 122.454 185.163 121.312 184.387L103.532 172.299ZM97.9095 180.569L68.1382 160.329C66.9964 159.553 65.4415 159.849 64.6652 160.991C63.8889 162.132 64.1853 163.687 65.3271 164.464L95.0984 184.704L110.811 195.386C111.953 196.163 113.508 195.866 114.284 194.724C115.06 193.583 114.764 192.028 113.622 191.251L97.9095 180.569ZM92.2873 188.839L60.035 166.912C58.8932 166.136 57.3383 166.432 56.562 167.574C55.7857 168.716 56.082 170.271 57.2239 171.047L89.4761 192.974L102.708 201.969C103.85 202.746 105.405 202.449 106.181 201.308C106.957 200.166 106.661 198.611 105.519 197.835L92.2873 188.839ZM86.665 197.109L51.9318 173.495C50.7899 172.719 49.235 173.015 48.4587 174.157C47.6825 175.299 47.9788 176.854 49.1206 177.63L83.8538 201.244L94.6046 208.553C95.7464 209.329 97.3013 209.033 98.0776 207.891C98.8539 206.749 98.5575 205.194 97.4157 204.418L86.665 197.109ZM78.2315 209.513L84.8474 214.011C85.9892 214.788 87.5441 214.491 88.3204 213.349C89.0967 212.208 88.8003 210.653 87.6585 209.876L81.0427 205.378L42.1746 178.954C41.0327 178.177 39.4778 178.474 38.7015 179.616C37.9253 180.757 38.2216 182.312 39.3634 183.089L78.2315 209.513Z" fill="#9FD2F5"/>
<path d="M130.226 12.0879C140.046 18.7639 125.432 64.4942 94.3812 110.167C63.3301 155.84 27.5998 184.16 17.7801 177.484C7.96042 170.808 25.1719 128.371 56.223 82.6981C87.274 37.0252 120.406 5.41196 130.226 12.0879Z" fill="#9FD2F5"/>
</svg>
