<svg width="234" height="207" viewBox="0 0 234 207" fill="none" xmlns="http://www.w3.org/2000/svg">
<path fill-rule="evenodd" clip-rule="evenodd" d="M219.234 126.797C213.077 136.95 166.65 124.73 119.427 96.0905C72.2045 67.4516 42.0682 33.2391 48.2256 23.0862L15.8159 76.5264C13.7389 79.9512 13.8939 84.6836 16.2721 90.4536C18.6502 96.2236 23.2049 102.918 29.676 110.155C36.1472 117.392 44.4082 125.029 53.9872 132.631C63.5663 140.233 74.2758 147.651 85.5044 154.461C96.733 161.271 108.261 167.339 119.429 172.32C130.598 177.301 141.189 181.096 150.598 183.49C160.006 185.883 168.048 186.828 174.264 186.27C180.48 185.712 184.748 183.662 186.825 180.237L219.234 126.797ZM180.412 176.348L204.784 136.161C205.5 134.981 205.123 133.443 203.943 132.727C202.762 132.011 201.225 132.388 200.509 133.568L176.137 173.755L171.988 180.596C171.272 181.776 171.649 183.314 172.83 184.03C174.01 184.746 175.548 184.369 176.264 183.189L180.412 176.348ZM171.862 171.163L193.641 135.251C194.357 134.07 193.98 132.533 192.8 131.817C191.619 131.101 190.082 131.478 189.366 132.658L167.586 168.57L160.845 179.685C160.129 180.866 160.506 182.404 161.686 183.119C162.867 183.835 164.404 183.459 165.12 182.278L171.862 171.163ZM163.311 165.977L183.535 132.63C184.251 131.45 183.874 129.912 182.693 129.196C181.513 128.48 179.975 128.857 179.259 130.038L159.036 163.384L150.739 177.065C150.023 178.246 150.4 179.783 151.58 180.499C152.761 181.215 154.298 180.838 155.014 179.658L163.311 165.977ZM154.761 160.792L173.429 130.01C174.145 128.829 173.768 127.292 172.587 126.576C171.407 125.86 169.869 126.237 169.153 127.417L150.485 158.199L140.633 174.445C139.917 175.625 140.294 177.163 141.474 177.879C142.655 178.595 144.192 178.218 144.908 177.037L154.761 160.792ZM146.21 155.606L163.582 126.962C164.298 125.782 163.921 124.244 162.741 123.528C161.56 122.812 160.023 123.189 159.307 124.369L141.935 153.013L130.786 171.397C130.07 172.577 130.447 174.115 131.627 174.831C132.808 175.547 134.345 175.17 135.061 173.99L146.21 155.606ZM137.66 150.421L154.253 123.059C154.969 121.879 154.593 120.341 153.412 119.625C152.232 118.909 150.694 119.286 149.978 120.466L133.385 147.828L121.458 167.494C120.742 168.674 121.118 170.212 122.299 170.928C123.48 171.644 125.017 171.267 125.733 170.087L137.66 150.421ZM129.109 145.235L144.925 119.156C145.641 117.976 145.265 116.438 144.084 115.722C142.903 115.006 141.366 115.383 140.65 116.563L124.834 142.642L112.129 163.591C111.414 164.771 111.79 166.309 112.971 167.025C114.151 167.741 115.689 167.364 116.405 166.184L129.109 145.235ZM120.559 140.049L135.856 114.826C136.572 113.645 136.196 112.108 135.015 111.392C133.834 110.676 132.297 111.052 131.581 112.233L116.284 137.457L103.06 159.26C102.345 160.441 102.721 161.978 103.902 162.694C105.082 163.41 106.62 163.034 107.336 161.853L120.559 140.049ZM112.008 134.864L127.047 110.068C127.762 108.887 127.386 107.35 126.205 106.634C125.025 105.918 123.487 106.294 122.771 107.475L107.733 132.271L94.2508 154.502C93.5348 155.683 93.9114 157.22 95.092 157.936C96.2726 158.652 97.81 158.276 98.526 157.095L112.008 134.864ZM103.458 129.678L118.237 105.31C118.953 104.129 118.576 102.592 117.396 101.876C116.215 101.16 114.678 101.536 113.962 102.717L99.1827 127.086L85.4411 149.744C84.7251 150.925 85.1017 152.462 86.2823 153.178C87.4628 153.894 89.0003 153.518 89.7163 152.337L103.458 129.678ZM94.9075 124.493L109.946 99.6965C110.662 98.5159 110.285 96.9785 109.104 96.2625C107.924 95.5465 106.386 95.9231 105.67 97.1037L90.6323 121.9L77.1499 144.131C76.4339 145.312 76.8105 146.849 77.9911 147.565C79.1717 148.281 80.7091 147.904 81.4251 146.724L94.9075 124.493ZM86.3571 119.307L101.654 94.0834C102.37 92.9028 101.994 91.3654 100.813 90.6494C99.6327 89.9334 98.0952 90.3101 97.3792 91.4906L82.0819 116.714L68.8587 138.518C68.1427 139.699 68.5194 141.236 69.6999 141.952C70.8805 142.668 72.418 142.291 73.1339 141.111L86.3571 119.307ZM77.8066 114.122L93.6226 88.0428C94.3385 86.8623 93.9619 85.3248 92.7813 84.6088C91.6008 83.8928 90.0633 84.2695 89.3473 85.45L73.5314 111.529L60.8268 132.477C60.1109 133.658 60.4875 135.195 61.6681 135.911C62.8486 136.627 64.3861 136.251 65.1021 135.07L77.8066 114.122ZM69.2562 108.936L85.8499 81.5747C86.5659 80.3941 86.1893 78.8567 85.0087 78.1407C83.8281 77.4247 82.2907 77.8014 81.5747 78.9819L64.981 106.343L53.0542 126.009C52.3382 127.19 52.7149 128.727 53.8954 129.443C55.076 130.159 56.6135 129.783 57.3294 128.602L69.2562 108.936ZM60.7057 103.751L78.0773 75.1066C78.7933 73.926 78.4167 72.3886 77.2361 71.6726C76.0555 70.9566 74.5181 71.3332 73.8021 72.5138L56.4305 101.158L45.2816 119.541C44.5656 120.722 44.9422 122.259 46.1228 122.975C47.3034 123.691 48.8408 123.315 49.5568 122.134L60.7057 103.751ZM52.1553 98.565L70.8233 67.7834C71.5392 66.6029 71.1626 65.0654 69.982 64.3494C68.8015 63.6335 67.264 64.0101 66.5481 65.1907L47.8801 95.9722L38.0275 112.218C37.3116 113.399 37.6882 114.936 38.8688 115.652C40.0493 116.368 41.5868 115.991 42.3028 114.811L52.1553 98.565ZM43.6049 93.3795L63.8285 60.0328C64.5445 58.8522 64.1678 57.3147 62.9873 56.5988C61.8067 55.8828 60.2692 56.2594 59.5533 57.44L39.3296 90.7867L31.0328 104.467C30.3168 105.648 30.6934 107.185 31.874 107.901C33.0546 108.617 34.592 108.241 35.308 107.06L43.6049 93.3795ZM35.0544 88.1939L56.8337 52.2821C57.5497 51.1015 57.1731 49.564 55.9925 48.8481C54.8119 48.1321 53.2745 48.5087 52.5585 49.6893L30.7792 85.6011L24.038 96.7167C23.322 97.8973 23.6986 99.4347 24.8792 100.151C26.0598 100.867 27.5972 100.49 28.3132 99.3095L35.0544 88.1939ZM22.2288 80.4156L18.0803 87.2559C17.3643 88.4365 17.741 89.974 18.9215 90.6899C20.1021 91.4059 21.6396 91.0293 22.3555 89.8487L26.504 83.0084L50.876 42.8213C51.592 41.6407 51.2154 40.1033 50.0348 39.3873C48.8543 38.6713 47.3168 39.048 46.6008 40.2285L22.2288 80.4156Z" fill="#FDE9FD"/>
<path d="M222.087 122.094C215.929 132.247 169.502 120.027 122.279 91.3878C75.0565 62.7488 44.9203 28.5363 51.0776 18.3834C57.235 8.23055 100.508 23.2165 147.731 51.8555C194.954 80.4945 228.244 111.942 222.087 122.094Z" fill="#FDE9FD"/>
</svg>
