<svg width="222" height="162" viewBox="0 0 222 162" fill="none" xmlns="http://www.w3.org/2000/svg">
<path fill-rule="evenodd" clip-rule="evenodd" d="M215.753 71.1288C213.093 82.701 165.176 85.6652 111.352 73.2898C57.5277 60.9144 18.1784 37.8857 20.8391 26.3135L6.83434 87.2242C5.93684 91.1276 7.56893 95.5725 11.6374 100.305C15.7059 105.037 22.1312 109.965 30.5463 114.806C38.9614 119.646 49.2016 124.306 60.6822 128.519C72.1627 132.731 84.6589 136.414 97.4572 139.356C110.255 142.299 123.105 144.444 135.273 145.669C147.44 146.893 158.687 147.174 168.372 146.495C178.056 145.815 185.988 144.189 191.715 141.709C197.442 139.229 200.851 135.943 201.749 132.039L215.753 71.1288ZM194.439 130.359L204.971 84.5541C205.28 83.2085 204.44 81.8668 203.095 81.5574C201.749 81.2481 200.407 82.0881 200.098 83.4337L189.567 129.239L187.774 137.035C187.465 138.381 188.305 139.722 189.65 140.032C190.996 140.341 192.337 139.501 192.647 138.155L194.439 130.359ZM184.694 128.118L194.105 87.1861C194.414 85.8405 193.574 84.4989 192.229 84.1895C190.883 83.8801 189.541 84.7202 189.232 86.0658L179.821 126.998L176.908 139.667C176.598 141.013 177.438 142.354 178.784 142.664C180.13 142.973 181.471 142.133 181.781 140.788L184.694 128.118ZM174.948 125.877L183.687 87.8691C183.996 86.5235 183.156 85.1819 181.811 84.8725C180.465 84.5631 179.123 85.4031 178.814 86.7487L170.075 124.757L166.49 140.35C166.18 141.696 167.02 143.037 168.366 143.347C169.712 143.656 171.053 142.816 171.363 141.471L174.948 125.877ZM165.202 123.637L173.269 88.552C173.578 87.2064 172.738 85.8648 171.393 85.5554C170.047 85.246 168.705 86.0861 168.396 87.4317L160.329 122.516L156.072 141.033C155.763 142.379 156.603 143.72 157.948 144.03C159.294 144.339 160.635 143.499 160.945 142.153L165.202 123.637ZM155.457 121.396L162.963 88.7477C163.272 87.4021 162.432 86.0605 161.087 85.7511C159.741 85.4417 158.4 86.2817 158.09 87.6273L150.584 120.275L145.766 141.229C145.457 142.574 146.297 143.916 147.642 144.225C148.988 144.535 150.329 143.695 150.639 142.349L155.457 121.396ZM145.711 119.155L152.881 87.9688C153.191 86.6232 152.351 85.2816 151.005 84.9722C149.659 84.6628 148.318 85.5028 148.008 86.8484L140.838 118.035L135.684 140.45C135.375 141.795 136.215 143.137 137.56 143.446C138.906 143.756 140.248 142.916 140.557 141.57L145.711 119.155ZM135.965 116.914L142.799 87.1899C143.109 85.8443 142.269 84.5027 140.923 84.1933C139.578 83.8839 138.236 84.7239 137.927 86.0695L131.092 115.794L125.602 139.671C125.293 141.017 126.133 142.358 127.479 142.668C128.824 142.977 130.166 142.137 130.475 140.791L135.965 116.914ZM126.219 114.674L132.83 85.9237C133.139 84.5781 132.299 83.2365 130.953 82.9271C129.608 82.6177 128.266 83.4577 127.957 84.8033L121.346 113.553L115.633 138.405C115.323 139.75 116.163 141.092 117.509 141.401C118.854 141.711 120.196 140.871 120.505 139.525L126.219 114.674ZM116.474 112.433L122.972 84.1702C123.281 82.8246 122.441 81.483 121.096 81.1736C119.75 80.8642 118.408 81.7042 118.099 83.0498L111.601 111.312L105.775 136.651C105.465 137.997 106.305 139.338 107.651 139.648C108.997 139.957 110.338 139.117 110.648 137.772L116.474 112.433ZM106.728 110.192L113.114 82.4167C113.423 81.0711 112.583 79.7295 111.238 79.4201C109.892 79.1107 108.551 79.9508 108.241 81.2964L101.855 109.072L95.917 134.898C95.6077 136.243 96.4477 137.585 97.7933 137.894C99.1389 138.204 100.481 137.364 100.79 136.018L106.728 110.192ZM96.9822 107.951L103.48 79.6887C103.79 78.3431 102.95 77.0015 101.604 76.6921C100.259 76.3827 98.917 77.2227 98.6076 78.5683L92.1093 106.831L86.2834 132.17C85.974 133.515 86.814 134.857 88.1596 135.166C89.5052 135.476 90.8468 134.636 91.1562 133.29L96.9822 107.951ZM87.2365 105.71L93.8468 76.9606C94.1561 75.615 93.3161 74.2734 91.9705 73.964C90.6249 73.6546 89.2833 74.4947 88.9739 75.8403L82.3636 104.59L76.6497 129.442C76.3403 130.787 77.1803 132.129 78.5259 132.438C79.8715 132.748 81.2132 131.908 81.5225 130.562L87.2365 105.71ZM77.4908 103.47L84.3251 73.7453C84.6345 72.3997 83.7945 71.0581 82.4489 70.7487C81.1033 70.4393 79.7616 71.2793 79.4523 72.6249L72.6179 102.349L67.128 126.226C66.8187 127.572 67.6587 128.914 69.0043 129.223C70.3499 129.532 71.6915 128.692 72.0009 127.347L77.4908 103.47ZM67.7451 101.229L74.9155 70.0427C75.2249 68.6971 74.3849 67.3554 73.0393 67.0461C71.6937 66.7367 70.352 67.5767 70.0426 68.9223L62.8722 100.109L57.7184 122.524C57.4091 123.869 58.2491 125.211 59.5947 125.52C60.9403 125.83 62.2819 124.99 62.5913 123.644L67.7451 101.229ZM57.9993 98.9882L65.5059 66.3401C65.8153 64.9945 64.9753 63.6528 63.6297 63.3434C62.2841 63.0341 60.9424 63.8741 60.633 65.2197L53.1265 97.8678L48.3088 118.821C47.9995 120.167 48.8395 121.508 50.1851 121.818C51.5307 122.127 52.8723 121.287 53.1817 119.941L57.9993 98.9882ZM48.2536 96.7474L56.3204 61.6629C56.6298 60.3173 55.7897 58.9756 54.4441 58.6662C53.0985 58.3569 51.7569 59.1969 51.4475 60.5425L43.3808 95.627L39.1233 114.144C38.8139 115.489 39.6539 116.831 40.9996 117.141C42.3452 117.45 43.6868 116.61 43.9962 115.264L48.2536 96.7474ZM38.5079 94.5067L47.2469 56.4984C47.5563 55.1528 46.7163 53.8112 45.3707 53.5018C44.0251 53.1924 42.6834 54.0324 42.374 55.378L33.6351 93.3863L30.0498 108.979C29.7404 110.325 30.5805 111.667 31.9261 111.976C33.2717 112.285 34.6133 111.445 34.9227 110.1L38.5079 94.5067ZM28.7622 92.2659L38.1734 51.3339C38.4828 49.9883 37.6428 48.6467 36.2972 48.3373C34.9516 48.0279 33.6099 48.8679 33.3006 50.2135L23.8893 91.1455L20.9763 103.815C20.667 105.161 21.507 106.502 22.8526 106.812C24.1982 107.121 25.5398 106.281 25.8492 104.935L28.7622 92.2659ZM14.1436 88.9047L12.351 96.7013C12.0416 98.0469 12.8816 99.3885 14.2272 99.6979C15.5728 100.007 16.9145 99.1673 17.2239 97.8217L19.0165 90.0251L29.5481 44.2203C29.8575 42.8747 29.0174 41.5331 27.6718 41.2237C26.3262 40.9143 24.9846 41.7543 24.6752 43.0999L14.1436 88.9047Z" fill="#005916"/>
<path d="M216.986 65.7686C214.325 77.3408 166.408 80.305 112.584 67.9296C58.7601 55.5542 19.4108 32.5255 22.0715 20.9533C24.7322 9.3811 70.5222 10.0322 124.346 22.4076C178.17 34.7831 219.647 54.1964 216.986 65.7686Z" fill="#005916"/>
</svg>
