<svg width="233" height="195" viewBox="0 0 233 195" fill="none" xmlns="http://www.w3.org/2000/svg">
<path fill-rule="evenodd" clip-rule="evenodd" d="M192.098 24.3617C197.217 35.0755 161.556 67.2172 111.724 91.0286C61.8924 114.84 16.7603 121.304 11.6409 110.59L38.5873 166.983C40.3142 170.597 44.358 173.06 50.4878 174.232C56.6176 175.405 64.7134 175.263 74.3129 173.814C83.9125 172.366 94.8278 169.641 106.436 165.793C118.044 161.945 130.117 157.05 141.966 151.388C153.814 145.726 165.207 139.408 175.493 132.794C185.78 126.181 194.758 119.401 201.915 112.842C209.073 106.283 214.269 100.073 217.208 94.5676C220.147 89.062 220.771 84.3683 219.044 80.7544L192.098 24.3617ZM212.277 83.988L192.013 41.5806C191.418 40.3349 189.925 39.8075 188.68 40.4028C187.434 40.9981 186.906 42.4906 187.502 43.7364L207.765 86.1437L211.215 93.3619C211.81 94.6077 213.302 95.1351 214.548 94.5398C215.794 93.9445 216.321 92.452 215.726 91.2062L212.277 83.988ZM203.254 88.2994L185.146 50.4035C184.551 49.1577 183.058 48.6304 181.812 49.2256C180.567 49.8209 180.039 51.3134 180.635 52.5592L198.743 90.4551L204.348 102.185C204.943 103.431 206.435 103.958 207.681 103.363C208.927 102.767 209.454 101.275 208.859 100.029L203.254 88.2994ZM194.231 92.6108L177.417 57.4218C176.821 56.176 175.329 55.6486 174.083 56.2439C172.837 56.8392 172.31 58.3317 172.905 59.5775L189.72 94.7665L196.618 109.203C197.213 110.449 198.706 110.976 199.952 110.381C201.197 109.786 201.725 108.293 201.13 107.047L194.231 92.6108ZM185.208 96.9223L169.687 64.4401C169.092 63.1943 167.599 62.6669 166.354 63.2622C165.108 63.8575 164.581 65.35 165.176 66.5958L180.697 99.078L188.889 116.221C189.484 117.467 190.976 117.994 192.222 117.399C193.468 116.804 193.995 115.311 193.4 114.066L185.208 96.9223ZM176.186 101.234L161.742 71.0072C161.147 69.7614 159.654 69.2341 158.409 69.8293C157.163 70.4246 156.636 71.9171 157.231 73.1629L171.674 103.389L180.944 122.788C181.539 124.034 183.031 124.562 184.277 123.966C185.523 123.371 186.05 121.879 185.455 120.633L176.186 101.234ZM167.163 105.545L153.366 76.6721C152.771 75.4263 151.278 74.8989 150.033 75.4942C148.787 76.0895 148.259 77.582 148.855 78.8278L162.651 107.701L172.568 128.453C173.163 129.699 174.655 130.226 175.901 129.631C177.147 129.036 177.674 127.543 177.079 126.298L167.163 105.545ZM158.14 109.857L144.99 82.3369C144.395 81.0911 142.902 80.5638 141.656 81.1591C140.411 81.7543 139.883 83.2468 140.479 84.4926L153.628 112.012L164.191 134.118C164.787 135.364 166.279 135.891 167.525 135.296C168.771 134.701 169.298 133.208 168.703 131.962L158.14 109.857ZM149.117 114.168L136.398 87.5506C135.803 86.3048 134.311 85.7775 133.065 86.3728C131.819 86.9681 131.292 88.4605 131.887 89.7063L144.606 116.324L155.6 139.332C156.195 140.578 157.688 141.105 158.933 140.51C160.179 139.914 160.706 138.422 160.111 137.176L149.117 114.168ZM140.094 118.479L127.591 92.3132C126.996 91.0674 125.503 90.5401 124.258 91.1353C123.012 91.7306 122.484 93.2231 123.08 94.4689L135.583 120.635L146.793 144.094C147.388 145.34 148.88 145.868 150.126 145.272C151.372 144.677 151.899 143.185 151.304 141.939L140.094 118.479ZM131.071 122.791L118.784 97.0758C118.189 95.83 116.696 95.3026 115.45 95.8979C114.204 96.4932 113.677 97.9857 114.272 99.2315L126.56 124.947L137.985 148.857C138.581 150.103 140.073 150.63 141.319 150.035C142.565 149.44 143.092 147.947 142.497 146.701L131.071 122.791ZM122.049 127.102L109.545 100.936C108.95 99.6903 107.458 99.1629 106.212 99.7582C104.966 100.353 104.439 101.846 105.034 103.092L117.537 129.258L128.747 152.717C129.342 153.963 130.835 154.49 132.08 153.895C133.326 153.3 133.854 151.807 133.258 150.562L122.049 127.102ZM113.026 131.414L100.307 104.796C99.7117 103.551 98.2192 103.023 96.9734 103.619C95.7276 104.214 95.2003 105.706 95.7956 106.952L108.514 133.569L119.508 156.578C120.104 157.823 121.596 158.351 122.842 157.755C124.088 157.16 124.615 155.668 124.02 154.422L113.026 131.414ZM104.003 135.725L90.853 108.206C90.2577 106.96 88.7652 106.432 87.5194 107.028C86.2736 107.623 85.7463 109.115 86.3416 110.361L99.4915 137.881L110.054 159.987C110.65 161.233 112.142 161.76 113.388 161.165C114.634 160.569 115.161 159.077 114.566 157.831L104.003 135.725ZM94.98 140.037L81.1835 111.164C80.5882 109.918 79.0957 109.39 77.8499 109.986C76.6041 110.581 76.0768 112.073 76.672 113.319L90.4686 142.192L100.385 162.945C100.98 164.191 102.473 164.718 103.718 164.123C104.964 163.527 105.492 162.035 104.896 160.789L94.98 140.037ZM85.9572 144.348L71.5139 114.122C70.9186 112.876 69.4261 112.348 68.1803 112.944C66.9345 113.539 66.4072 115.031 67.0025 116.277L81.4458 146.504L90.7154 165.903C91.3106 167.149 92.8031 167.676 94.0489 167.081C95.2947 166.485 95.8221 164.993 95.2268 163.747L85.9572 144.348ZM76.9344 148.659L61.4132 116.177C60.8179 114.931 59.3254 114.404 58.0796 114.999C56.8339 115.595 56.3065 117.087 56.9018 118.333L72.4229 150.815L80.6147 167.959C81.2099 169.204 82.7024 169.732 83.9482 169.136C85.194 168.541 85.7214 167.049 85.1261 165.803L76.9344 148.659ZM67.9115 152.971L51.097 117.782C50.5017 116.536 49.0092 116.009 47.7634 116.604C46.5176 117.199 45.9902 118.692 46.5855 119.938L63.4001 155.127L70.2984 169.563C70.8937 170.809 72.3862 171.336 73.632 170.741C74.8778 170.146 75.4051 168.653 74.8098 167.407L67.9115 152.971ZM58.8887 157.282L40.7807 119.386C40.1854 118.141 38.6929 117.613 37.4471 118.209C36.2013 118.804 35.674 120.296 36.2693 121.542L54.3773 159.438L59.9821 171.168C60.5774 172.413 62.0699 172.941 63.3157 172.346C64.5615 171.75 65.0888 170.258 64.4935 169.012L58.8887 157.282ZM45.3544 163.749L48.8036 170.968C49.3989 172.214 50.8913 172.741 52.1371 172.146C53.3829 171.55 53.9103 170.058 53.315 168.812L49.8659 161.594L29.6021 119.186C29.0068 117.941 27.5144 117.413 26.2686 118.009C25.0228 118.604 24.4954 120.096 25.0907 121.342L45.3544 163.749Z" fill="#F0E942"/>
<path d="M189.726 19.3991C194.846 30.1129 159.185 62.2546 109.353 86.066C59.5211 109.877 14.389 116.342 9.26958 105.628C4.15013 94.9139 40.3966 66.9257 90.2284 43.1143C140.06 19.3029 184.607 8.68526 189.726 19.3991Z" fill="#F0E942"/>
</svg>
